<svg width="24" height="25" viewBox="0 0 24 25" fill="none" xmlns="http://www.w3.org/2000/svg">
<g id="la:clipboard-check">
<path id="Vector" d="M12 2.2822C11.0565 2.2822 10.386 2.9497 10.0545 3.7822H3.75V22.5322H20.25V3.7822H13.9455C13.614 2.9497 12.9435 2.2822 12 2.2822ZM12 3.7822C12.4163 3.7822 12.75 4.11595 12.75 4.5322V5.2822H15V6.7822H9V5.2822H11.25V4.5322C11.25 4.11595 11.5837 3.7822 12 3.7822ZM5.25 5.2822H7.5V8.2822H16.5V5.2822H18.75V21.0322H5.25V5.2822ZM15.9608 10.7429L11.25 15.4537L8.78925 12.9937L7.71075 14.0714L10.7108 17.0714L11.25 17.5867L11.7892 17.0714L17.0392 11.8214L15.9608 10.7429Z" fill="#101010" fill-opacity="0.7"/>
</g>
</svg>
