<?xml version="1.0" encoding="UTF-8"?>
<svg xmlns="http://www.w3.org/2000/svg" id="Layer_1" data-name="Layer 1" viewBox="0 0 24 24" width="512" height="512"><path d="m24,10h-2V2.5c0-1.379-1.122-2.5-2.5-2.5H4.5c-1.378,0-2.5,1.121-2.5,2.5v7.5H0v1h2v9h5.106l3.897,3.283c.286.254.645.38,1.001.38.353,0,.703-.123.979-.368l3.985-3.295h5.032v-9h2v-1Zm-3,9h-4.391l-4.276,3.535c-.19.171-.475.169-.675-.009l-4.187-3.526H3V2.5c0-.827.673-1.5,1.5-1.5h15c.827,0,1.5.673,1.5,1.5v16.5Zm-5-9c0,.552-.448,1-1,1s-1-.448-1-1,.448-1,1-1,1,.448,1,1Zm-6,0c0,.552-.448,1-1,1s-1-.448-1-1,.448-1,1-1,1,.448,1,1Zm6.5-5H7.5c-1.378,0-2.5,1.121-2.5,2.5v5c0,1.379,1.122,2.5,2.5,2.5h9c1.378,0,2.5-1.121,2.5-2.5v-5c0-1.379-1.122-2.5-2.5-2.5Zm1.5,7.5c0,.827-.673,1.5-1.5,1.5H7.5c-.827,0-1.5-.673-1.5-1.5v-5c0-.827.673-1.5,1.5-1.5h9c.827,0,1.5.673,1.5,1.5v5Z"/></svg>
