<svg width="30" height="30" viewBox="0 0 30 30" fill="none" xmlns="http://www.w3.org/2000/svg">
<g id="Add">
<path id="Vector" d="M15.4287 8.99986C15.4287 8.8862 15.3835 8.77719 15.3032 8.69681C15.2228 8.61644 15.1138 8.57129 15.0001 8.57129C14.8864 8.57129 14.7774 8.61644 14.6971 8.69681C14.6167 8.77719 14.5715 8.8862 14.5715 8.99986V14.5713H9.0001C8.88644 14.5713 8.77743 14.6164 8.69706 14.6968C8.61669 14.7772 8.57153 14.8862 8.57153 14.9999C8.57153 15.1135 8.61669 15.2225 8.69706 15.3029C8.77743 15.3833 8.88644 15.4284 9.0001 15.4284H14.5715V20.9999C14.5715 21.1135 14.6167 21.2225 14.6971 21.3029C14.7774 21.3833 14.8864 21.4284 15.0001 21.4284C15.1138 21.4284 15.2228 21.3833 15.3032 21.3029C15.3835 21.2225 15.4287 21.1135 15.4287 20.9999V15.4284H21.0001C21.1138 15.4284 21.2228 15.3833 21.3032 15.3029C21.3835 15.2225 21.4287 15.1135 21.4287 14.9999C21.4287 14.8862 21.3835 14.7772 21.3032 14.6968C21.2228 14.6164 21.1138 14.5713 21.0001 14.5713H15.4287V8.99986Z" fill="#3E788A"/>
<circle id="Ellipse 32" cx="15" cy="15" r="14.5" stroke="#3E788A"/>
</g>
</svg>
