<svg width="28" height="29" viewBox="0 0 28 29" fill="none" xmlns="http://www.w3.org/2000/svg">
<g id="carbon:add-filled">
<path id="Vector" d="M14.25 2C11.0132 2.03972 7.92003 3.36535 5.63112 5.69373C3.34221 8.0221 2.03905 11.1686 2 14.4612C2.03905 17.7538 3.34221 20.9003 5.63112 23.2287C7.92003 25.5571 11.0132 26.8827 14.25 26.9224C17.4868 26.8827 20.58 25.5571 22.8689 23.2287C25.1578 20.9003 26.4609 17.7538 26.5 14.4612C26.4609 11.1686 25.1578 8.0221 22.8689 5.69373C20.58 3.36535 17.4868 2.03972 14.25 2ZM21.25 15.3513H15.125V21.5819H13.375V15.3513H7.25V13.5711H13.375V7.34052H15.125V13.5711H21.25V15.3513Z" fill="white"/>
</g>
</svg>
