<svg width="15" height="15" viewBox="0 0 15 15" fill="none" xmlns="http://www.w3.org/2000/svg">
<g id="system-uicons:video">
<path id="Vector" d="M3.92857 4.64282H8.21429C8.59317 4.64282 8.95653 4.79333 9.22444 5.06124C9.49235 5.32915 9.64286 5.69251 9.64286 6.07139V8.92854C9.64286 9.30742 9.49235 9.67078 9.22444 9.93869C8.95653 10.2066 8.59317 10.3571 8.21429 10.3571H3.92857C3.54969 10.3571 3.18633 10.2066 2.91842 9.93869C2.65051 9.67078 2.5 9.30742 2.5 8.92854V6.07139C2.5 5.69251 2.65051 5.32915 2.91842 5.06124C3.18633 4.79333 3.54969 4.64282 3.92857 4.64282ZM9.64286 6.78568L11.3571 5.49997C11.4633 5.42037 11.5895 5.37191 11.7216 5.35999C11.8537 5.34808 11.9865 5.37319 12.1052 5.43252C12.2238 5.49184 12.3236 5.58303 12.3933 5.69587C12.4631 5.80871 12.5 5.93874 12.5 6.07139V8.92854C12.5 9.06119 12.4631 9.19122 12.3933 9.30406C12.3236 9.4169 12.2238 9.50809 12.1052 9.56741C11.9865 9.62674 11.8537 9.65185 11.7216 9.63994C11.5895 9.62802 11.4633 9.57956 11.3571 9.49997L9.64286 8.21425V6.78568Z" stroke="black" stroke-linecap="round" stroke-linejoin="round"/>
</g>
</svg>
