<svg xmlns="http://www.w3.org/2000/svg" width="190.336" height="228.945" viewBox="0 0 190.336 228.945">
  <g id="undraw_blank_canvas_re_2hwy" transform="translate(0 0)">
    <path id="Path_60" data-name="Path 60" d="M615.753,662.01H556.51a2.6,2.6,0,0,1-2.6-2.6V617.994a2.6,2.6,0,0,1,2.6-2.6h59.242a2.6,2.6,0,0,1,2.6,2.6v41.419a2.6,2.6,0,0,1-2.6,2.6Z" transform="translate(-479.283 -433.065)" fill="#f2f2f2"/>
    <path id="Path_61" data-name="Path 61" d="M450.737,387.886a4.413,4.413,0,0,0-1.413-6.617l-.373-39.624-7.406,3.4,1.629,38.322a4.436,4.436,0,0,0,7.563,4.52Z" transform="translate(-401.414 -270.366)" fill="#9e616a"/>
    <path id="Path_62" data-name="Path 62" d="M443.894,314.692s-7.2-3.495-8.2,3.1-5.094,23.753-5.094,23.753l12.436-.879Z" transform="translate(-394.308 -253.997)" fill="#9e616a"/>
    <path id="Path_63" data-name="Path 63" d="M450.737,387.886a4.413,4.413,0,0,0-1.413-6.617l-.373-39.624-7.406,3.4,1.629,38.322a4.436,4.436,0,0,0,7.563,4.52Z" transform="translate(-401.414 -270.366)" fill="#9e616a"/>
    <path id="Path_64" data-name="Path 64" d="M443.894,314.692s-7.2-3.495-8.2,3.1-5.094,23.753-5.094,23.753l12.436-.879Z" transform="translate(-394.308 -253.997)" fill="#1f7a8c"/>
    <path id="Path_65" data-name="Path 65" d="M358.928,625.55a1.42,1.42,0,0,1-1.029-2.461l.1-.387-.039-.093a3.814,3.814,0,0,0-7.035.026c-1.151,2.771-2.616,5.547-2.976,8.477a11.282,11.282,0,0,0,.2,3.88,45.234,45.234,0,0,1-4.115-18.787,43.666,43.666,0,0,1,.271-4.871q.224-1.989.622-3.949A45.758,45.758,0,0,1,354,587.992a12.177,12.177,0,0,0,5.065-5.255,9.291,9.291,0,0,0,.845-2.538c-.247.032-.5.052-.744.069l-.234.012H358.9a1.407,1.407,0,0,1-1.156-2.292l.32-.393c.162-.2.327-.4.489-.6a.7.7,0,0,0,.053-.061c.186-.23.372-.457.558-.687a4.069,4.069,0,0,0-1.334-1.289,4.69,4.69,0,0,0-5.78,1.35,7.353,7.353,0,0,0-1.136,6.156,16.306,16.306,0,0,0,2.255,5.028c-.1.129-.206.255-.307.384a46.057,46.057,0,0,0-4.807,7.615,19.145,19.145,0,0,0-1.143-8.892c-1.094-2.639-3.145-4.862-4.95-7.144a3.93,3.93,0,0,0-7,1.93q-.006.051-.011.1.4.227.788.482a1.926,1.926,0,0,1-.777,3.506l-.039.006a19.168,19.168,0,0,0,.505,2.866,19.735,19.735,0,0,0,9.826,12.369c.158.081.311.162.469.238a47.008,47.008,0,0,0-2.53,11.908,44.588,44.588,0,0,0,.032,7.2l-.012-.085a11.781,11.781,0,0,0-4.022-6.8c-3.1-2.542-7.468-3.479-10.807-5.522A2.211,2.211,0,0,0,325,609.8l.014.089a12.936,12.936,0,0,1,1.451.7q.4.227.788.482a1.926,1.926,0,0,1-.777,3.506l-.039.006-.081.012a19.183,19.183,0,0,0,3.529,5.525,19.752,19.752,0,0,0,14.325,6.285h0a46.992,46.992,0,0,0,3.157,9.216h11.277c.04-.125.077-.255.113-.38a12.811,12.811,0,0,1-3.12-.186c.837-1.027,1.673-2.061,2.51-3.088a.7.7,0,0,0,.053-.061c.424-.525.853-1.047,1.277-1.572h0a18.769,18.769,0,0,0-.55-4.781Z" transform="translate(-324.847 -408.211)" fill="#f2f2f2"/>
    <path id="Path_66" data-name="Path 66" d="M781.928,625.551a1.42,1.42,0,0,1-1.029-2.462l.1-.387-.039-.093a3.814,3.814,0,0,0-7.035.026c-1.151,2.771-2.616,5.547-2.976,8.477a11.285,11.285,0,0,0,.2,3.88,45.235,45.235,0,0,1-4.115-18.787,43.679,43.679,0,0,1,.271-4.871q.224-1.989.622-3.949A45.759,45.759,0,0,1,777,587.992a12.177,12.177,0,0,0,5.065-5.255,9.288,9.288,0,0,0,.845-2.538c-.247.032-.5.053-.744.069l-.234.012H781.9a1.407,1.407,0,0,1-1.156-2.292l.32-.393c.162-.2.327-.4.489-.6a.7.7,0,0,0,.053-.061c.186-.23.372-.457.558-.687a4.068,4.068,0,0,0-1.334-1.289,4.69,4.69,0,0,0-5.78,1.35,7.353,7.353,0,0,0-1.136,6.156,16.3,16.3,0,0,0,2.255,5.028c-.1.129-.206.255-.307.384a46.053,46.053,0,0,0-4.807,7.615,19.145,19.145,0,0,0-1.143-8.893c-1.094-2.639-3.145-4.862-4.95-7.144a3.93,3.93,0,0,0-7,1.93l-.011.1q.4.227.788.482a1.926,1.926,0,0,1-.777,3.506l-.039.006a19.172,19.172,0,0,0,.505,2.866,19.735,19.735,0,0,0,9.826,12.369c.158.081.311.162.469.238a47.01,47.01,0,0,0-2.53,11.908,44.588,44.588,0,0,0,.032,7.2l-.012-.085a11.781,11.781,0,0,0-4.022-6.8c-3.1-2.542-7.468-3.479-10.807-5.522A2.211,2.211,0,0,0,748,609.8l.014.089a12.922,12.922,0,0,1,1.451.7q.4.227.788.482a1.926,1.926,0,0,1-.777,3.506l-.039.006-.081.012a19.182,19.182,0,0,0,3.529,5.525,19.752,19.752,0,0,0,14.325,6.285h0a46.991,46.991,0,0,0,3.157,9.216h11.277c.04-.125.077-.255.113-.38a12.814,12.814,0,0,1-3.12-.186c.837-1.027,1.673-2.061,2.51-3.088a.7.7,0,0,0,.052-.061c.424-.525.853-1.047,1.277-1.572h0a18.766,18.766,0,0,0-.55-4.781Z" transform="translate(-607.708 -408.211)" fill="#f2f2f2"/>
    <path id="Path_67" data-name="Path 67" d="M673.22,393.342l-.1,0a3.26,3.26,0,0,1-3.027-3.328,8.76,8.76,0,0,0-7.152-8.861,8.561,8.561,0,0,0-9.822,5.554l-1.676,4.317a7.6,7.6,0,0,1-10.921,0l-.1-.1.062-.13,29.61-62.14v-1.523a8.064,8.064,0,0,1,0-1.411V169.211a3.244,3.244,0,0,1,.949-2.3,3.081,3.081,0,0,1,2.27-.9,3.26,3.26,0,0,1,3.027,3.328v156.4a8.058,8.058,0,0,1,0,1.411v1.5l29.672,62.27-.1.1a7.6,7.6,0,0,1-10.922,0l-.044-.069-1.632-4.248a8.563,8.563,0,0,0-9.822-5.554,8.76,8.76,0,0,0-7.152,8.861v.126a3.164,3.164,0,0,1-3.122,3.2Z" transform="translate(-542.428 -166.007)" fill="#e6e6e6"/>
    <path id="Path_68" data-name="Path 68" d="M687.024,315.277H578.62a4.758,4.758,0,0,1-4.753-4.753V234.733a4.758,4.758,0,0,1,4.753-4.753h108.4a4.758,4.758,0,0,1,4.753,4.753v75.791a4.758,4.758,0,0,1-4.753,4.753Z" transform="translate(-502.031 -204.836)" fill="#fff"/>
    <path id="Path_69" data-name="Path 69" d="M686.114,314.956h-108.4a5.349,5.349,0,0,1-5.343-5.342V233.823a5.349,5.349,0,0,1,5.343-5.342h108.4a5.349,5.349,0,0,1,5.342,5.342v75.791a5.349,5.349,0,0,1-5.342,5.342Zm-108.4-85.3a4.168,4.168,0,0,0-4.163,4.163v75.791a4.168,4.168,0,0,0,4.164,4.163h108.4a4.168,4.168,0,0,0,4.163-4.163V233.823a4.168,4.168,0,0,0-4.163-4.163Z" transform="translate(-501.12 -203.925)" fill="#f2f2f2"/>
    <path id="Path_70" data-name="Path 70" d="M703.3,229.984H671.245a7.674,7.674,0,0,1-7.666-7.666v-.139h47.387v.139A7.674,7.674,0,0,1,703.3,229.984Z" transform="translate(-550.943 -200.101)" fill="#e6e6e6"/>
    <path id="Path_71" data-name="Path 71" d="M703.656,447H671.6a7.674,7.674,0,0,1-7.666-7.666v-.139h47.387v.139A7.674,7.674,0,0,1,703.656,447Z" transform="translate(-551.18 -328.977)" fill="#e6e6e6"/>
    <path id="Path_72" data-name="Path 72" d="M514.572,730.167a.5.5,0,0,1-.12.331.386.386,0,0,1-.291.137h-189.1a.472.472,0,0,1,0-.935h189.1a.387.387,0,0,1,.291.137A.5.5,0,0,1,514.572,730.167Z" transform="translate(-324.645 -502.442)" fill="#ccc"/>
    <path id="Path_73" data-name="Path 73" d="M184.3,503.431h5.666l2.7-21.856H184.3Z" transform="translate(-118.271 -286.465)" fill="#9e616a"/>
    <path id="Path_74" data-name="Path 74" d="M502.325,695.251l8.957-.535v3.838l8.516,5.881a2.4,2.4,0,0,1-1.362,4.37H507.772l-1.838-3.8-.718,3.8H501.2Z" transform="translate(-438.326 -481.08)" fill="#2f2e41"/>
    <path id="Path_75" data-name="Path 75" d="M133.691,220.525l-.555,2.645-.472,9.757,18.962-2.567,1.456-11.3-2.013-3.307Z" transform="translate(-87.468 -128.608)" fill="#9e616a"/>
    <path id="Path_76" data-name="Path 76" d="M111.345,503.431h5.666l2.7-21.856h-8.363Z" transform="translate(-73.328 -286.781)" fill="#9e616a"/>
    <path id="Path_77" data-name="Path 77" d="M427.785,498.021v-.066l2.121-11.2,1.308-5.574-3.635-32.635c-.856-23.711,11.309-35.108,11.4-35.22l.264-.31,19.509-.54c10.5,7.112,9.309,46.009,11.231,72.462.137,1.886,1.86,4.67,1.436,6.465-3.359,14.234-2.375,29.627-4.934,30.082l-7.846-.123-4.052-20.8,3.74-15.861c-1.659-.346-2.805-9.516-2.805-9.516-.723-.971-3.218-9.225-3.218-9.225l-3.327-22.849-5.346,39.3,1.287,9.22-1.065,3.17-4.563,26.172-.049.422-8.6-.971Z" transform="translate(-393.218 -309.905)" fill="#2f2e41"/>
    <path id="Path_78" data-name="Path 78" d="M429.366,695.251l8.957-.535v3.838l8.516,5.881a2.4,2.4,0,0,1-1.362,4.37H434.813l-1.838-3.8-.718,3.8h-4.021Z" transform="translate(-393.177 -481.397)" fill="#2f2e41"/>
    <path id="Path_79" data-name="Path 79" d="M469.156,296.482l4.783,6.893,5.745,14.045-2.822,17.319,1.234,8.127,1.822,8.934c-7.02,5.037-15.358-1.919-23.018-5.009l-7.537,4.32.4-11.891.2-29.959a9.677,9.677,0,0,1,2.1-6.112,5.644,5.644,0,0,1,4.874-2.186h0l5.048-4.825Z" transform="translate(-407.229 -243.361)" fill="#1f7a8c"/>
    <circle id="Ellipse_8" data-name="Ellipse 8" cx="10.085" cy="10.085" r="10.085" transform="translate(49.753 28.462)" fill="#9e616a"/>
    <path id="Path_80" data-name="Path 80" d="M482.906,240.134c-.178.988-4.423,1.465-4.3-.293-.826,1.655-2.06,4.057-.488,6.808a4.317,4.317,0,0,0-.582,5.036,13.032,13.032,0,0,1,1.119,2.3,3.488,3.488,0,0,1,.128.6,1.139,1.139,0,0,1-1.621,1.169c-4.277-2.095-11.734-1.74-16.413-.462q.047-1.365-.037-2.724a6.735,6.735,0,0,1-1.328,3.111c-.8.237-1.587.483-2.347.726a.674.674,0,0,1-.857-.823,3.792,3.792,0,0,0,.081-1.652,18.212,18.212,0,0,0-1.172-3.254,4.387,4.387,0,0,1-.14-3.369c.77-1.621,2.939-2.116,3.9-3.634,1.075-1.7.24-3.927.408-5.938.237-2.843,2.565-5.152,5.19-6.268,4.545-1.933,10.23-.367,13.637,3.2a3.12,3.12,0,0,1,3.263-.14c1.007.539,1.73.82,2.182,1.87C483.925,237.316,483.087,239.142,482.906,240.134Z" transform="translate(-410.684 -205.226)" fill="#2f2e41"/>
    <path id="Path_81" data-name="Path 81" d="M478.183,490.409l-23.726-23.726a1.473,1.473,0,0,1,0-2.081l16.588-16.588a1.473,1.473,0,0,1,2.081,0l23.726,23.726a1.473,1.473,0,0,1,0,2.081l-16.588,16.588A1.473,1.473,0,0,1,478.183,490.409Z" transform="translate(-410.843 -333.406)" fill="#fff"/>
    <path id="Path_82" data-name="Path 82" d="M478.616,490.625a1.851,1.851,0,0,1-1.318-.545l-23.726-23.726a1.865,1.865,0,0,1,0-2.636l16.588-16.588a1.866,1.866,0,0,1,2.636,0l23.726,23.726a1.865,1.865,0,0,1,0,2.636L479.934,490.08a1.851,1.851,0,0,1-1.318.545Zm-7.138-43.255a1.069,1.069,0,0,0-.762.315l-16.588,16.588a1.08,1.08,0,0,0,0,1.525l23.726,23.726a1.106,1.106,0,0,0,1.525,0l16.588-16.588a1.08,1.08,0,0,0,0-1.525l-23.726-23.726A1.07,1.07,0,0,0,471.478,447.37Z" transform="translate(-410.211 -332.796)" fill="#e6e6e6"/>
    <path id="Path_83" data-name="Path 83" d="M491.3,382.886a4.413,4.413,0,0,1,1.413-6.617l.373-39.624,7.406,3.4-1.629,38.322a4.436,4.436,0,0,1-7.563,4.52Z" transform="translate(-433.472 -267.395)" fill="#9e616a"/>
    <path id="Path_84" data-name="Path 84" d="M493.249,309.692s7.2-3.495,8.2,3.1,5.094,23.753,5.094,23.753l-12.436-.879Z" transform="translate(-435.5 -251.02)" fill="#9e616a"/>
    <path id="Path_85" data-name="Path 85" d="M491.3,382.886a4.413,4.413,0,0,1,1.413-6.617l.373-39.624,7.406,3.4-1.629,38.322a4.436,4.436,0,0,1-7.563,4.52Z" transform="translate(-433.472 -267.395)" fill="#9e616a"/>
    <path id="Path_86" data-name="Path 86" d="M493.249,309.692s7.2-3.495,8.2,3.1,5.094,23.753,5.094,23.753l-12.436-.879Z" transform="translate(-435.5 -251.02)" fill="#1f7a8c"/>
  </g>
</svg>
