<svg width="13" height="13" viewBox="0 0 13 13" fill="none" xmlns="http://www.w3.org/2000/svg">
<g id="teenyicons:tick-circle-outline" clip-path="url(#clip0_56_865)">
<path id="Vector" d="M3.46668 6.5L6.06668 8.66667L9.53335 4.33333M6.50002 12.5667C5.70333 12.5667 4.91445 12.4097 4.1784 12.1049C3.44236 11.8 2.77358 11.3531 2.21024 10.7898C1.64689 10.2264 1.20003 9.55766 0.895147 8.82161C0.590269 8.08557 0.43335 7.29669 0.43335 6.5C0.43335 5.70332 0.590269 4.91443 0.895147 4.17839C1.20003 3.44235 1.64689 2.77356 2.21024 2.21022C2.77358 1.64688 3.44236 1.20001 4.1784 0.895132C4.91445 0.590253 5.70333 0.433334 6.50002 0.433334C8.109 0.433334 9.65208 1.0725 10.7898 2.21022C11.9275 3.34794 12.5667 4.89102 12.5667 6.5C12.5667 8.10898 11.9275 9.65206 10.7898 10.7898C9.65208 11.9275 8.109 12.5667 6.50002 12.5667Z" stroke="#19B016"/>
</g>
<defs>
<clipPath id="clip0_56_865">
<rect width="13" height="13" fill="white"/>
</clipPath>
</defs>
</svg>
