<svg width="18" height="18" viewBox="0 0 18 18" fill="none" xmlns="http://www.w3.org/2000/svg">
<g id="ei:minus">
<path id="Vector" d="M9 15.12C5.616 15.12 2.88 12.384 2.88 9C2.88 5.616 5.616 2.88 9 2.88C12.384 2.88 15.12 5.616 15.12 9C15.12 12.384 12.384 15.12 9 15.12ZM9 3.6C6.012 3.6 3.6 6.012 3.6 9C3.6 11.988 6.012 14.4 9 14.4C11.988 14.4 14.4 11.988 14.4 9C14.4 6.012 11.988 3.6 9 3.6Z" fill="#707070"/>
<path id="Vector_2" d="M5.76001 8.64H12.24V9.36H5.76001V8.64Z" fill="#707070"/>
</g>
</svg>
