<svg width="24" height="20" viewBox="0 0 24 20" fill="none" xmlns="http://www.w3.org/2000/svg">
<g id="fluent:class-24-regular">
<path id="Vector" d="M17.2235 1.66669C17.5841 1.66669 17.9412 1.72596 18.2743 1.84113C18.6074 1.9563 18.9101 2.1251 19.1651 2.3379C19.4201 2.5507 19.6223 2.80333 19.7603 3.08137C19.8983 3.35941 19.9693 3.65741 19.9693 3.95835V16.0417C19.9693 16.3426 19.8983 16.6406 19.7603 16.9187C19.6223 17.1967 19.4201 17.4493 19.1651 17.6621C18.9101 17.8749 18.6074 18.0437 18.2743 18.1589C17.9412 18.2741 17.5841 18.3334 17.2235 18.3334H6.73967C6.37901 18.3334 6.02188 18.274 5.68868 18.1588C5.35548 18.0436 5.05274 17.8747 4.79776 17.6618C4.54278 17.449 4.34055 17.1962 4.20262 16.9181C4.06469 16.64 3.99377 16.3419 3.9939 16.0409V3.95835C3.9939 2.90835 4.8386 2.02502 5.99082 1.75252V3.12502C5.68729 3.31502 5.49159 3.61669 5.49159 3.95835V16.04C5.49159 16.615 6.05073 17.0817 6.73967 17.0817H17.2235C17.9125 17.0817 18.4716 16.615 18.4716 16.04V3.95835C18.4716 3.38335 17.9125 2.91669 17.2235 2.91669H14.977V1.66669H17.2235ZM13.9785 1.66669V8.44919C13.9785 9.07169 13.1798 9.30502 12.6905 9.08585L12.6086 9.04252L10.4859 7.97169L8.4111 9.01419C7.91187 9.31419 7.08314 9.13085 6.99628 8.54919L6.98929 8.45002V1.66669H13.9785ZM12.4808 2.91669H8.48698V7.51919L10.0576 6.72835C10.1827 6.67283 10.3215 6.64215 10.4631 6.63868C10.6048 6.63521 10.7455 6.65905 10.8743 6.70835L12.4818 7.52002V2.91669H12.4808Z" fill="black"/>
</g>
</svg>
