<svg width="15" height="15" viewBox="0 0 15 15" fill="none" xmlns="http://www.w3.org/2000/svg">
<g id="material-symbols:error-outline">
<path id="Vector" d="M6.875 0C7.45226 0 8.00564 0.0737847 8.53516 0.221354C9.06467 0.368924 9.5638 0.577257 10.0326 0.846354C10.5013 1.11545 10.9223 1.44097 11.2956 1.82292C11.6688 2.20486 11.9944 2.62804 12.2721 3.09245C12.5499 3.55686 12.7604 4.05382 12.9036 4.58333C13.0469 5.11285 13.1207 5.6684 13.125 6.25C13.125 6.82726 13.0512 7.38064 12.9036 7.91016C12.7561 8.43967 12.5477 8.9388 12.2786 9.40755C12.0095 9.8763 11.684 10.2973 11.3021 10.6706C10.9201 11.0438 10.497 11.3694 10.0326 11.6471C9.56814 11.9249 9.07118 12.1354 8.54167 12.2786C8.01215 12.4219 7.4566 12.4957 6.875 12.5C6.29774 12.5 5.74436 12.4262 5.21484 12.2786C4.68533 12.1311 4.1862 11.9227 3.71745 11.6536C3.2487 11.3845 2.82769 11.059 2.45443 10.6771C2.08116 10.2951 1.75564 9.87196 1.47786 9.40755C1.20009 8.94314 0.989583 8.44618 0.846354 7.91667C0.703125 7.38715 0.62934 6.8316 0.625 6.25C0.625 5.67274 0.698785 5.11936 0.846354 4.58984C0.993924 4.06033 1.20226 3.5612 1.47135 3.09245C1.74045 2.6237 2.06597 2.20269 2.44792 1.82943C2.82986 1.45616 3.25304 1.13064 3.71745 0.852865C4.18186 0.575087 4.67882 0.364583 5.20833 0.221354C5.73785 0.078125 6.2934 0.00434028 6.875 0ZM6.875 11.6667C7.36979 11.6667 7.84722 11.6016 8.30729 11.4714C8.76736 11.3411 9.19922 11.1589 9.60286 10.9245C10.0065 10.6901 10.3733 10.408 10.7031 10.0781C11.033 9.74826 11.3151 9.38368 11.5495 8.98438C11.7839 8.58507 11.9661 8.15321 12.0964 7.6888C12.2266 7.22439 12.2917 6.74479 12.2917 6.25C12.2917 5.75521 12.2266 5.27778 12.0964 4.81771C11.9661 4.35764 11.7839 3.92578 11.5495 3.52214C11.3151 3.11849 11.033 2.75174 10.7031 2.42188C10.3733 2.09201 10.0087 1.8099 9.60938 1.57552C9.21007 1.34115 8.77821 1.15885 8.3138 1.02865C7.84939 0.898438 7.36979 0.833333 6.875 0.833333C6.37587 0.833333 5.89627 0.898438 5.4362 1.02865C4.97613 1.15885 4.54644 1.34115 4.14714 1.57552C3.74783 1.8099 3.38108 2.09201 3.04688 2.42188C2.71267 2.75174 2.43056 3.11632 2.20052 3.51562C1.97049 3.91493 1.78819 4.34679 1.65365 4.8112C1.5191 5.27561 1.45399 5.75521 1.45833 6.25C1.45833 6.74479 1.52344 7.22222 1.65365 7.68229C1.78385 8.14236 1.96615 8.57422 2.20052 8.97786C2.4349 9.38151 2.71701 9.74826 3.04688 10.0781C3.37674 10.408 3.74132 10.6901 4.14062 10.9245C4.53993 11.1589 4.97179 11.3411 5.4362 11.4714C5.90061 11.6016 6.38021 11.6667 6.875 11.6667ZM6.45833 3.33333H7.29167V7.5H6.45833V3.33333ZM6.45833 8.33333H7.29167V9.16667H6.45833V8.33333Z" fill="#E81313"/>
</g>
</svg>
