<svg class="svg-icon" style="width: 1em; height: 1em;vertical-align: middle;fill: currentColor;overflow: hidden;" viewBox="0 0 1024 1024" version="1.1" xmlns="http://www.w3.org/2000/svg"><path d="M722.738567 405.921977c-12.716378-8.088516-29.581744-4.33606-37.644277 8.424688l-195.709309 309.426009-127.74359-102.815091c-11.719054-9.462584-28.89341-7.532893-38.30383 4.281097-9.411019 11.854962-7.511507 29.102269 4.259112 38.586638l151.442922 121.856182c4.869299 3.935332 10.858638 6.042903 17.017462 6.042903 1.497984 0 2.998967-0.123916 4.463973-0.407724 7.631826-1.271138 14.383248-5.729116 18.517445-12.327642l212.040636-335.195937C739.173424 431.032952 735.416971 414.063057 722.738567 405.921977zM768.646442 161.820078l-80.688093 0L687.958348 136.908168 613.024353 136.908168c-12.333638-52.356902-56.821275-100.934766-112.583468-100.934766-55.749602 0-103.390102 48.577864-115.717743 100.934766l-74.930597 0 0 24.91211-56.038406 0c-81.832318 0-148.416574 63.058047-148.416574 145.375635l0 518.017984c0 82.303998 66.57866 149.323359 148.416574 149.323359l514.892103 0c81.833317 0 148.42197-67.019361 148.42197-149.323359L917.068212 307.195713C917.068212 224.878324 850.479759 161.820078 768.646442 161.820078zM434.467815 191.362648 434.467815 154.816426c0-35.284477 30.923034-64.624585 66.005049-64.624585 35.057231 0 61.212298 29.339908 61.212298 64.624585l0 36.546022 71.649222 0 0 118.71731L364.098725 310.079758 364.098725 191.362648 434.467815 191.362648zM861.872035 825.213697c0 52.069497-41.427912 94.324848-93.225593 94.324848L253.754339 919.538545c-51.771299 0-94.110393-42.255151-94.110393-94.324848L159.643945 307.195713c0-52.07909 42.308715-90.375925 94.110393-90.375925l56.038406 0 0 148.286062 378.165604 0 0-148.286062 80.688093 0c51.797681 0 93.222595 38.299433 93.222595 90.375925l0 518.017984L861.872035 825.213697z"  /></svg>