<svg width="24" height="24" viewBox="0 0 24 24" fill="none" xmlns="http://www.w3.org/2000/svg">
<g id="la:clipboard-check">
<path id="Vector" d="M12 1.50006C11.0565 1.50006 10.386 2.16756 10.0545 3.00006H3.75V21.7501H20.25V3.00006H13.9455C13.614 2.16756 12.9435 1.50006 12 1.50006ZM12 3.00006C12.4163 3.00006 12.75 3.33381 12.75 3.75006V4.50006H15V6.00006H9V4.50006H11.25V3.75006C11.25 3.33381 11.5837 3.00006 12 3.00006ZM5.25 4.50006H7.5V7.50006H16.5V4.50006H18.75V20.2501H5.25V4.50006ZM15.9608 9.96081L11.25 14.6716L8.78925 12.2116L7.71075 13.2893L10.7108 16.2893L11.25 16.8046L11.7892 16.2893L17.0392 11.0393L15.9608 9.96081Z" fill="black" fill-opacity="0.8"/>
</g>
</svg>
