<svg width="24" height="24" viewBox="0 0 24 24" fill="none" xmlns="http://www.w3.org/2000/svg">
<g id="codicon:vm-connect">
<g id="Group">
<path id="Vector" fill-rule="evenodd" clip-rule="evenodd" d="M2.25 3.00006H21.75L22.5 3.75006V12.0046C22.0355 11.656 21.5321 11.3626 21 11.1301V4.50006H3V18.0001H10.5C10.5 19.6228 11.0263 21.2018 12 22.5001H6V21.0001H10.5V19.5001H2.25L1.5 18.7501V3.75006L2.25 3.00006Z" fill="black" fill-opacity="0.7"/>
<path id="Vector_2" d="M18 12.0001C16.4087 12.0001 14.8826 12.6322 13.7574 13.7574C12.6321 14.8826 12 16.4088 12 18.0001C12 19.5914 12.6321 21.1175 13.7574 22.2427C14.8826 23.3679 16.4087 24.0001 18 24.0001C19.5913 24.0001 21.1174 23.3679 22.2426 22.2427C23.3679 21.1175 24 19.5914 24 18.0001C24 16.4088 23.3679 14.8826 22.2426 13.7574C21.1174 12.6322 19.5913 12.0001 18 12.0001ZM18 22.5001C16.8063 22.5001 15.6615 22.0259 14.8175 21.1818C13.9734 20.3378 13.4993 19.193 13.4993 17.9993C13.4993 16.8056 13.9734 15.6609 14.8175 14.8168C15.6615 13.9727 16.8063 13.4986 18 13.4986C19.1937 13.4986 20.3385 13.9727 21.1825 14.8168C22.0266 15.6609 22.5007 16.8056 22.5007 17.9993C22.5007 19.193 22.0266 20.3378 21.1825 21.1818C20.3385 22.0259 19.1937 22.5001 18 22.5001Z" fill="black" fill-opacity="0.7"/>
<path id="Vector_3" fill-rule="evenodd" clip-rule="evenodd" d="M18.1995 17.1526L20.3535 19.3066L21 18.6601L19.494 17.1526L21 15.6466L20.3535 15.0016L18.1995 17.1526ZM16.506 18.7531L15 17.2471L15.6465 16.6006L17.8005 18.7531L15.6465 20.9071L15 20.2606L16.506 18.7531Z" fill="black" fill-opacity="0.7"/>
</g>
</g>
</svg>
