<?xml version="1.0" encoding="UTF-8"?>
<svg xmlns="http://www.w3.org/2000/svg" id="Layer_1" data-name="Layer 1" viewBox="0 0 24 24">
  <path d="m8.5,8.842c.018.002-.018,0,0,0h0Zm.053,2.003c-1.667-.179-3.322-.492-4.92-.933-.266-.072-.542.084-.615.35-.073.267.083.542.349.615,1.65.454,3.413.78,5.133.965.252,0,.469-.19.497-.446.029-.275-.169-.521-.444-.551Zm0-3c-1.667-.179-3.322-.492-4.92-.933-.266-.069-.542.083-.615.35-.073.267.083.542.349.615,1.65.454,3.413.78,5.133.965.252,0,.469-.19.497-.446.029-.275-.169-.521-.444-.551Zm-5.535-3.583c-.073.267.083.542.349.615,1.65.454,3.413.78,5.133.965.252,0,.469-.19.497-.446.029-.275-.169-.521-.444-.551-1.667-.179-3.322-.492-4.92-.933-.266-.07-.542.083-.615.35Zm5.482,1.58c-.018,0,.018.002,0,0h0Zm0,6c-.018,0,.018.002,0,0h0Zm.053,2.003c-1.667-.179-3.322-.492-4.92-.933-.266-.072-.542.083-.615.35-.073.267.083.542.349.615,1.65.454,3.413.78,5.133.965.252,0,.469-.19.497-.446.029-.275-.169-.521-.444-.551Zm-2.053,3.711c-.028,0,.028.005,0,0h0Zm.083-.993c-1.015-.173-2.008-.392-2.952-.65-.265-.069-.541.084-.614.351-.073.267.084.541.351.614.975.267,2.085.5,3.132.679.239,0,.451-.172.492-.416.047-.272-.136-.53-.409-.577Zm1.917-1.721c-.018,0,.018.002,0,0h0Zm11.867-7.96c-1.599.44-3.254.754-4.921.933-.274.029-.473.275-.443.551.027.256.244.446.496.446,1.72-.185,3.483-.511,5.134-.965.266-.073.423-.349.35-.615-.074-.266-.344-.42-.615-.35Zm-4.868-1.07c-.019.002.019,0,0,0h0Zm0,3c-.019.002.019,0,0,0h0Zm4.868-4.93c-1.599.44-3.254.754-4.921.933-.274.029-.473.275-.443.551.027.256.244.446.496.446,1.72-.185,3.483-.511,5.134-.965.266-.073.423-.349.35-.615-.074-.266-.344-.42-.615-.35Zm.242,16.382c-2.061.557-4.222.909-6.446,1.051,1.562.566,3.862,1.297,6.173,1.657.659.105,1.333-.088,1.845-.526.52-.445.818-1.093.818-1.777v-.168c0-.276.224-.5.5-.5s.5.224.5.5v.168c0,.977-.426,1.901-1.169,2.537-.604.517-1.363.794-2.142.794-.169,0-.338-.013-.507-.039-3.719-.58-7.297-2.038-8.183-2.415-.885.377-4.463,1.835-8.183,2.415-.169.026-.338.039-.507.039-.779,0-1.539-.277-2.142-.794-.743-.636-1.168-1.561-1.168-2.537v-.168c0-.276.224-.5.5-.5s.5.224.5.5v.168c0,.685.298,1.332.819,1.777.512.438,1.187.631,1.844.526,2.315-.361,4.614-1.091,6.175-1.657-2.226-.142-4.386-.494-6.448-1.051-1.996-.538-3.39-2.334-3.39-4.365V4C0,2.759.562,1.61,1.541.85,2.53.082,3.796-.179,5.014.132c2.805.716,4.96,1.038,6.988,1.044,2.025-.006,4.18-.328,6.985-1.044,1.218-.312,2.482-.051,3.473.718.979.761,1.541,1.909,1.541,3.15v11.898c0,2.031-1.395,3.826-3.391,4.365ZM11.5,2.168c-2.526-.07-4.909-.601-6.734-1.067-.253-.064-.51-.097-.764-.097-.664,0-1.311.219-1.848.636-.733.569-1.154,1.43-1.154,2.36v11.898c0,1.581,1.09,2.979,2.651,3.4,2.488.672,5.126,1.036,7.849,1.083V2.168Zm8.849,17.131c1.562-.422,2.651-1.82,2.651-3.4V4c0-.931-.421-1.791-1.154-2.36-.744-.576-1.695-.771-2.611-.539-1.825.466-4.209.997-6.734,1.068v18.213c2.722-.047,5.361-.411,7.849-1.083Zm.019-9.417c-1.599.44-3.254.754-4.921.933-.274.029-.473.275-.443.551.027.256.244.446.496.446,1.72-.185,3.483-.511,5.134-.965.266-.073.423-.349.35-.615-.074-.266-.344-.42-.615-.35Zm-4.868,1.93c-.019.002.019,0,0,0h0Zm0,3c-.019.002.019,0,0,0h0Zm0,3c-.019.002.019,0,0,0h0Zm2.899-1.465c-.989.205-1.982.362-2.952.468-.274.03-.474.276-.443.551.027.257.244.446.496.446,1.002-.108,2.082-.274,3.103-.486.271-.056.444-.32.388-.591-.056-.271-.324-.448-.591-.388Zm1.969-3.465c-1.599.44-3.254.754-4.921.933-.274.029-.473.275-.443.551.027.256.244.446.496.446,1.72-.185,3.483-.511,5.134-.965.266-.073.423-.349.35-.615-.074-.266-.344-.42-.615-.35Z"/>
</svg>
