<svg xmlns="http://www.w3.org/2000/svg" width="28" height="28" viewBox="0 0 28 28">
  <path id="category" d="M9.917,0H5.25A5.256,5.256,0,0,0,0,5.25V9.917a1.752,1.752,0,0,0,1.75,1.75H9.917a1.752,1.752,0,0,0,1.75-1.75V1.75A1.752,1.752,0,0,0,9.917,0ZM10.5,9.917a.584.584,0,0,1-.583.583H1.75a.584.584,0,0,1-.583-.583V5.25A4.088,4.088,0,0,1,5.25,1.167H9.917a.584.584,0,0,1,.583.583Zm5.25,1.75h8.167a1.752,1.752,0,0,0,1.75-1.75V5.25A5.256,5.256,0,0,0,20.416,0H15.75A1.752,1.752,0,0,0,14,1.75V9.917A1.752,1.752,0,0,0,15.75,11.667ZM15.167,1.75a.584.584,0,0,1,.583-.583h4.667A4.088,4.088,0,0,1,24.5,5.25V9.917a.584.584,0,0,1-.583.583H15.75a.584.584,0,0,1-.583-.583ZM9.917,14H1.75A1.752,1.752,0,0,0,0,15.75v4.667a5.256,5.256,0,0,0,5.25,5.25H9.917a1.752,1.752,0,0,0,1.75-1.75V15.75A1.752,1.752,0,0,0,9.917,14Zm.583,9.917a.584.584,0,0,1-.583.583H5.25a4.088,4.088,0,0,1-4.083-4.083V15.75a.584.584,0,0,1,.583-.583H9.917a.584.584,0,0,1,.583.583ZM27.829,27l-3.5-3.5a5.777,5.777,0,0,0,1.337-3.67,5.833,5.833,0,1,0-5.833,5.833A5.776,5.776,0,0,0,23.5,24.33l3.5,3.5A.584.584,0,1,0,27.829,27Zm-8-2.5A4.667,4.667,0,1,1,24.5,19.833,4.671,4.671,0,0,1,19.833,24.5Z"/>
</svg>
