<?xml version="1.0" encoding="UTF-8"?>
<svg xmlns="http://www.w3.org/2000/svg" id="Layer_1" data-name="Layer 1" viewBox="0 0 24 24" width="512" height="512"><path d="m13,10c0,.552-.448,1-1,1s-1-.448-1-1,.448-1,1-1,1,.448,1,1Zm4-1c-.552,0-1,.448-1,1s.448,1,1,1,1-.448,1-1-.448-1-1-1Zm-10,0c-.552,0-1,.448-1,1s.448,1,1,1,1-.448,1-1-.448-1-1-1ZM24,3.5v13c0,1.93-1.57,3.5-3.5,3.5h-3.532l-3.985,3.295c-.275.245-.626.368-.978.368-.356,0-.716-.126-1.001-.379l-3.898-3.284h-3.605c-1.93,0-3.5-1.57-3.5-3.5V3.5C0,1.57,1.57,0,3.5,0h17c1.93,0,3.5,1.57,3.5,3.5Zm-1,0c0-1.378-1.121-2.5-2.5-2.5H3.5c-1.379,0-2.5,1.122-2.5,2.5v13c0,1.378,1.121,2.5,2.5,2.5h3.788c.118,0,.232.042.322.118l4.048,3.41c.199.178.485.176.674.008l4.138-3.421c.09-.074.202-.115.318-.115h3.712c1.379,0,2.5-1.122,2.5-2.5V3.5Z"/></svg>
