<svg width="22" height="20" viewBox="0 0 22 20" fill="none" xmlns="http://www.w3.org/2000/svg">
<g id="noun-messages-2898599">
<path id="Path 28" d="M21.077 0.515198H3.616V1.3972H20.636V12.8612H21.518V0.956198C21.5175 0.839399 21.4708 0.727535 21.3882 0.644945C21.3057 0.562355 21.1938 0.515724 21.077 0.515198Z" fill="black"/>
<path id="Path 29" d="M0.441 16.4772H6.57L8.819 19.4772C8.86007 19.532 8.91336 19.5766 8.97463 19.6072C9.0359 19.6379 9.10348 19.6539 9.172 19.6539C9.24052 19.6539 9.3081 19.6379 9.36937 19.6072C9.43064 19.5766 9.48393 19.532 9.525 19.4772L11.774 16.4772H17.9C18.017 16.4772 18.1291 16.4307 18.2118 16.348C18.2945 16.2653 18.341 16.1531 18.341 16.0362V4.13119C18.341 4.01423 18.2945 3.90206 18.2118 3.81935C18.1291 3.73665 18.017 3.69019 17.9 3.69019H0.441C0.32404 3.69019 0.21187 3.73665 0.129166 3.81935C0.0464625 3.90206 0 4.01423 0 4.13119V16.0362C0 16.1531 0.0464625 16.2653 0.129166 16.348C0.21187 16.4307 0.32404 16.4772 0.441 16.4772ZM0.882 4.57219H17.461V15.5952H11.553C11.4845 15.595 11.4169 15.6107 11.3556 15.6413C11.2943 15.6719 11.241 15.7163 11.2 15.7712L9.172 18.4712L7.144 15.7712C7.10281 15.7165 7.04948 15.6722 6.98822 15.6416C6.92696 15.6111 6.85945 15.5952 6.791 15.5952H0.882V4.57219Z" fill="black"/>
</g>
</svg>
