<svg width="18" height="18" viewBox="0 0 18 18" fill="none" xmlns="http://www.w3.org/2000/svg">
<g id="Copy icon" opacity="0.5">
<path id="Path 120" d="M17.094 0.549818H3.99403C3.90014 0.549818 3.8101 0.587115 3.74371 0.653503C3.67732 0.719891 3.64003 0.809932 3.64003 0.903818V4.08982H0.457027C0.363141 4.08982 0.2731 4.12711 0.206712 4.1935C0.140324 4.25989 0.103027 4.34993 0.103027 4.44382V17.5438C0.103027 17.6377 0.140324 17.7277 0.206712 17.7941C0.2731 17.8605 0.363141 17.8978 0.457027 17.8978H13.557C13.6509 17.8978 13.741 17.8605 13.8073 17.7941C13.8737 17.7277 13.911 17.6377 13.911 17.5438V14.3498H17.097C17.1909 14.3498 17.281 14.3125 17.3473 14.2461C17.4137 14.1797 17.451 14.0897 17.451 13.9958V0.895818C17.4489 0.802803 17.4103 0.714354 17.3435 0.649603C17.2767 0.584852 17.1871 0.549006 17.094 0.549818ZM13.203 17.1868H0.811028V4.79782H13.203V17.1868ZM16.743 13.6468H13.903V4.44682C13.903 4.35293 13.8657 4.26289 13.7993 4.1965C13.733 4.13012 13.6429 4.09282 13.549 4.09282H4.34903V1.25782H16.74L16.743 13.6468Z" fill="#101010"/>
</g>
</svg>
