<!DOCTYPE svg PUBLIC "-//W3C//DTD SVG 1.1//EN" "http://www.w3.org/Graphics/SVG/1.1/DTD/svg11.dtd">
<!-- Uploaded to: SVG Repo, www.svgrepo.com, Transformed by: SVG Repo Mixer Tools -->
<svg width="256px" height="256px" viewBox="0 0 25.00 25.00" fill="none" xmlns="http://www.w3.org/2000/svg">
<g id="SVGRepo_bgCarrier" stroke-width="0"/>
<g id="SVGRepo_tracerCarrier" stroke-linecap="round" stroke-linejoin="round"/>
<g id="SVGRepo_iconCarrier"> <path fill-rule="evenodd" clip-rule="evenodd" d="M14 6.5C14 7.32843 13.3284 8 12.5 8C11.6716 8 11 7.32843 11 6.5C11 5.67157 11.6716 5 12.5 5C13.3284 5 14 5.67157 14 6.5ZM14 12.5C14 13.3284 13.3284 14 12.5 14C11.6716 14 11 13.3284 11 12.5C11 11.6716 11.6716 11 12.5 11C13.3284 11 14 11.6716 14 12.5ZM12.5 20C13.3284 20 14 19.3284 14 18.5C14 17.6716 13.3284 17 12.5 17C11.6716 17 11 17.6716 11 18.5C11 19.3284 11.6716 20 12.5 20Z" fill="#121923"/> </g>
</svg>