<!DOCTYPE svg PUBLIC "-//W3C//DTD SVG 1.1//EN" "http://www.w3.org/Graphics/SVG/1.1/DTD/svg11.dtd">
<!-- Uploaded to: SVG Repo, www.svgrepo.com, Transformed by: SVG Repo Mixer Tools -->
<svg fill="#000000" width="800px" height="800px" viewBox="0 0 32 32" version="1.1" xmlns="http://www.w3.org/2000/svg">
<g id="SVGRepo_bgCarrier" stroke-width="0"/>
<g id="SVGRepo_tracerCarrier" stroke-linecap="round" stroke-linejoin="round"/>
<g id="SVGRepo_iconCarrier"> <title>forward</title> <path d="M28.48 15.424l-12-10c-0.129-0.108-0.297-0.174-0.481-0.174-0.414 0-0.75 0.336-0.75 0.75 0 0 0 0.001 0 0.001v-0 8.398l-10.77-8.975c-0.129-0.108-0.297-0.174-0.481-0.174-0.414 0-0.75 0.336-0.75 0.75 0 0 0 0.001 0 0.001v-0 20c0 0 0 0 0 0.001 0 0.299 0.175 0.556 0.427 0.677l0.005 0.002c0.093 0.044 0.203 0.070 0.318 0.070h0c0 0 0.001 0 0.001 0 0.183 0 0.351-0.066 0.48-0.175l-0.001 0.001 10.77-8.975v8.398c0 0 0 0 0 0.001 0 0.299 0.175 0.556 0.427 0.677l0.005 0.002c0.093 0.044 0.203 0.070 0.318 0.070h0c0 0 0.001 0 0.001 0 0.183 0 0.351-0.066 0.48-0.175l-0.001 0.001 12-10c0.165-0.139 0.27-0.345 0.27-0.576s-0.104-0.438-0.268-0.575l-0.001-0.001zM4.75 24.398v-16.797l10.078 8.398zM16.75 24.398v-16.797l10.078 8.398z"/> </g>
</svg>