<?xml version="1.0" encoding="UTF-8"?>
<svg xmlns="http://www.w3.org/2000/svg" id="Layer_1" data-name="Layer 1" viewBox="0 0 24 24" width="512" height="512"><path d="M22.017,5.831l-1.017-.686V1.5c0-.276-.224-.5-.5-.5s-.5,.224-.5,.5v2.97L14.517,.77c-1.529-1.032-3.506-1.031-5.033,0L1.983,5.831c-1.242,.837-1.983,2.232-1.983,3.73v9.939c0,2.481,2.019,4.5,4.5,4.5h3c.276,0,.5-.224,.5-.5V14.5c0-.827,.673-1.5,1.5-1.5h5c.827,0,1.5,.673,1.5,1.5v9c0,.276,.224,.5,.5,.5h3c2.481,0,4.5-2.019,4.5-4.5V9.561c0-1.499-.741-2.893-1.983-3.73Zm.983,13.669c0,1.93-1.57,3.5-3.5,3.5h-2.5V14.5c0-1.378-1.121-2.5-2.5-2.5h-5c-1.379,0-2.5,1.122-2.5,2.5v8.5h-2.5c-1.93,0-3.5-1.57-3.5-3.5V9.561c0-1.166,.576-2.25,1.542-2.901L10.042,1.599c1.189-.803,2.727-.803,3.916,0l7.5,5.061c.966,.651,1.542,1.736,1.542,2.901v9.939Z"/></svg>
