<svg width="20" height="21" viewBox="0 0 20 21" fill="none" xmlns="http://www.w3.org/2000/svg">
<g id="noun-home-1012739">
<g id="Group 9">
<path id="Path 22" d="M10.254 1.00077C10.1901 1.00338 10.1279 1.02196 10.073 1.05479L1.108 7.99576C1.07327 8.02411 1.04549 8.06001 1.02677 8.10075C1.00805 8.14148 0.998893 8.18594 0.999998 8.23075V20.3767C1.00273 20.4525 1.03405 20.5245 1.08767 20.5781C1.14129 20.6317 1.21322 20.663 1.289 20.6657H7.362C7.43777 20.663 7.50971 20.6317 7.56332 20.5781C7.61694 20.5245 7.64827 20.4525 7.651 20.3767V15.7498C7.651 15.0596 7.92519 14.3976 8.41325 13.9095C8.90131 13.4215 9.56327 13.1473 10.2535 13.1473C10.9437 13.1473 11.6057 13.4215 12.0937 13.9095C12.5818 14.3976 12.856 15.0596 12.856 15.7498V20.3767C12.8587 20.4525 12.8901 20.5245 12.9437 20.5781C12.9973 20.6317 13.0692 20.663 13.145 20.6657H19.218C19.2938 20.663 19.3657 20.6317 19.4193 20.5781C19.4729 20.5245 19.5043 20.4525 19.507 20.3767V8.23075C19.5081 8.18594 19.4989 8.14148 19.4802 8.10075C19.4615 8.06001 19.4337 8.02411 19.399 7.99576L10.434 1.05479C10.3828 1.01506 10.3186 0.995795 10.254 1.00077ZM10.254 1.65177L18.93 8.37577V20.0877H13.435V15.7498C13.435 14.9061 13.0999 14.097 12.5033 13.5005C11.9068 12.9039 11.0977 12.5688 10.254 12.5688C9.41034 12.5688 8.60124 12.9039 8.00469 13.5005C7.40814 14.097 7.073 14.9061 7.073 15.7498V20.0877H1.579V8.37577L10.254 1.65177Z" fill="black" stroke="black" stroke-width="0.25"/>
</g>
</g>
</svg>
