<svg width="19" height="20" viewBox="0 0 19 20" fill="none" xmlns="http://www.w3.org/2000/svg">
<g id="noun-storage-2890059">
<path id="Path 38" d="M18.457 11.3681C18.3394 11.3442 18.2171 11.3679 18.117 11.4341C18.0169 11.5003 17.9471 11.6035 17.923 11.7211C17.6139 13.2443 16.8978 14.6552 15.8509 15.8039C14.8039 16.9526 13.4653 17.7961 11.9772 18.2447C10.4891 18.6933 8.90731 18.7303 7.3999 18.3517C5.8925 17.9731 4.51587 17.1931 3.41638 16.0946C2.3169 14.9961 1.53565 13.6201 1.15572 12.1131C0.775782 10.606 0.811359 9.02415 1.25867 7.53569C1.70597 6.04723 2.54829 4.70781 3.69605 3.65984C4.84381 2.61187 6.25412 1.89452 7.77702 1.58408C7.83644 1.5722 7.89294 1.54872 7.9433 1.515C7.99365 1.48128 8.03686 1.43798 8.07048 1.38755C8.10409 1.33713 8.12745 1.28058 8.13921 1.22113C8.15097 1.16169 8.1509 1.1005 8.13902 1.04108C8.12713 0.981658 8.10366 0.925158 8.06994 0.874806C8.03622 0.824454 7.99291 0.781237 7.94249 0.747622C7.89207 0.714008 7.83552 0.690653 7.77607 0.678893C7.71662 0.667133 7.65544 0.667197 7.59602 0.679082C5.91635 1.02403 4.36136 1.81717 3.09598 2.97437C1.8306 4.13157 0.902022 5.60968 0.408733 7.25193C-0.0845564 8.89417 -0.124162 10.6393 0.294117 12.3022C0.712397 13.9652 1.57296 15.4839 2.78454 16.6973C3.99612 17.9107 5.51353 18.7736 7.17582 19.1944C8.83811 19.6152 10.5833 19.5782 12.2263 19.0874C13.8693 18.5966 15.3488 17.6703 16.5079 16.4066C17.667 15.143 18.4625 13.5892 18.81 11.9101C18.8232 11.8512 18.8245 11.7903 18.8138 11.7309C18.8031 11.6715 18.7806 11.6149 18.7477 11.5643C18.7149 11.5138 18.6722 11.4702 18.6223 11.4364C18.5724 11.4025 18.5162 11.3789 18.457 11.3671V11.3681Z" fill="black"/>
<path id="Path 39" d="M9.49702 0.50708C9.37688 0.50708 9.26166 0.554807 9.1767 0.639761C9.09175 0.724715 9.04402 0.839937 9.04402 0.96008V10.0071C9.04402 10.1272 9.09175 10.2424 9.1767 10.3274C9.26166 10.4124 9.37688 10.4601 9.49702 10.4601H18.544C18.6642 10.4601 18.7794 10.4124 18.8643 10.3274C18.9493 10.2424 18.997 10.1272 18.997 10.0071C18.997 8.75952 18.7513 7.52418 18.2739 6.37159C17.7965 5.21899 17.0967 4.17172 16.2145 3.28957C15.3324 2.40741 14.2851 1.70764 13.1325 1.23022C11.9799 0.752805 10.7446 0.50708 9.49702 0.50708ZM9.95002 1.43508H10.172L10.561 1.47108L11.014 1.53908L11.39 1.61108L11.82 1.72408C11.942 1.76008 12.064 1.79208 12.182 1.83308C12.3 1.87408 12.463 1.93308 12.598 1.98708C12.733 2.04108 12.829 2.07308 12.942 2.12308C13.055 2.17308 13.214 2.25008 13.342 2.31808C13.47 2.38608 13.559 2.41808 13.663 2.48108C13.767 2.54408 13.925 2.63908 14.057 2.72108L14.347 2.90208C14.487 3.00208 14.614 3.10208 14.747 3.20208C14.88 3.30208 14.91 3.32008 14.991 3.38808C15.167 3.53308 15.335 3.68808 15.502 3.84108C15.552 3.88608 15.602 3.94108 15.647 3.98608C15.8101 4.14534 15.9615 4.31611 16.1 4.49708C16.163 4.57408 16.222 4.66008 16.281 4.73708C16.34 4.81408 16.489 4.99908 16.581 5.13708C16.673 5.27508 16.699 5.32708 16.757 5.42208C16.815 5.51708 16.924 5.68408 17.001 5.82208C17.078 5.96008 17.11 6.03008 17.164 6.13408C17.218 6.23808 17.3 6.40608 17.359 6.54608C17.418 6.68608 17.45 6.77208 17.495 6.88108C17.54 6.99008 17.604 7.16608 17.649 7.31108C17.694 7.45608 17.721 7.54208 17.758 7.66408C17.795 7.78608 17.835 7.95408 17.871 8.11708C17.907 8.28008 17.921 8.36108 17.943 8.48408C17.965 8.60708 17.993 8.78408 18.011 8.93708C18.029 9.09008 18.038 9.19008 18.047 9.31708C18.0517 9.39234 18.0517 9.46782 18.047 9.54308H9.94702L9.95002 1.43508Z" fill="black"/>
</g>
</svg>
