<svg width="24" height="24" viewBox="0 0 24 24" fill="none" xmlns="http://www.w3.org/2000/svg">
<g id="ph:users-three-light">
<path id="Vector" d="M22.8375 13.9501C22.7784 13.9944 22.7112 14.0266 22.6396 14.045C22.568 14.0633 22.4936 14.0674 22.4205 14.0569C22.3473 14.0465 22.277 14.0217 22.2134 13.9841C22.1498 13.9464 22.0943 13.8967 22.05 13.8376C21.5806 13.2065 20.9696 12.6946 20.2661 12.3428C19.5627 11.9911 18.7865 11.8095 18 11.8126C17.8508 11.8126 17.7077 11.7533 17.6023 11.6478C17.4968 11.5423 17.4375 11.3993 17.4375 11.2501C17.4375 11.1009 17.4968 10.9578 17.6023 10.8523C17.7077 10.7468 17.8508 10.6876 18 10.6876C18.4559 10.6875 18.9026 10.5595 19.2894 10.3183C19.6762 10.077 19.9876 9.73216 20.1882 9.32281C20.3889 8.91346 20.4707 8.45605 20.4244 8.00253C20.3781 7.54901 20.2055 7.11757 19.9263 6.7572C19.6471 6.39683 19.2725 6.12198 18.8449 5.96387C18.4173 5.80576 17.954 5.77072 17.5075 5.86274C17.061 5.95475 16.6492 6.17014 16.319 6.48442C15.9888 6.79871 15.7533 7.1993 15.6394 7.64069C15.6021 7.78515 15.5089 7.90888 15.3804 7.98466C15.2519 8.06043 15.0985 8.08205 14.9541 8.04476C14.8096 8.00746 14.6859 7.9143 14.6101 7.78578C14.5343 7.65726 14.5127 7.5039 14.55 7.35944C14.6914 6.80953 14.9622 6.30139 15.3398 5.87736C15.7174 5.45332 16.1909 5.12569 16.7208 4.92177C17.2507 4.71784 17.8217 4.64353 18.3861 4.70503C18.9506 4.76653 19.4922 4.96206 19.9657 5.27532C20.4393 5.58858 20.8311 6.01049 21.1086 6.50589C21.386 7.00129 21.541 7.55583 21.5606 8.12329C21.5803 8.69074 21.464 9.25467 21.2215 9.76808C20.979 10.2815 20.6173 10.7295 20.1666 11.0748C21.2758 11.4887 22.2422 12.2135 22.95 13.1626C22.9943 13.2217 23.0266 13.2889 23.0449 13.3605C23.0632 13.432 23.0673 13.5065 23.0568 13.5796C23.0464 13.6527 23.0217 13.7231 22.984 13.7867C22.9464 13.8502 22.8966 13.9057 22.8375 13.9501ZM17.7366 19.9688C17.7736 20.0328 17.7976 20.1034 17.8073 20.1766C17.8171 20.2499 17.8122 20.3243 17.7932 20.3957C17.7741 20.4671 17.7412 20.5341 17.6962 20.5927C17.6513 20.6514 17.5952 20.7006 17.5312 20.7376C17.446 20.7876 17.3489 20.8138 17.25 20.8135C17.1512 20.8136 17.0541 20.7876 16.9685 20.7382C16.883 20.6889 16.8119 20.6178 16.7625 20.5323C16.2736 19.7038 15.577 19.0173 14.7417 18.5403C13.9063 18.0633 12.961 17.8125 11.9991 17.8125C11.0371 17.8125 10.0918 18.0633 9.25646 18.5403C8.4211 19.0173 7.72457 19.7038 7.23563 20.5323C7.20046 20.5995 7.15206 20.6589 7.09334 20.7069C7.03462 20.755 6.96679 20.7906 6.89393 20.8117C6.82107 20.8329 6.74469 20.8391 6.66937 20.8299C6.59406 20.8208 6.52138 20.7965 6.4557 20.7585C6.39002 20.7206 6.3327 20.6697 6.28719 20.609C6.24167 20.5483 6.2089 20.479 6.19085 20.4053C6.1728 20.3317 6.16985 20.2551 6.18216 20.1802C6.19447 20.1054 6.2218 20.0338 6.2625 19.9698C7.02866 18.6534 8.22827 17.644 9.65625 17.1141C8.87621 16.6077 8.2808 15.8626 7.95884 14.9901C7.63687 14.1175 7.60562 13.1643 7.86972 12.2725C8.13383 11.3808 8.67915 10.5983 9.42434 10.0418C10.1695 9.48532 11.0746 9.18466 12.0047 9.18466C12.9347 9.18466 13.8399 9.48532 14.585 10.0418C15.3302 10.5983 15.8755 11.3808 16.1397 12.2725C16.4038 13.1643 16.3725 14.1175 16.0505 14.9901C15.7286 15.8626 15.1332 16.6077 14.3531 17.1141C15.7771 17.6458 16.9728 18.6546 17.7366 19.9688ZM12 16.6876C12.6304 16.6876 13.2467 16.5006 13.7709 16.1504C14.2951 15.8001 14.7036 15.3023 14.9449 14.7199C15.1861 14.1374 15.2492 13.4965 15.1263 12.8782C15.0033 12.2599 14.6997 11.6919 14.2539 11.2462C13.8081 10.8004 13.2402 10.4968 12.6219 10.3738C12.0035 10.2508 11.3626 10.3139 10.7802 10.5552C10.1978 10.7965 9.69994 11.205 9.34969 11.7292C8.99944 12.2534 8.8125 12.8696 8.8125 13.5001C8.8125 14.3454 9.14832 15.1562 9.7461 15.754C10.3439 16.3517 11.1546 16.6876 12 16.6876ZM6.5625 11.2501C6.5625 11.1009 6.50324 10.9578 6.39775 10.8523C6.29226 10.7468 6.14918 10.6876 6 10.6876C5.54418 10.6874 5.09753 10.5595 4.71078 10.3182C4.32402 10.077 4.01266 9.73216 3.81204 9.32286C3.61143 8.91356 3.5296 8.45621 3.57585 8.00274C3.6221 7.54927 3.79458 7.11786 4.07369 6.75749C4.35281 6.39712 4.72738 6.12224 5.15488 5.96405C5.58237 5.80587 6.04565 5.77072 6.49212 5.8626C6.93858 5.95449 7.35034 6.16972 7.68062 6.48386C8.01091 6.798 8.24649 7.19845 8.36063 7.63976C8.37909 7.71128 8.41147 7.77848 8.4559 7.83749C8.50034 7.89651 8.55596 7.9462 8.6196 7.98372C8.68323 8.02124 8.75364 8.04586 8.82679 8.05617C8.89994 8.06648 8.97441 8.06229 9.04594 8.04382C9.11747 8.02535 9.18466 7.99298 9.24368 7.94854C9.30269 7.90411 9.35238 7.84848 9.3899 7.78485C9.42742 7.72121 9.45204 7.6508 9.46235 7.57765C9.47266 7.5045 9.46847 7.43003 9.45 7.35851C9.30861 6.8086 9.03782 6.30045 8.66021 5.87642C8.28261 5.45239 7.80911 5.12475 7.2792 4.92083C6.74929 4.7169 6.17831 4.6426 5.61386 4.7041C5.0494 4.7656 4.50782 4.96112 4.03426 5.27438C3.5607 5.58764 3.16887 6.00955 2.89144 6.50495C2.61401 7.00035 2.45901 7.55489 2.43936 8.12235C2.41971 8.6898 2.53598 9.25374 2.77848 9.76714C3.02098 10.2805 3.38268 10.7286 3.83344 11.0738C2.72411 11.488 1.75771 12.2132 1.05 13.1626C1.00568 13.2217 0.973431 13.2889 0.955099 13.3605C0.936766 13.432 0.932707 13.5065 0.943153 13.5796C0.9536 13.6527 0.978348 13.7231 1.01598 13.7867C1.05362 13.8502 1.10341 13.9057 1.1625 13.9501C1.22159 13.9944 1.28884 14.0266 1.3604 14.045C1.43196 14.0633 1.50642 14.0674 1.57955 14.0569C1.65268 14.0465 1.72303 14.0217 1.78659 13.9841C1.85015 13.9464 1.90568 13.8967 1.95 13.8376C2.41941 13.2065 3.03044 12.6946 3.73388 12.3428C4.43733 11.9911 5.21353 11.8095 6 11.8126C6.14918 11.8126 6.29226 11.7533 6.39775 11.6478C6.50324 11.5423 6.5625 11.3993 6.5625 11.2501Z" fill="black"/>
</g>
</svg>
