<?xml version="1.0" encoding="UTF-8"?>
<svg xmlns="http://www.w3.org/2000/svg" id="Layer_1" data-name="Layer 1" viewBox="0 0 24 24">
  <path d="m19.5,2.091h-10c-2.481,0-4.5,2.019-4.5,4.5v7c0,2.481,2.019,4.5,4.5,4.5h10c2.481,0,4.5-2.019,4.5-4.5v-7c0-2.481-2.019-4.5-4.5-4.5Zm-1.5,15h-7v-.591c0-1.93,1.57-3.5,3.5-3.5s3.5,1.57,3.5,3.5v.591Zm5-3.5c0,1.93-1.57,3.5-3.5,3.5h-.5v-.591c0-2.481-2.019-4.5-4.5-4.5s-4.5,2.019-4.5,4.5v.591h-.5c-1.93,0-3.5-1.57-3.5-3.5v-7c0-1.93,1.57-3.5,3.5-3.5h10c1.93,0,3.5,1.57,3.5,3.5v7Zm-5.479,6.669c.183.207.163.523-.044.706-.822.726-1.879,1.125-2.976,1.125H4.5c-2.481,0-4.5-2.019-4.5-4.5v-7c0-1.602.862-3.096,2.25-3.897.239-.14.545-.057.683.183.139.239.057.545-.182.683-1.08.624-1.75,1.786-1.75,3.032v7c0,1.93,1.57,3.5,3.5,3.5h10c.853,0,1.675-.311,2.315-.875.207-.183.522-.161.706.044Zm-3.021-15.26c-1.654,0-3,1.346-3,3s1.346,3,3,3,3-1.346,3-3-1.346-3-3-3Zm0,5c-1.103,0-2-.897-2-2s.897-2,2-2,2,.897,2,2-.897,2-2,2Z"/>
</svg>
