<svg width="24" height="24" viewBox="0 0 24 24" fill="none" xmlns="http://www.w3.org/2000/svg">
<g id="ph:chats-circle-thin">
<path id="Vector" d="M22.0875 20.1787L21.3291 17.5237C21.8661 16.4854 22.1393 15.3308 22.1247 14.1619C22.1101 12.9929 21.8081 11.8455 21.2453 10.8209C20.6826 9.79623 19.8763 8.92578 18.8977 8.28632C17.9191 7.64685 16.7981 7.258 15.6337 7.15406C15.2821 6.25264 14.7505 5.43229 14.0714 4.74303C13.3923 4.05378 12.58 3.51007 11.6839 3.14504C10.7878 2.78002 9.82672 2.60134 8.85931 2.6199C7.8919 2.63846 6.9384 2.85387 6.05697 3.25299C5.17553 3.65212 4.38462 4.22659 3.73247 4.94138C3.08032 5.65618 2.5806 6.49631 2.26377 7.41056C1.94694 8.3248 1.81964 9.294 1.88964 10.2591C1.95964 11.2241 2.22548 12.1648 2.67093 13.0237L1.91249 15.6787C1.87244 15.8182 1.86531 15.9651 1.89168 16.1078C1.91804 16.2505 1.97717 16.3852 2.06442 16.5011C2.15167 16.6171 2.26465 16.7112 2.39446 16.7761C2.52427 16.841 2.66737 16.8748 2.81249 16.875C2.90132 16.8749 2.98969 16.8623 3.07499 16.8375L5.72999 16.0791C6.551 16.5033 7.4467 16.7638 8.36718 16.8459C8.73082 17.7759 9.28588 18.619 9.99634 19.3207C10.7068 20.0223 11.5568 20.5668 12.4913 20.9188C13.4257 21.2708 14.4237 21.4224 15.4205 21.3639C16.4173 21.3054 17.3907 21.038 18.2775 20.5791L20.9325 21.3375C21.0178 21.3623 21.1062 21.3749 21.195 21.375C21.3398 21.3743 21.4825 21.34 21.6118 21.2748C21.7411 21.2097 21.8536 21.1155 21.9404 20.9996C22.0273 20.8837 22.0861 20.7493 22.1122 20.6069C22.1384 20.4645 22.1312 20.3179 22.0912 20.1787H22.0875ZM5.76843 15.3037C5.7335 15.3036 5.69874 15.3087 5.6653 15.3187L2.86499 16.1184C2.83288 16.1275 2.79891 16.1279 2.76661 16.1195C2.7343 16.1111 2.70483 16.0942 2.68122 16.0706C2.65762 16.047 2.64075 16.0176 2.63234 15.9853C2.62394 15.9529 2.62432 15.919 2.63343 15.8869L3.43311 13.0866C3.45992 12.9924 3.44882 12.8914 3.40218 12.8053C2.66838 11.4591 2.4443 9.89362 2.77102 8.39566C3.09773 6.89771 3.95334 5.56767 5.18104 4.64932C6.40874 3.73096 7.92628 3.28582 9.45553 3.39547C10.9848 3.50513 12.4233 4.16223 13.5074 5.24634C14.5915 6.33046 15.2486 7.76897 15.3583 9.29821C15.4679 10.8275 15.0228 12.345 14.1044 13.5727C13.1861 14.8004 11.856 15.656 10.3581 15.9827C8.86012 16.3094 7.29459 16.0854 5.94843 15.3516C5.89358 15.3201 5.83166 15.303 5.76843 15.3019V15.3037ZM21.3187 20.5687C21.2948 20.593 21.2647 20.6103 21.2316 20.6187C21.1986 20.6271 21.1639 20.6264 21.1312 20.6166L18.3309 19.8169C18.2367 19.7901 18.1358 19.8012 18.0497 19.8478C17.2793 20.2679 16.4306 20.5245 15.5565 20.6014C14.6824 20.6784 13.8019 20.5741 12.97 20.295C12.1381 20.0159 11.3727 19.5682 10.7219 18.9797C10.071 18.3912 9.54866 17.6747 9.18749 16.875C10.2611 16.8466 11.3145 16.5759 12.2688 16.0831C13.223 15.5903 14.0536 14.8881 14.6982 14.029C15.3428 13.17 15.7849 12.1763 15.9914 11.1223C16.1979 10.0683 16.1635 8.98129 15.8906 7.9425C16.9107 8.08635 17.8808 8.47529 18.7177 9.076C19.5546 9.67671 20.2335 10.4713 20.6962 11.3917C21.1589 12.3122 21.3917 13.331 21.3745 14.3611C21.3574 15.3912 21.0909 16.4017 20.5978 17.3062C20.5512 17.3924 20.5401 17.4933 20.5669 17.5875L21.3666 20.3878C21.3751 20.4195 21.3752 20.4529 21.3668 20.4847C21.3584 20.5164 21.3419 20.5454 21.3187 20.5687Z" fill="black"/>
</g>
</svg>
