<svg width="20" height="20" viewBox="0 0 20 20" fill="none" xmlns="http://www.w3.org/2000/svg">
<g id="fluent:mail-template-20-regular">
<path id="Vector" d="M2 4.5C2 3.83696 2.26339 3.20107 2.73223 2.73223C3.20107 2.26339 3.83696 2 4.5 2H13.5C14.163 2 14.7989 2.26339 15.2678 2.73223C15.7366 3.20107 16 3.83696 16 4.5V8.035C15.8344 8.0115 15.6673 7.9998 15.5 8H15V4.5C15 4.10218 14.842 3.72064 14.5607 3.43934C14.2794 3.15804 13.8978 3 13.5 3H4.5C4.10218 3 3.72064 3.15804 3.43934 3.43934C3.15804 3.72064 3 4.10218 3 4.5V13.5C3 13.8978 3.15804 14.2794 3.43934 14.5607C3.72064 14.842 4.10218 15 4.5 15H6V15.5C6 15.67 6.012 15.837 6.035 16H4.5C3.83696 16 3.20107 15.7366 2.73223 15.2678C2.26339 14.7989 2 14.163 2 13.5V4.5ZM13 7.5C13 7.63261 12.9473 7.75979 12.8536 7.85355C12.7598 7.94732 12.6326 8 12.5 8H7.5C7.36739 8 7.24021 7.94732 7.14645 7.85355C7.05268 7.75979 7 7.63261 7 7.5C7 7.36739 7.05268 7.24021 7.14645 7.14645C7.24021 7.05268 7.36739 7 7.5 7H12.5C12.6326 7 12.7598 7.05268 12.8536 7.14645C12.9473 7.24021 13 7.36739 13 7.5ZM5 5.5C5 5.36739 5.05268 5.24021 5.14645 5.14645C5.24021 5.05268 5.36739 5 5.5 5H12.5C12.6326 5 12.7598 5.05268 12.8536 5.14645C12.9473 5.24021 13 5.36739 13 5.5C13 5.63261 12.9473 5.75979 12.8536 5.85355C12.7598 5.94732 12.6326 6 12.5 6H5.5C5.36739 6 5.24021 5.94732 5.14645 5.85355C5.05268 5.75979 5 5.63261 5 5.5ZM7 11.5C7 10.837 7.26339 10.2011 7.73223 9.73223C8.20107 9.26339 8.83696 9 9.5 9H15.5C16.163 9 16.7989 9.26339 17.2678 9.73223C17.7366 10.2011 18 10.837 18 11.5V15.5C18 16.163 17.7366 16.7989 17.2678 17.2678C16.7989 17.7366 16.163 18 15.5 18H9.5C8.83696 18 8.20107 17.7366 7.73223 17.2678C7.26339 16.7989 7 16.163 7 15.5V11.5ZM9.5 10C9.14878 9.99993 8.80867 10.1231 8.53895 10.3481C8.26922 10.573 8.08699 10.8855 8.024 11.231L12.5 13.917L16.976 11.231C16.913 10.8855 16.7308 10.573 16.4611 10.3481C16.1913 10.1231 15.8512 9.99993 15.5 10H9.5ZM8 15.5C8 15.8978 8.15804 16.2794 8.43934 16.5607C8.72064 16.842 9.10218 17 9.5 17H15.5C15.8978 17 16.2794 16.842 16.5607 16.5607C16.842 16.2794 17 15.8978 17 15.5V12.383L12.757 14.929C12.6793 14.9755 12.5905 15.0001 12.5 15.0001C12.4095 15.0001 12.3207 14.9755 12.243 14.929L8 12.383V15.5Z" fill="black"/>
</g>
</svg>
