<svg width="12" height="12" viewBox="0 0 12 12" fill="none" xmlns="http://www.w3.org/2000/svg">
<g id="ph:arrow-up-thin">
<path id="Vector" d="M6.61732 9.50764C6.59989 9.49022 6.58606 9.46955 6.57662 9.44678C6.56718 9.42402 6.56233 9.39962 6.56233 9.37498C6.56233 9.35034 6.56718 9.32594 6.57662 9.30318C6.58606 9.28042 6.59989 9.25974 6.61732 9.24233L9.67216 6.18748L1.87498 6.18748C1.82525 6.18748 1.77756 6.16773 1.74239 6.13257C1.70723 6.0974 1.68748 6.04971 1.68748 5.99998C1.68748 5.95025 1.70723 5.90256 1.74239 5.8674C1.77756 5.83224 1.82525 5.81248 1.87498 5.81248L9.67216 5.81248L6.61732 2.75764C6.5999 2.74022 6.58608 2.71954 6.57665 2.69678C6.56722 2.67401 6.56237 2.64962 6.56237 2.62498C6.56237 2.60035 6.56722 2.57595 6.57665 2.55319C6.58608 2.53043 6.5999 2.50975 6.61732 2.49233C6.63474 2.47491 6.65542 2.46109 6.67818 2.45166C6.70094 2.44223 6.72534 2.43738 6.74997 2.43738C6.77461 2.43738 6.79901 2.44223 6.82177 2.45166C6.84453 2.46109 6.86521 2.47491 6.88263 2.49233L10.2576 5.86733C10.2751 5.88474 10.2889 5.90542 10.2983 5.92818C10.3078 5.95094 10.3126 5.97534 10.3126 5.99998C10.3126 6.02462 10.3078 6.04902 10.2983 6.07178C10.2889 6.09455 10.2751 6.11523 10.2576 6.13264L6.88263 9.50764C6.86522 9.52507 6.84454 9.5389 6.82178 9.54834C6.79901 9.55777 6.77462 9.56263 6.74997 9.56263C6.72533 9.56263 6.70094 9.55777 6.67817 9.54834C6.65541 9.5389 6.63473 9.52507 6.61732 9.50764Z" fill="black"/>
</g>
</svg>
