<svg width="15" height="15" viewBox="0 0 15 15" fill="none" xmlns="http://www.w3.org/2000/svg">
<g id="ph:image-light">
<path id="Vector" d="M12.6562 2.46094H2.34375C2.12619 2.46094 1.91754 2.54736 1.7637 2.7012C1.60986 2.85504 1.52344 3.06369 1.52344 3.28125V11.7188C1.52344 11.9363 1.60986 12.145 1.7637 12.2988C1.91754 12.4526 2.12619 12.5391 2.34375 12.5391H12.6562C12.8738 12.5391 13.0825 12.4526 13.2363 12.2988C13.3901 12.145 13.4766 11.9363 13.4766 11.7188V3.28125C13.4766 3.06369 13.3901 2.85504 13.2363 2.7012C13.0825 2.54736 12.8738 2.46094 12.6562 2.46094ZM2.34375 3.16406H12.6562C12.6873 3.16406 12.7171 3.17641 12.7391 3.19839C12.7611 3.22036 12.7734 3.25017 12.7734 3.28125V9.58418L11.0467 7.85742C10.9705 7.78124 10.8801 7.72081 10.7805 7.67958C10.681 7.63835 10.5743 7.61713 10.4666 7.61713C10.3589 7.61713 10.2522 7.63835 10.1527 7.67958C10.0531 7.72081 9.9627 7.78124 9.88652 7.85742L8.63144 9.1125L5.9707 6.45117C5.89453 6.37499 5.80409 6.31456 5.70456 6.27333C5.60503 6.2321 5.49836 6.21088 5.39062 6.21088C5.28289 6.21088 5.17622 6.2321 5.07669 6.27333C4.97716 6.31456 4.88672 6.37499 4.81055 6.45117L2.22656 9.03516V3.28125C2.22656 3.25017 2.23891 3.22036 2.26089 3.19839C2.28286 3.17641 2.31267 3.16406 2.34375 3.16406ZM2.22656 11.7188V10.0295L5.30742 6.94863C5.31832 6.93765 5.33128 6.92893 5.34556 6.92298C5.35984 6.91703 5.37515 6.91397 5.39062 6.91397C5.4061 6.91397 5.42141 6.91703 5.43569 6.92298C5.44997 6.92893 5.46293 6.93765 5.47383 6.94863L10.3611 11.8359H2.34375C2.31267 11.8359 2.28286 11.8236 2.26089 11.8016C2.23891 11.7796 2.22656 11.7498 2.22656 11.7188ZM12.6562 11.8359H11.3555L9.12891 9.60938L10.3834 8.3543C10.3943 8.3434 10.4072 8.33476 10.4214 8.32886C10.4357 8.32296 10.4509 8.31993 10.4663 8.31993C10.4817 8.31993 10.497 8.32296 10.5112 8.32886C10.5254 8.33476 10.5383 8.3434 10.5492 8.3543L12.7758 10.5809V11.7188C12.7758 11.7343 12.7727 11.7498 12.7666 11.7641C12.7606 11.7785 12.7518 11.7915 12.7406 11.8025C12.7295 11.8134 12.7163 11.8219 12.7018 11.8277C12.6873 11.8334 12.6718 11.8362 12.6562 11.8359ZM8.55469 5.85938C8.55469 5.74349 8.58905 5.6302 8.65344 5.53385C8.71782 5.43749 8.80933 5.36239 8.9164 5.31804C9.02346 5.27369 9.14127 5.26209 9.25494 5.2847C9.3686 5.3073 9.473 5.36311 9.55495 5.44505C9.63689 5.527 9.69269 5.6314 9.7153 5.74506C9.73791 5.85872 9.72631 5.97654 9.68196 6.0836C9.63761 6.19067 9.56251 6.28218 9.46616 6.34656C9.3698 6.41095 9.25651 6.44531 9.14062 6.44531C8.98522 6.44531 8.83619 6.38358 8.7263 6.2737C8.61642 6.16381 8.55469 6.01478 8.55469 5.85938Z" fill="black"/>
</g>
</svg>
