<?xml version="1.0" encoding="utf-8"?>
<!-- Generator: Adobe Illustrator 23.0.1, SVG Export Plug-In . SVG Version: 6.00 Build 0)  -->
<svg version="1.1" id="Layer_1" xmlns="http://www.w3.org/2000/svg" xmlns:xlink="http://www.w3.org/1999/xlink" x="0px" y="0px"
	 viewBox="0 0 512 512" style="enable-background:new 0 0 512 512;" xml:space="preserve">
<style type="text/css">
	.st0{fill-rule:evenodd;clip-rule:evenodd;fill:#1B1B1B;}
</style>
<path class="st0" d="M397.4,397.4c-37.8,37.8-88,58.6-141.4,58.6c-53.4,0-103.6-20.8-141.4-58.6C76.8,359.6,56,309.4,56,256
	c0-53.4,20.8-103.6,58.6-141.4C152.3,76.8,202.6,56,256,56c53.4,0,103.7,20.8,141.4,58.6c37.8,37.8,58.6,88,58.6,141.4
	C456,309.4,435.2,359.6,397.4,397.4z M388,124c-35.3-35.3-82.1-54.7-132-54.7c-49.9,0-96.7,19.4-132,54.7
	c-35.3,35.3-54.7,82.1-54.7,132c0,49.9,19.4,96.7,54.7,132c35.3,35.3,82.1,54.7,132,54.7c49.9,0,96.7-19.4,132-54.7
	c35.3-35.2,54.7-82.1,54.7-132S423.2,159.3,388,124z M349.3,262.7h-86.7v86.7c0,3.7-3,6.7-6.7,6.7c-3.7,0-6.7-3-6.7-6.7v-86.7h-86.7
	c-3.7,0-6.7-3-6.7-6.7c0-3.7,3-6.7,6.7-6.7h86.7v-86.7c0-3.7,3-6.7,6.7-6.7c3.7,0,6.7,3,6.7,6.7v86.7h86.7c3.7,0,6.7,3,6.7,6.7
	C356,259.7,353,262.7,349.3,262.7z"/>
</svg>
