<svg width="19" height="20" viewBox="0 0 19 20" fill="none" xmlns="http://www.w3.org/2000/svg">
<path id="Path 34" d="M18.9712 7.48406C18.985 7.43403 18.9888 7.38175 18.9823 7.33025C18.9758 7.27875 18.9591 7.22906 18.9332 7.18406L16.7952 3.48006C16.7421 3.38945 16.6555 3.32334 16.5541 3.29603C16.4527 3.26871 16.3446 3.28237 16.2532 3.33406L14.3532 4.42906C13.6658 3.83988 12.8765 3.38134 12.0242 3.07606V0.900061C12.0242 0.793974 11.9821 0.692233 11.907 0.617218C11.832 0.542204 11.7303 0.500061 11.6242 0.500061H7.3562C7.25011 0.500061 7.14837 0.542204 7.07336 0.617218C6.99834 0.692233 6.9562 0.793974 6.9562 0.900061V3.07706C6.10519 3.38254 5.31723 3.84108 4.6312 4.43006L2.7312 3.33006C2.63997 3.279 2.53236 3.26568 2.43143 3.29297C2.33051 3.32026 2.24427 3.38598 2.1912 3.47606L0.0521999 7.17606C0.0263176 7.22106 0.00963061 7.27075 0.00310737 7.32225C-0.00341588 7.37375 0.000354681 7.42603 0.0142 7.47606C0.0415294 7.57743 0.107616 7.66399 0.1982 7.71706L2.0952 8.81706C1.93049 9.70717 1.93049 10.62 2.0952 11.5101L0.2022 12.6001C0.156814 12.6257 0.117104 12.6603 0.085476 12.7017C0.0538477 12.7431 0.03096 12.7905 0.0182 12.8411C0.00435463 12.8911 0.000584071 12.9434 0.00710732 12.9949C0.0136306 13.0464 0.0303178 13.0961 0.0562001 13.1411L2.1952 16.8411C2.24829 16.9317 2.33488 16.9978 2.43629 17.0251C2.5377 17.0524 2.64578 17.0387 2.7372 16.9871L4.6372 15.8921C5.32269 16.4825 6.11029 16.9427 6.9612 17.2501V19.4311C6.9612 19.5371 7.00334 19.6389 7.07836 19.7139C7.15337 19.7889 7.25511 19.8311 7.3612 19.8311H11.6362C11.7423 19.8311 11.844 19.7889 11.919 19.7139C11.9941 19.6389 12.0362 19.5371 12.0362 19.4311V17.2501C12.8859 16.9452 13.6728 16.4877 14.3582 15.9001L16.2582 16.9951C16.3496 17.0468 16.4577 17.0604 16.5591 17.0331C16.6605 17.0058 16.7471 16.9397 16.8002 16.8491L18.9392 13.1491C18.9656 13.1031 18.9827 13.0524 18.9894 12.9998C18.996 12.9472 18.9922 12.8938 18.978 12.8428C18.9639 12.7917 18.9397 12.7439 18.907 12.7023C18.8742 12.6606 18.8335 12.6259 18.7872 12.6001L16.8952 11.5091C17.0599 10.619 17.0599 9.70617 16.8952 8.81606L18.7862 7.72506C18.8318 7.69954 18.8717 7.66501 18.9035 7.62358C18.9353 7.58215 18.9583 7.53468 18.9712 7.48406ZM16.2532 8.27306C16.1806 8.31559 16.1232 8.37995 16.0893 8.45697C16.0553 8.534 16.0466 8.61976 16.0642 8.70206C16.1713 9.18173 16.2259 9.6716 16.2272 10.1631C16.226 10.6546 16.1707 11.1446 16.0622 11.6241C16.0446 11.7064 16.0533 11.7921 16.0873 11.8692C16.1212 11.9462 16.1786 12.0105 16.2512 12.0531L18.0512 13.0891L16.3042 16.1001L14.5042 15.0611C14.431 15.0195 14.3466 15.002 14.2629 15.0111C14.1793 15.0203 14.1006 15.0556 14.0382 15.1121C13.3156 15.7822 12.4531 16.2836 11.5132 16.5801C11.4332 16.6062 11.3634 16.6568 11.3139 16.7249C11.2643 16.7929 11.2375 16.8749 11.2372 16.9591V19.0291H7.7522V16.9591C7.75223 16.8746 7.72514 16.7924 7.67491 16.7245C7.62467 16.6567 7.55396 16.6067 7.4732 16.5821C6.53405 16.2852 5.67238 15.7838 4.9502 15.1141C4.88777 15.0576 4.80912 15.0223 4.72545 15.0131C4.64179 15.004 4.55736 15.0215 4.4842 15.0631L2.6842 16.1021L0.9402 13.0901L2.7402 12.0541C2.81283 12.0115 2.8702 11.9472 2.90413 11.8702C2.93807 11.7931 2.94684 11.7074 2.9292 11.6251C2.82227 11.145 2.76762 10.6548 2.7662 10.1631C2.76592 9.67096 2.81991 9.18033 2.9272 8.70006C2.94484 8.61776 2.93607 8.532 2.90213 8.45497C2.8682 8.37795 2.81083 8.31359 2.7382 8.27106L0.9382 7.23306L2.6842 4.21906L4.4842 5.25806C4.55736 5.29967 4.64179 5.31714 4.72545 5.30798C4.80912 5.29882 4.88777 5.26351 4.9502 5.20706C5.67248 4.53639 6.53501 4.03492 7.4752 3.73906C7.5551 3.71325 7.62485 3.66294 7.67456 3.59528C7.72428 3.52761 7.75144 3.44602 7.7522 3.36206V1.29206H11.2372V3.36206C11.2372 3.4465 11.2643 3.52872 11.3145 3.5966C11.3647 3.66447 11.4354 3.71441 11.5162 3.73906C12.4554 4.03593 13.317 4.53729 14.0392 5.20706C14.1016 5.26351 14.1803 5.29882 14.2639 5.30798C14.3476 5.31714 14.432 5.29967 14.5052 5.25806L16.3052 4.21906L18.0482 7.23506L16.2532 8.27306Z" fill="black"/>
</svg>
