<svg width="18" height="20" viewBox="0 0 18 20" fill="none" xmlns="http://www.w3.org/2000/svg">
<path id="Vector" d="M8.30769 16.2402H9.69231V17.4902H8.30769V16.2402ZM9 6.86523C9.47596 6.86523 9.92308 6.94661 10.3413 7.10938C10.7596 7.27214 11.1238 7.49674 11.4339 7.7832C11.744 8.06966 11.9928 8.40169 12.1803 8.7793C12.3678 9.1569 12.4615 9.56055 12.4615 9.99023C12.4615 10.3809 12.393 10.7227 12.256 11.0156C12.119 11.3086 11.9495 11.569 11.7476 11.7969C11.5457 12.0247 11.3221 12.2363 11.0769 12.4316C10.8317 12.627 10.6118 12.8223 10.4171 13.0176C10.2224 13.2129 10.0493 13.418 9.89784 13.6328C9.74639 13.8477 9.67789 14.0918 9.69231 14.3652V14.9902H8.30769V14.3652C8.30769 13.9746 8.3762 13.6361 8.51322 13.3496C8.65024 13.0632 8.81971 12.8027 9.02164 12.5684C9.22356 12.334 9.44712 12.1191 9.69231 11.9238C9.9375 11.7285 10.1575 11.5365 10.3522 11.3477C10.5469 11.1589 10.72 10.9538 10.8714 10.7324C11.0228 10.5111 11.0913 10.2637 11.0769 9.99023C11.0769 9.73633 11.0228 9.49544 10.9147 9.26758C10.8065 9.03971 10.6587 8.84115 10.4712 8.67188C10.2837 8.5026 10.0601 8.36589 9.80048 8.26172C9.54087 8.15755 9.27404 8.10872 9 8.11523C8.71875 8.11523 8.45192 8.16406 8.19952 8.26172C7.94712 8.35938 7.72716 8.49284 7.53966 8.66211C7.35216 8.83138 7.20072 9.0332 7.08534 9.26758C6.96995 9.50195 6.91587 9.74284 6.92308 9.99023H5.53846C5.53846 9.56055 5.62861 9.1569 5.80889 8.7793C5.98918 8.40169 6.23438 8.07292 6.54447 7.79297C6.85457 7.51302 7.22236 7.28841 7.64784 7.11914C8.07332 6.94987 8.52404 6.86523 9 6.86523ZM18 5.36133V20H0V0H12.1154L18 5.36133ZM12.5156 5H15.6526L12.5156 2.14844V5ZM16.6154 18.75V6.25H11.131V1.25H1.38462V18.75H16.6154Z" fill="#101010" fill-opacity="0.7"/>
</svg>
