<?xml version="1.0" encoding="UTF-8"?>
<svg xmlns="http://www.w3.org/2000/svg" id="Layer_1" data-name="Layer 1" viewBox="0 0 24 24" width="512" height="512"><path d="m13,17c0,.552-.448,1-1,1s-1-.448-1-1,.448-1,1-1,1,.448,1,1Zm.059-12.863c-1.239-.32-2.517-.066-3.506.699-.986.764-1.553,1.917-1.553,3.164,0,.276.224.5.5.5s.5-.224.5-.5c0-.936.425-1.801,1.165-2.374.742-.573,1.704-.765,2.644-.521,1.007.26,1.826,1.08,2.087,2.088.376,1.458-.297,2.91-1.637,3.53-.853.395-1.759,1.502-1.759,2.776,0,.276.224.5.5.5s.5-.224.5-.5c0-.817.612-1.606,1.179-1.868,1.785-.827,2.684-2.755,2.186-4.688-.351-1.354-1.451-2.456-2.806-2.807Zm10.941-.637v13c0,1.93-1.57,3.5-3.5,3.5h-3.532l-3.985,3.295c-.275.245-.626.368-.978.368-.356,0-.716-.126-1.001-.38l-3.898-3.283h-3.605c-1.93,0-3.5-1.57-3.5-3.5V3.5C0,1.57,1.57,0,3.5,0h17c1.93,0,3.5,1.57,3.5,3.5Zm-1,0c0-1.379-1.121-2.5-2.5-2.5H3.5c-1.379,0-2.5,1.121-2.5,2.5v13c0,1.379,1.121,2.5,2.5,2.5h3.788c.118,0,.232.042.322.117l4.048,3.409c.199.179.485.177.674.009l4.138-3.421c.09-.073.202-.114.318-.114h3.712c1.379,0,2.5-1.121,2.5-2.5V3.5Z"/></svg>
