<?xml version="1.0" encoding="UTF-8"?>
<svg xmlns="http://www.w3.org/2000/svg" id="Layer_1" data-name="Layer 1" viewBox="0 0 24 24">
  <path d="m17.979,23.359c.078.265-.073.542-.339.62-.047.014-.094.021-.141.021-.217,0-.416-.141-.479-.359-.631-2.144-2.695-3.641-5.021-3.641s-4.39,1.497-5.021,3.641c-.077.266-.357.416-.62.339-.266-.078-.417-.355-.339-.62.754-2.567,3.213-4.359,5.979-4.359s5.226,1.792,5.979,4.359Zm6-9c-.754-2.567-3.213-4.359-5.979-4.359-.276,0-.5.224-.5.5s.224.5.5.5c2.325,0,4.39,1.497,5.021,3.641.063.219.263.359.479.359.047,0,.094-.007.141-.021.266-.078.417-.355.339-.62Zm-17.479-3.859c0-.276-.224-.5-.5-.5C3.233,10,.774,11.792.021,14.359c-.078.265.073.542.339.62.047.014.094.021.141.021.217,0,.416-.141.479-.359.631-2.144,2.695-3.641,5.021-3.641.276,0,.5-.224.5-.5Zm5.5-1.5c2.206,0,4,1.794,4,4s-1.794,4-4,4-4-1.794-4-4,1.794-4,4-4Zm-3,4c0,1.654,1.346,3,3,3s3-1.346,3-3-1.346-3-3-3-3,1.346-3,3Zm5-9c0-2.206,1.794-4,4-4s4,1.794,4,4-1.794,4-4,4-4-1.794-4-4Zm1,0c0,1.654,1.346,3,3,3s3-1.346,3-3-1.346-3-3-3-3,1.346-3,3Zm-13,0C2,1.794,3.794,0,6,0s4,1.794,4,4-1.794,4-4,4-4-1.794-4-4Zm1,0c0,1.654,1.346,3,3,3s3-1.346,3-3-1.346-3-3-3-3,1.346-3,3Z"/>
</svg>
