<?xml version="1.0" encoding="UTF-8"?>
<svg xmlns="http://www.w3.org/2000/svg" id="Layer_1" data-name="Layer 1" viewBox="0 0 24 24">
  <path d="m24,4.5v8c0,.276-.224.5-.5.5s-.5-.224-.5-.5V4.5c0-1.93-1.57-3.5-3.5-3.5H4.5c-1.93,0-3.5,1.57-3.5,3.5v8c0,.276-.224.5-.5.5s-.5-.224-.5-.5V4.5C0,2.019,2.019,0,4.5,0h15c2.481,0,4.5,2.019,4.5,4.5Zm-4.25,14.5c-1.634,0-3.039.937-3.75,2.293-.711-1.356-2.116-2.293-3.75-2.293h-.5c-1.634,0-3.039.937-3.75,2.293-.711-1.356-2.116-2.293-3.75-2.293-2.343,0-4.25,1.906-4.25,4.25v.25c0,.276.224.5.5.5s.5-.224.5-.5v-.25c0-1.792,1.458-3.25,3.25-3.25s3.25,1.458,3.25,3.25v.25c0,.276.224.5.5.5s.5-.224.5-.5v-.25c0-1.792,1.458-3.25,3.25-3.25h.5c1.792,0,3.25,1.458,3.25,3.25v.25c0,.276.224.5.5.5s.5-.224.5-.5v-.25c0-1.792,1.458-3.25,3.25-3.25s3.25,1.458,3.25,3.25v.25c0,.276.224.5.5.5s.5-.224.5-.5v-.25c0-2.344-1.907-4.25-4.25-4.25Zm0-1c-1.378,0-2.5-1.121-2.5-2.5s1.122-2.5,2.5-2.5,2.5,1.121,2.5,2.5-1.122,2.5-2.5,2.5Zm0-1c.827,0,1.5-.673,1.5-1.5s-.673-1.5-1.5-1.5-1.5.673-1.5,1.5.673,1.5,1.5,1.5Zm-7.75,1c-1.378,0-2.5-1.121-2.5-2.5s1.122-2.5,2.5-2.5,2.5,1.121,2.5,2.5-1.122,2.5-2.5,2.5Zm0-1c.827,0,1.5-.673,1.5-1.5s-.673-1.5-1.5-1.5-1.5.673-1.5,1.5.673,1.5,1.5,1.5Zm-7.75,1c-1.378,0-2.5-1.121-2.5-2.5s1.122-2.5,2.5-2.5,2.5,1.121,2.5,2.5-1.122,2.5-2.5,2.5Zm0-1c.827,0,1.5-.673,1.5-1.5s-.673-1.5-1.5-1.5-1.5.673-1.5,1.5.673,1.5,1.5,1.5Z"/>
</svg>
