<svg width="50" height="50" viewBox="0 0 50 50" fill="none" xmlns="http://www.w3.org/2000/svg">
<g id="ri:visa-fill">
<path id="Vector" d="M2.08334 8.3335H47.9167V12.5002H2.08334V8.3335ZM2.08334 37.5002H47.9167V41.6668H2.08334V37.5002ZM40.8792 31.071L40.5167 29.2585H36.4563L35.8104 31.0564L32.5563 31.0647C34.65 26.0502 36.2021 22.3356 37.2146 19.9189C37.4792 19.2897 37.95 18.9689 38.6417 18.9731C39.1708 18.9772 40.0354 18.9772 41.2354 18.9731L43.75 31.0668L40.8792 31.0731V31.071ZM37.3708 26.7752H39.9875L39.0083 22.2335L37.3708 26.7752ZM16.4 18.971L19.6708 18.9752L14.6146 31.071L11.3021 31.0689C10.1833 26.7564 9.36042 23.5564 8.83542 21.4752C8.675 20.8356 8.35625 20.3897 7.73959 20.1793C7.19167 19.9918 6.27917 19.7002 5 19.3064V18.9731H10.2271C11.1313 18.9731 11.6583 19.4106 11.8292 20.3064L13.1208 27.1585L16.4 18.971ZM24.1646 18.9752L21.5813 31.0689L18.4667 31.0647L21.05 18.971L24.1646 18.9752ZM30.4813 18.7502C31.4104 18.7502 32.5854 19.0377 33.2604 19.3064L32.7146 21.8147C32.1042 21.5689 31.1 21.2377 30.2563 21.2522C29.0271 21.271 28.2688 21.7856 28.2688 22.2793C28.2688 23.0793 29.5854 23.4835 30.9438 24.3606C32.4917 25.3606 32.6938 26.2564 32.6771 27.2314C32.6542 29.2543 30.9438 31.2502 27.3333 31.2502C25.6854 31.2252 25.0917 31.0877 23.75 30.6127L24.3167 27.996C25.6833 28.5668 26.2646 28.7481 27.4313 28.7481C28.5042 28.7481 29.4229 28.3168 29.4313 27.5647C29.4354 27.0293 29.1083 26.7647 27.9063 26.1022C26.7042 25.4418 25.0188 24.5272 25.0417 22.6856C25.0688 20.3314 27.3083 18.7502 30.4813 18.7502Z" fill="black"/>
</g>
</svg>
