<svg width="20" height="20" viewBox="0 0 20 20" fill="none" xmlns="http://www.w3.org/2000/svg">
<g clip-path="url(#clip0_30_398)">
<path d="M0.426904 9.88032C0.426436 11.5607 0.868936 13.2015 1.71034 14.6477L0.346436 19.5889L5.44269 18.263C6.85224 19.0244 8.43155 19.4234 10.0364 19.4235H10.0407C15.3387 19.4235 19.6514 15.1457 19.6537 9.88784C19.6547 7.34001 18.6557 4.94419 16.8405 3.14171C15.0257 1.33939 12.612 0.346286 10.0403 0.345123C4.74159 0.345123 0.42917 4.62264 0.426982 9.88032" fill="url(#paint0_linear_30_398)"/>
<path d="M0.0835938 9.87721C0.0830469 11.6181 0.541406 13.3175 1.41281 14.8155L0 19.9339L5.27898 18.5605C6.73352 19.3474 8.37117 19.7622 10.0376 19.7629H10.0419C15.53 19.7629 19.9977 15.3312 20 9.88512C20.0009 7.24574 18.9659 4.7638 17.0859 2.89674C15.2057 1.02992 12.7057 0.00108527 10.0419 0C4.55281 0 0.0857813 4.43101 0.0835938 9.87721ZM3.22734 14.5575L3.03023 14.2471C2.20164 12.9398 1.7643 11.4291 1.76492 9.87783C1.76672 5.35109 5.47953 1.66822 10.045 1.66822C12.2559 1.66915 14.3337 2.52434 15.8966 4.07597C17.4593 5.62775 18.3192 7.69054 18.3187 9.8845C18.3166 14.4112 14.6037 18.0946 10.0419 18.0946H10.0386C8.5532 18.0938 7.09641 17.698 5.82594 16.95L5.52359 16.7721L2.39094 17.5871L3.22734 14.5574V14.5575Z" fill="url(#paint1_linear_30_398)"/>
<path d="M7.55303 5.74792C7.36662 5.33683 7.17045 5.32854 6.99318 5.32133C6.84803 5.31512 6.68209 5.31559 6.51631 5.31559C6.35037 5.31559 6.08076 5.37753 5.85287 5.62443C5.62475 5.87156 4.98193 6.46877 4.98193 7.68342C4.98193 8.89815 5.87357 10.072 5.99787 10.2369C6.12232 10.4015 7.7192 12.9739 10.2483 13.9635C12.3501 14.7859 12.7779 14.6223 13.234 14.5811C13.6903 14.54 14.7062 13.984 14.9135 13.4075C15.1209 12.8311 15.1209 12.337 15.0587 12.2337C14.9965 12.1309 14.8306 12.0691 14.5818 11.9457C14.3329 11.8222 13.1096 11.2249 12.8815 11.1425C12.6534 11.0602 12.4876 11.0191 12.3216 11.2663C12.1557 11.5131 11.6792 12.0691 11.534 12.2337C11.3889 12.3988 11.2437 12.4193 10.9949 12.2958C10.7459 12.1719 9.94459 11.9116 8.99389 11.0706C8.2542 10.4161 7.75482 9.60799 7.60967 9.36078C7.46451 9.11396 7.59412 8.98016 7.71889 8.85714C7.83068 8.74652 7.96779 8.56885 8.09232 8.42474C8.21639 8.28055 8.25779 8.17768 8.34076 8.01303C8.42381 7.84823 8.38225 7.70404 8.32014 7.58055C8.25779 7.45706 7.77428 6.23606 7.55303 5.74792Z" fill="white"/>
</g>
<defs>
<linearGradient id="paint0_linear_30_398" x1="965.71" y1="1924.73" x2="965.71" y2="0.345123" gradientUnits="userSpaceOnUse">
<stop stop-color="#1FAF38"/>
<stop offset="1" stop-color="#60D669"/>
</linearGradient>
<linearGradient id="paint1_linear_30_398" x1="1000" y1="1993.39" x2="1000" y2="0" gradientUnits="userSpaceOnUse">
<stop stop-color="#F9F9F9"/>
<stop offset="1" stop-color="white"/>
</linearGradient>
<clipPath id="clip0_30_398">
<rect width="20" height="20" fill="white"/>
</clipPath>
</defs>
</svg>
