<svg width="8" height="13" viewBox="0 0 12 17" fill="none" xmlns="http://www.w3.org/2000/svg">
<g id="noun-microphone-862192">
<g id="Group 11">
<path id="Path 31" d="M6.451 0.371005C6.00059 0.37061 5.55451 0.459014 5.13831 0.631197C4.72211 0.803381 4.34394 1.05599 4.02545 1.37448C3.70696 1.69297 3.4544 2.07113 3.28221 2.48734C3.11003 2.90354 3.0216 3.34961 3.022 3.80002V8.642C3.022 9.55156 3.38332 10.4239 4.02648 11.067C4.66963 11.7102 5.54194 12.0715 6.4515 12.0715C7.36106 12.0715 8.23337 11.7102 8.87652 11.067C9.51968 10.4239 9.881 9.55156 9.881 8.642V3.80002C9.88139 3.34952 9.79294 2.90336 9.62069 2.48709C9.44844 2.07082 9.19579 1.69262 8.87719 1.37412C8.5586 1.05561 8.18031 0.803078 7.76399 0.630953C7.34767 0.458829 6.9015 0.370478 6.451 0.371005ZM6.451 0.771029C6.84879 0.769575 7.24293 0.846829 7.61072 0.998385C7.97851 1.14994 8.31267 1.37281 8.59395 1.65409C8.87523 1.93537 9.09806 2.26951 9.24962 2.6373C9.40118 3.00509 9.47845 3.39924 9.477 3.79703V8.63901C9.477 9.44156 9.15819 10.2112 8.5907 10.7787C8.02322 11.3462 7.25354 11.665 6.451 11.665C5.64845 11.665 4.87878 11.3462 4.31129 10.7787C3.74381 10.2112 3.425 9.44156 3.425 8.63901V3.79703C3.42407 3.39958 3.50174 3.00585 3.65353 2.63852C3.80533 2.2712 4.02825 1.9375 4.30947 1.65665C4.5907 1.37579 4.92468 1.15329 5.29221 1.00199C5.65973 0.85068 6.05355 0.773545 6.451 0.774996V0.771029ZM1.383 6.21201C1.33345 6.21968 1.28832 6.24493 1.25582 6.28311C1.22333 6.3213 1.20565 6.36988 1.206 6.42002V8.63901C1.21025 9.99362 1.73695 11.2944 2.67638 12.2703C3.61581 13.2462 4.89553 13.8221 6.249 13.878V15.7H3.627C3.57396 15.7 3.52309 15.7211 3.48558 15.7586C3.44807 15.7961 3.427 15.847 3.427 15.9C3.427 15.953 3.44807 16.0039 3.48558 16.0414C3.52309 16.0789 3.57396 16.1 3.627 16.1H9.275C9.32804 16.1 9.37891 16.0789 9.41642 16.0414C9.45393 16.0039 9.475 15.953 9.475 15.9C9.475 15.847 9.45393 15.7961 9.41642 15.7586C9.37891 15.7211 9.32804 15.7 9.275 15.7H6.653V13.878C8.00646 13.8221 9.28619 13.2462 10.2256 12.2703C11.165 11.2944 11.6917 9.99362 11.696 8.63901V6.42002C11.696 6.36697 11.6749 6.3161 11.6374 6.2786C11.5999 6.24109 11.549 6.22 11.496 6.22C11.443 6.22 11.3921 6.24109 11.3546 6.2786C11.3171 6.3161 11.296 6.36697 11.296 6.42002V8.63901C11.3052 9.28066 11.1868 9.91774 10.9476 10.5132C10.7085 11.1087 10.3533 11.6507 9.90282 12.1077C9.45233 12.5647 8.91549 12.9276 8.32351 13.1753C7.73153 13.423 7.09622 13.5506 6.4545 13.5506C5.81278 13.5506 5.17747 13.423 4.58548 13.1753C3.9935 12.9276 3.45666 12.5647 3.00617 12.1077C2.55568 11.6507 2.20053 11.1087 1.96136 10.5132C1.72219 9.91774 1.60378 9.28066 1.613 8.63901V6.42002C1.6123 6.39114 1.60567 6.36273 1.59354 6.33652C1.5814 6.31031 1.56402 6.28683 1.54246 6.26761C1.52089 6.24839 1.49561 6.23382 1.46819 6.22476C1.44076 6.21571 1.41176 6.21239 1.383 6.215V6.21201Z" fill="#101010" stroke="#101010" stroke-width="0.5" stroke-linecap="square"/>
</g>
</g>
</svg>
