<svg width="15" height="15" viewBox="0 0 15 15" fill="none" xmlns="http://www.w3.org/2000/svg">
<g id="clarity:block-line" clip-path="url(#clip0_1_702)">
<path id="Vector" d="M13.0917 3.78755L7.67499 1.28756C7.62014 1.26217 7.56043 1.24902 7.49999 1.24902C7.43955 1.24902 7.37984 1.26217 7.32499 1.28756L1.90832 3.78755C1.836 3.82103 1.77479 3.87454 1.73196 3.94174C1.68912 4.00895 1.66646 4.08703 1.66666 4.16672V11.2501C1.66646 11.3297 1.68912 11.4078 1.73196 11.475C1.77479 11.5422 1.836 11.5957 1.90832 11.6292L7.32499 14.1292C7.37984 14.1546 7.43955 14.1678 7.49999 14.1678C7.56043 14.1678 7.62014 14.1546 7.67499 14.1292L13.0917 11.6292C13.164 11.5957 13.2252 11.5422 13.268 11.475C13.3109 11.4078 13.3335 11.3297 13.3333 11.2501V4.16672C13.3335 4.08703 13.3109 4.00895 13.268 3.94174C13.2252 3.87454 13.164 3.82103 13.0917 3.78755ZM7.49999 2.12506L11.9208 4.16672L7.49999 6.20839L3.07916 4.16672L7.49999 2.12506ZM2.49999 4.81672L7.08332 6.93339V13.1001L2.49999 10.9834V4.81672ZM7.91666 13.1001V6.93339L12.5 4.81672V10.9834L7.91666 13.1001Z" fill="black"/>
</g>
<defs>
<clipPath id="clip0_1_702">
<rect width="15" height="15" fill="white"/>
</clipPath>
</defs>
</svg>
