<svg xmlns="http://www.w3.org/2000/svg" width="2" height="12" viewBox="0 0 2 12" fill="none">
  <path d="M0.552039 10.8069C0.552039 11.0262 0.729782 11.2039 0.949039 11.2039C1.1683 11.2039 1.34604 11.0262 1.34604 10.8069C1.34604 10.5877 1.1683 10.4099 0.949039 10.4099C0.729782 10.4099 0.552039 10.5877 0.552039 10.8069Z" stroke="#101010"/>
  <path d="M0.552039 6.02298C0.552039 6.24223 0.729782 6.41998 0.949039 6.41998C1.1683 6.41998 1.34604 6.24223 1.34604 6.02298C1.34604 5.80372 1.1683 5.62598 0.949039 5.62598C0.729782 5.62598 0.552039 5.80372 0.552039 6.02298Z" stroke="#101010"/>
  <path d="M0.552039 1.83694C0.552039 2.0562 0.729782 2.23394 0.949039 2.23394C1.1683 2.23394 1.34604 2.0562 1.34604 1.83694C1.34604 1.61768 1.1683 1.43994 0.949039 1.43994C0.729782 1.43994 0.552039 1.61768 0.552039 1.83694Z" stroke="#101010"/>
</svg>