<svg xmlns="http://www.w3.org/2000/svg" width="2" height="12" viewBox="0 0 2 12" fill="none">
  <path d="M0.552039 10.807C0.552039 11.0262 0.729782 11.204 0.949039 11.204C1.1683 11.204 1.34604 11.0262 1.34604 10.807C1.34604 10.5877 1.1683 10.41 0.949039 10.41C0.729782 10.41 0.552039 10.5877 0.552039 10.807Z" stroke="#101010"/>
  <path d="M0.552039 6.02304C0.552039 6.24229 0.729782 6.42004 0.949039 6.42004C1.1683 6.42004 1.34604 6.24229 1.34604 6.02304C1.34604 5.80378 1.1683 5.62604 0.949039 5.62604C0.729782 5.62604 0.552039 5.80378 0.552039 6.02304Z" stroke="#101010"/>
  <path d="M0.552039 1.837C0.552039 2.05626 0.729782 2.234 0.949039 2.234C1.1683 2.234 1.34604 2.05626 1.34604 1.837C1.34604 1.61775 1.1683 1.44 0.949039 1.44C0.729782 1.44 0.552039 1.61775 0.552039 1.837Z" stroke="#101010"/>
</svg>