<svg width="15" height="15" viewBox="0 0 15 15" fill="none" xmlns="http://www.w3.org/2000/svg">
<g id="fluent-mdl2:error" clip-path="url(#clip0_1_53)">
<path id="Vector" d="M7.03125 0C7.68066 0 8.30322 0.0830078 8.89893 0.249023C9.49463 0.415039 10.0562 0.649414 10.5835 0.952148C11.1108 1.25488 11.5845 1.62109 12.0044 2.05078C12.4243 2.48047 12.7905 2.95654 13.103 3.479C13.4155 4.00146 13.6523 4.56055 13.8135 5.15625C13.9746 5.75195 14.0576 6.37695 14.0625 7.03125C14.0625 7.68066 13.9795 8.30322 13.8135 8.89893C13.6475 9.49463 13.4131 10.0562 13.1104 10.5835C12.8076 11.1108 12.4414 11.5845 12.0117 12.0044C11.582 12.4243 11.106 12.7905 10.5835 13.103C10.061 13.4155 9.50195 13.6523 8.90625 13.8135C8.31055 13.9746 7.68555 14.0576 7.03125 14.0625C6.38184 14.0625 5.75928 13.9795 5.16357 13.8135C4.56787 13.6475 4.00635 13.4131 3.479 13.1104C2.95166 12.8076 2.47803 12.4414 2.05811 12.0117C1.63818 11.582 1.27197 11.106 0.959473 10.5835C0.646973 10.061 0.410156 9.50195 0.249023 8.90625C0.0878906 8.31055 0.00488281 7.68555 0 7.03125C0 6.38184 0.0830078 5.75928 0.249023 5.16357C0.415039 4.56787 0.649414 4.00635 0.952148 3.479C1.25488 2.95166 1.62109 2.47803 2.05078 2.05811C2.48047 1.63818 2.95654 1.27197 3.479 0.959473C4.00146 0.646973 4.56055 0.410156 5.15625 0.249023C5.75195 0.0878906 6.37695 0.00488281 7.03125 0ZM7.03125 13.125C7.58789 13.125 8.125 13.0518 8.64258 12.9053C9.16016 12.7588 9.646 12.5537 10.1001 12.29C10.5542 12.0264 10.9668 11.709 11.3379 11.3379C11.709 10.9668 12.0264 10.5566 12.29 10.1074C12.5537 9.6582 12.7588 9.17236 12.9053 8.6499C13.0518 8.12744 13.125 7.58789 13.125 7.03125C13.125 6.47461 13.0518 5.9375 12.9053 5.41992C12.7588 4.90234 12.5537 4.4165 12.29 3.9624C12.0264 3.5083 11.709 3.0957 11.3379 2.72461C10.9668 2.35352 10.5566 2.03613 10.1074 1.77246C9.6582 1.50879 9.17236 1.30371 8.6499 1.15723C8.12744 1.01074 7.58789 0.9375 7.03125 0.9375C6.46973 0.9375 5.93018 1.01074 5.4126 1.15723C4.89502 1.30371 4.41162 1.50879 3.9624 1.77246C3.51318 2.03613 3.10059 2.35352 2.72461 2.72461C2.34863 3.0957 2.03125 3.50586 1.77246 3.95508C1.51367 4.4043 1.30859 4.89014 1.15723 5.4126C1.00586 5.93506 0.932617 6.47461 0.9375 7.03125C0.9375 7.58789 1.01074 8.125 1.15723 8.64258C1.30371 9.16016 1.50879 9.646 1.77246 10.1001C2.03613 10.5542 2.35352 10.9668 2.72461 11.3379C3.0957 11.709 3.50586 12.0264 3.95508 12.29C4.4043 12.5537 4.89014 12.7588 5.4126 12.9053C5.93506 13.0518 6.47461 13.125 7.03125 13.125ZM6.5625 3.75H7.5V8.4375H6.5625V3.75ZM6.5625 9.375H7.5V10.3125H6.5625V9.375Z" fill="black"/>
</g>
<defs>
<clipPath id="clip0_1_53">
<rect width="15" height="15" fill="white"/>
</clipPath>
</defs>
</svg>
