<svg width="20" height="20" viewBox="0 0 20 20" fill="none" xmlns="http://www.w3.org/2000/svg">
<g id="formkit:zip">
<path id="Vector" d="M8 15.3125V16.25H5V15.2375L6.57333 13.4125V13.375H5V12.5H8V13.375L6.30667 15.3125H8ZM9.49333 16.25H10.4933V12.5H9.49333V16.25ZM12 16.25H13V15.125H13.5333C14.3333 15.125 15 14.5625 15 13.8C15 13.0375 14.36 12.4875 13.5333 12.4875H12V16.2375V16.25ZM13 14.2625V13.3625H13.4133C13.68 13.3625 13.88 13.525 13.88 13.8C13.88 14.075 13.68 14.25 13.4133 14.25H13V14.2625ZM7.33333 2.5C6.96 2.5 6.66667 2.225 6.66667 1.875V1.25C6.66667 0.9 6.96 0.625 7.33333 0.625C7.70667 0.625 8 0.9 8 1.25V1.875C8 2.225 7.70667 2.5 7.33333 2.5ZM7.33333 6.25C6.96 6.25 6.66667 5.975 6.66667 5.625V4.375C6.66667 4.025 6.96 3.75 7.33333 3.75C7.70667 3.75 8 4.025 8 4.375V5.625C8 5.975 7.70667 6.25 7.33333 6.25Z" fill="#7C7C7C"/>
<path id="Vector_2" d="M16.6667 20H3.33334C2.22668 20 1.33334 19.1625 1.33334 18.125V1.875C1.33334 0.8375 2.22668 0 3.33334 0H12.7867C13.32 0 13.8267 0.2 14.2 0.55L18.08 4.1875C18.4533 4.5375 18.6667 5.0125 18.6667 5.5125V18.125C18.6667 19.1625 17.7733 20 16.6667 20ZM3.33334 1.25C2.96001 1.25 2.66668 1.525 2.66668 1.875V18.125C2.66668 18.475 2.96001 18.75 3.33334 18.75H16.6667C17.04 18.75 17.3333 18.475 17.3333 18.125V5.5125C17.3344 5.43053 17.3172 5.34926 17.2827 5.27391C17.2483 5.19856 17.1974 5.13081 17.1333 5.075L13.2533 1.4375C13.1294 1.32086 12.9622 1.25367 12.7867 1.25H3.33334Z" fill="#7C7C7C"/>
<path id="Vector_3" d="M17.84 6.25002H13.96C12.88 6.25002 12 5.42502 12 4.41252V0.775024C12 0.425024 12.2933 0.150024 12.6667 0.150024C13.04 0.150024 13.3333 0.425024 13.3333 0.775024V4.41252C13.3333 4.73752 13.6133 5.00002 13.96 5.00002H17.84C18.2133 5.00002 18.5067 5.27502 18.5067 5.62502C18.5067 5.97502 18.2133 6.25002 17.84 6.25002ZM5 12.975H6.62667V13.45H5V12.975Z" fill="#7C7C7C"/>
</g>
</svg>
