<svg xmlns="http://www.w3.org/2000/svg" width="13" height="11" viewBox="0 0 13 11" fill="none">
  <path d="M11.6562 0.460938H1.34375C1.12619 0.460938 0.91754 0.547363 0.763702 0.701202C0.609863 0.85504 0.523438 1.06369 0.523438 1.28125V9.71875C0.523438 9.93631 0.609863 10.145 0.763702 10.2988C0.91754 10.4526 1.12619 10.5391 1.34375 10.5391H11.6562C11.8738 10.5391 12.0825 10.4526 12.2363 10.2988C12.3901 10.145 12.4766 9.93631 12.4766 9.71875V1.28125C12.4766 1.06369 12.3901 0.85504 12.2363 0.701202C12.0825 0.547363 11.8738 0.460938 11.6562 0.460938ZM1.34375 1.16406H11.6562C11.6873 1.16406 11.7171 1.17641 11.7391 1.19839C11.7611 1.22036 11.7734 1.25017 11.7734 1.28125V7.58418L10.0467 5.85742C9.97051 5.78124 9.88007 5.72081 9.78054 5.67958C9.68101 5.63835 9.57433 5.61713 9.4666 5.61713C9.35887 5.61713 9.25219 5.63835 9.15266 5.67958C9.05313 5.72081 8.9627 5.78124 8.88652 5.85742L7.63144 7.1125L4.9707 4.45117C4.89453 4.37499 4.80409 4.31456 4.70456 4.27333C4.60503 4.2321 4.49836 4.21088 4.39062 4.21088C4.28289 4.21088 4.17622 4.2321 4.07669 4.27333C3.97716 4.31456 3.88672 4.37499 3.81055 4.45117L1.22656 7.03516V1.28125C1.22656 1.25017 1.23891 1.22036 1.26089 1.19839C1.28286 1.17641 1.31267 1.16406 1.34375 1.16406ZM1.22656 9.71875V8.02949L4.30742 4.94863C4.31832 4.93765 4.33128 4.92893 4.34556 4.92298C4.35984 4.91703 4.37515 4.91397 4.39062 4.91397C4.4061 4.91397 4.42141 4.91703 4.43569 4.92298C4.44997 4.92893 4.46293 4.93765 4.47383 4.94863L9.36113 9.83594H1.34375C1.31267 9.83594 1.28286 9.82359 1.26089 9.80161C1.23891 9.77964 1.22656 9.74983 1.22656 9.71875ZM11.6562 9.83594H10.3555L8.12891 7.60938L9.3834 6.3543C9.39428 6.3434 9.40721 6.33476 9.42143 6.32886C9.43566 6.32296 9.45091 6.31993 9.46631 6.31993C9.48171 6.31993 9.49696 6.32296 9.51118 6.32886C9.52541 6.33476 9.53833 6.3434 9.54922 6.3543L11.7758 8.58086V9.71875C11.7758 9.73434 11.7727 9.74977 11.7666 9.76414C11.7606 9.77852 11.7518 9.79154 11.7406 9.80245C11.7295 9.81337 11.7163 9.82195 11.7018 9.8277C11.6873 9.83345 11.6718 9.83625 11.6562 9.83594ZM7.55469 3.85938C7.55469 3.74349 7.58905 3.6302 7.65344 3.53385C7.71782 3.43749 7.80933 3.36239 7.9164 3.31804C8.02346 3.27369 8.14127 3.26209 8.25494 3.2847C8.3686 3.3073 8.473 3.36311 8.55495 3.44505C8.63689 3.527 8.69269 3.6314 8.7153 3.74506C8.73791 3.85872 8.72631 3.97654 8.68196 4.0836C8.63761 4.19067 8.56251 4.28218 8.46616 4.34656C8.3698 4.41095 8.25651 4.44531 8.14062 4.44531C7.98522 4.44531 7.83619 4.38358 7.7263 4.2737C7.61642 4.16381 7.55469 4.01478 7.55469 3.85938Z" fill="black"/>
</svg>