<svg width="15" height="15" viewBox="0 0 15 15" fill="none" xmlns="http://www.w3.org/2000/svg">
<g id="la:clipboard-check">
<path id="Vector" d="M7.5 0.9375C6.91031 0.9375 6.49125 1.35469 6.28406 1.875H2.34375V13.5938H12.6562V1.875H8.71594C8.50875 1.35469 8.08969 0.9375 7.5 0.9375ZM7.5 1.875C7.76016 1.875 7.96875 2.08359 7.96875 2.34375V2.8125H9.375V3.75H5.625V2.8125H7.03125V2.34375C7.03125 2.08359 7.23984 1.875 7.5 1.875ZM3.28125 2.8125H4.6875V4.6875H10.3125V2.8125H11.7188V12.6562H3.28125V2.8125ZM9.97547 6.22547L7.03125 9.16969L5.49328 7.63219L4.81922 8.30578L6.69422 10.1808L7.03125 10.5028L7.36828 10.1808L10.6495 6.89953L9.97547 6.22547Z" fill="#101010"/>
</g>
</svg>
