<svg width="15" height="15" viewBox="0 0 15 15" fill="none" xmlns="http://www.w3.org/2000/svg">
<g id="mdi-light:email">
<path id="Vector" d="M3.125 3.125H11.25C11.7473 3.125 12.2242 3.32254 12.5758 3.67417C12.9275 4.02581 13.125 4.50272 13.125 5V10.625C13.125 11.1223 12.9275 11.5992 12.5758 11.9508C12.2242 12.3025 11.7473 12.5 11.25 12.5H3.125C2.62772 12.5 2.15081 12.3025 1.79917 11.9508C1.44754 11.5992 1.25 11.1223 1.25 10.625V5C1.25 4.50272 1.44754 4.02581 1.79917 3.67417C2.15081 3.32254 2.62772 3.125 3.125 3.125ZM3.125 3.75C2.8125 3.75 2.5375 3.85625 2.325 4.04375L7.1875 7.1875L12.05 4.04375C11.8375 3.85625 11.5625 3.75 11.25 3.75H3.125ZM7.1875 7.94375L1.95625 4.55C1.90625 4.6875 1.875 4.84375 1.875 5V10.625C1.875 10.9565 2.0067 11.2745 2.24112 11.5089C2.47554 11.7433 2.79348 11.875 3.125 11.875H11.25C11.5815 11.875 11.8995 11.7433 12.1339 11.5089C12.3683 11.2745 12.5 10.9565 12.5 10.625V5C12.5 4.84375 12.4688 4.6875 12.4188 4.55L7.1875 7.94375Z" fill="black"/>
</g>
</svg>
