<svg width="4" height="18" viewBox="0 0 4 18" fill="none" xmlns="http://www.w3.org/2000/svg">
<g id="Menu">
<path id="Vector" d="M1 1.5C1 2.05228 1.44772 2.5 2 2.5C2.55228 2.5 3 2.05228 3 1.5C3 0.947715 2.55228 0.5 2 0.5C1.44772 0.5 1 0.947715 1 1.5Z" fill="#3E788A" stroke="#3E788A"/>
<path id="Vector_2" d="M1 8.5C1 9.05228 1.44772 9.5 2 9.5C2.55228 9.5 3 9.05228 3 8.5C3 7.94772 2.55228 7.5 2 7.5C1.44772 7.5 1 7.94772 1 8.5Z" fill="#3E788A" stroke="#3E788A"/>
<path id="Vector_3" d="M1 16.5C1 17.0523 1.44772 17.5 2 17.5C2.55228 17.5 3 17.0523 3 16.5C3 15.9477 2.55228 15.5 2 15.5C1.44772 15.5 1 15.9477 1 16.5Z" fill="#3E788A" stroke="#3E788A"/>
</g>
</svg>
