<svg width="24" height="21" viewBox="0 0 24 21" fill="none" xmlns="http://www.w3.org/2000/svg">
<g id="Message icon">
<path id="Path 68" d="M9.5683 13.2248H10.4333V10.9318H12.7223V10.0668H10.4333V7.77783H9.5683V10.0668H7.2793V10.9318H9.5683V13.2248Z" fill="black"/>
<path id="Path 69" d="M23.1248 1.05993e-06H3.9668V0.969001H22.6448V13.548H23.6138V0.484001C23.6127 0.355096 23.5607 0.231846 23.4691 0.141163C23.3775 0.0504805 23.2537 -0.000267426 23.1248 1.05993e-06Z" fill="black"/>
<path id="Path 70" d="M9.676 20.8059C9.7139 20.8571 9.76152 20.9002 9.81613 20.9329C9.87074 20.9657 9.93127 20.9873 9.99425 20.9966C10.0572 21.0059 10.1214 21.0026 10.1832 20.9871C10.2449 20.9715 10.3029 20.9439 10.354 20.9059C10.3922 20.8778 10.4259 20.8441 10.454 20.8059L12.923 17.5129H19.648C19.7116 17.513 19.7746 17.5006 19.8334 17.4763C19.8922 17.4521 19.9456 17.4164 19.9905 17.3714C20.0355 17.3265 20.0711 17.2731 20.0954 17.2143C20.1197 17.1555 20.1321 17.0925 20.132 17.0289V3.96691C20.1321 3.90331 20.1197 3.84032 20.0954 3.78154C20.0711 3.72276 20.0355 3.66935 19.9905 3.62438C19.9456 3.57941 19.8922 3.54376 19.8334 3.51949C19.7746 3.49521 19.7116 3.48278 19.648 3.48291H0.484C0.355716 3.48318 0.232763 3.53425 0.142052 3.62496C0.0513418 3.71567 0.000264231 3.83863 0 3.96691L0 17.0309C0.000529004 17.1589 0.0517552 17.2815 0.142465 17.3719C0.233176 17.4622 0.355981 17.5129 0.484 17.5129H7.21L9.676 20.8059ZM0.969 4.45091H19.162V16.5509H12.678C12.6031 16.5515 12.5293 16.5693 12.4624 16.603C12.3955 16.6366 12.3372 16.6852 12.292 16.7449L10.066 19.7119L7.839 16.7409C7.79387 16.6811 7.73557 16.6325 7.66864 16.5989C7.6017 16.5652 7.52791 16.5474 7.453 16.5469H0.969V4.45091Z" fill="black"/>
</g>
</svg>
