<svg width="15" height="15" viewBox="0 0 15 15" fill="none" xmlns="http://www.w3.org/2000/svg">
<g id="ph:flag-light">
<path id="Vector" d="M2.11406 2.54123C2.07591 2.57415 2.04528 2.61489 2.02426 2.66069C2.00323 2.70649 1.99229 2.75627 1.99219 2.80666V12.6563C1.99219 12.7495 2.02923 12.8389 2.09516 12.9049C2.16109 12.9708 2.25051 13.0078 2.34375 13.0078C2.43699 13.0078 2.52641 12.9708 2.59234 12.9049C2.65827 12.8389 2.69531 12.7495 2.69531 12.6563V10.0067C4.34063 8.67131 5.73516 9.36213 7.34414 10.1572C8.28867 10.626 9.30645 11.1287 10.391 11.1287C11.1861 11.1287 12.0176 10.8592 12.8848 10.108C12.923 10.0753 12.9537 10.0348 12.975 9.98925C12.9962 9.94367 13.0074 9.89405 13.0078 9.84377V2.80666C13.0079 2.73923 12.9886 2.6732 12.9521 2.61644C12.9157 2.55969 12.8638 2.5146 12.8024 2.48656C12.7411 2.45853 12.673 2.44872 12.6063 2.4583C12.5395 2.46789 12.4769 2.49648 12.426 2.54064C10.7268 4.01252 9.3041 3.30764 7.65586 2.49143C6.02168 1.68225 4.16016 0.771113 2.11406 2.54123ZM12.3047 9.67795C10.6594 11.0139 9.26484 10.3225 7.65586 9.52678C6.17578 8.79377 4.51699 7.97287 2.69531 9.14064V2.97189C4.34063 1.63596 5.73516 2.32736 7.34414 3.12189C8.82422 3.8549 10.483 4.6758 12.3047 3.51037V9.67795Z" fill="black"/>
</g>
</svg>
