<svg width="15" height="15" viewBox="0 0 15 15" fill="none" xmlns="http://www.w3.org/2000/svg">
<g id="ph:phone-thin">
<path id="Vector" d="M12.9363 9.4998L10.1695 8.26172C10.0623 8.2153 9.94514 8.19634 9.82872 8.20657C9.7123 8.2168 9.60026 8.2559 9.50274 8.32031C9.49494 8.32525 9.4875 8.33073 9.48048 8.33672L8.02735 9.57539C7.99501 9.59511 7.95831 9.60655 7.92049 9.6087C7.88268 9.61084 7.84491 9.60363 7.81055 9.58769C6.85899 9.12832 5.87403 8.15097 5.41466 7.21054C5.39841 7.17644 5.39086 7.13884 5.3927 7.10111C5.39454 7.06338 5.40571 7.02669 5.4252 6.99433L6.66739 5.51718C6.67325 5.51015 6.67852 5.50254 6.6838 5.49492C6.74801 5.39754 6.78699 5.28571 6.79721 5.16951C6.80744 5.05331 6.7886 4.9364 6.74239 4.82929L5.50196 2.06718C5.44208 1.92729 5.33842 1.8106 5.20657 1.73463C5.07471 1.65867 4.92177 1.62753 4.77071 1.64589C4.03335 1.74311 3.35659 2.10542 2.86684 2.66515C2.37709 3.22488 2.10784 3.94376 2.10938 4.6875C2.10938 9.21093 5.78907 12.8906 10.3125 12.8906C11.0562 12.8922 11.7751 12.6229 12.3348 12.1332C12.8946 11.6434 13.2569 10.9667 13.3541 10.2293C13.3723 10.0789 13.3415 9.92668 13.2662 9.79524C13.191 9.66379 13.0753 9.56017 12.9363 9.4998ZM12.8906 10.1707C12.8079 10.7952 12.5005 11.3681 12.0261 11.7824C11.5516 12.1967 10.9424 12.4241 10.3125 12.4219C6.04805 12.4219 2.57813 8.95195 2.57813 4.6875C2.57595 4.05758 2.80327 3.44844 3.21758 2.97395C3.6319 2.49946 4.20484 2.19211 4.8293 2.10937C4.83867 2.10879 4.84806 2.10879 4.85743 2.10937C4.90367 2.10977 4.94876 2.12383 4.98702 2.14979C5.02528 2.17575 5.05501 2.21245 5.07247 2.25527L6.30938 5.01738C6.32381 5.05114 6.33011 5.08781 6.32777 5.12445C6.32543 5.16109 6.31452 5.19667 6.29591 5.22832L5.0543 6.70488C5.04844 6.7125 5.04258 6.71953 5.03731 6.72773C4.97116 6.82888 4.93221 6.94538 4.9242 7.06598C4.9162 7.18657 4.93941 7.3072 4.99161 7.41621C5.50079 8.45859 6.55079 9.50097 7.60489 10.0102C7.71464 10.062 7.83595 10.0846 7.95701 10.0756C8.07807 10.0667 8.19476 10.0266 8.29571 9.95918L8.31739 9.94277L9.77227 8.70527C9.80339 8.68626 9.83859 8.67491 9.87496 8.67216C9.91132 8.66941 9.94782 8.67533 9.98145 8.68945L12.7477 9.92929C12.7943 9.94872 12.8335 9.98273 12.8593 10.0262C12.885 10.0697 12.896 10.1204 12.8906 10.1707Z" fill="black"/>
</g>
</svg>
