<svg width="15" height="15" viewBox="0 0 15 15" fill="none" xmlns="http://www.w3.org/2000/svg">
<g id="ph:sticker-light">
<path id="Vector" d="M9.84375 1.99219H5.15625C4.31737 1.99312 3.51312 2.32677 2.91995 2.91995C2.32677 3.51312 1.99312 4.31737 1.99219 5.15625V9.84375C1.99312 10.6826 2.32677 11.4869 2.91995 12.0801C3.51312 12.6732 4.31737 13.0069 5.15625 13.0078H7.96875C8.00661 13.0079 8.04422 13.0018 8.08008 12.9896C9.59414 12.4852 12.4852 9.59414 12.9896 8.08008C13.0018 8.04422 13.0079 8.00661 13.0078 7.96875V5.15625C13.0069 4.31737 12.6732 3.51312 12.0801 2.91995C11.4869 2.32677 10.6826 1.99312 9.84375 1.99219ZM2.69531 9.84375V5.15625C2.69531 4.50357 2.95459 3.87762 3.4161 3.4161C3.87762 2.95459 4.50357 2.69531 5.15625 2.69531H9.84375C10.4964 2.69531 11.1224 2.95459 11.5839 3.4161C12.0454 3.87762 12.3047 4.50357 12.3047 5.15625V7.61719H10.7812C9.94237 7.61812 9.13812 7.95177 8.54495 8.54495C7.95177 9.13812 7.61812 9.94237 7.61719 10.7812V12.3047H5.15625C4.50357 12.3047 3.87762 12.0454 3.4161 11.5839C2.95459 11.1224 2.69531 10.4964 2.69531 9.84375ZM8.32031 12.1096V10.7812C8.32031 10.1286 8.57959 9.50262 9.0411 9.0411C9.50262 8.57959 10.1286 8.32031 10.7812 8.32031H12.1096C11.4164 9.55664 9.55664 11.4164 8.32031 12.1096Z" fill="black"/>
</g>
</svg>
