<svg width="15" height="15" viewBox="0 0 15 15" fill="none" xmlns="http://www.w3.org/2000/svg">
<g id="system-uicons:document">
<g id="Group">
<path id="Vector" d="M4.64285 7.5H8.21428M4.64285 8.92857H9.64285M4.64285 10.3571H6.78571M11.7857 11.0714V6.07143L8.21428 2.5H4.64285C4.26397 2.5 3.90061 2.65051 3.6327 2.91842C3.36479 3.18633 3.21428 3.54969 3.21428 3.92857V11.0714C3.21428 11.4503 3.36479 11.8137 3.6327 12.0816C3.90061 12.3495 4.26397 12.5 4.64285 12.5H10.3571C10.736 12.5 11.0994 12.3495 11.3673 12.0816C11.6352 11.8137 11.7857 11.4503 11.7857 11.0714Z" stroke="black" stroke-linecap="round" stroke-linejoin="round"/>
<path id="Vector_2" d="M8.21428 2.5V4.64286C8.21428 5.02174 8.36479 5.3851 8.6327 5.65301C8.90061 5.92092 9.26397 6.07143 9.64285 6.07143H11.7857" stroke="black" stroke-linecap="round" stroke-linejoin="round"/>
</g>
</g>
</svg>
