<svg width="15" height="15" viewBox="0 0 15 15" fill="none" xmlns="http://www.w3.org/2000/svg">
<g id="system-uicons:location">
<g id="Group">
<path id="Vector" fill-rule="evenodd" clip-rule="evenodd" d="M7.49999 13.2429L7.95071 12.735C8.46214 12.1493 8.92214 11.5936 9.33142 11.065L9.66928 10.6193C11.08 8.71858 11.7857 7.21001 11.7857 6.09501C11.7857 3.71501 9.86714 1.78572 7.49999 1.78572C5.13285 1.78572 3.21428 3.71501 3.21428 6.09501C3.21428 7.21001 3.91999 8.71858 5.33071 10.6193L5.66856 11.065C6.25245 11.8131 6.86333 12.5391 7.49999 13.2429Z" stroke="black" stroke-linecap="round" stroke-linejoin="round"/>
<path id="Vector_2" d="M7.49999 7.85715C8.48622 7.85715 9.28571 7.05766 9.28571 6.07144C9.28571 5.08521 8.48622 4.28572 7.49999 4.28572C6.51377 4.28572 5.71428 5.08521 5.71428 6.07144C5.71428 7.05766 6.51377 7.85715 7.49999 7.85715Z" stroke="black" stroke-linecap="round" stroke-linejoin="round"/>
</g>
</g>
</svg>
