<svg width="13" height="12" viewBox="0 0 13 12" fill="none" xmlns="http://www.w3.org/2000/svg">
<path id="Vector" d="M12.3277 11.5391C11.3598 9.86563 9.80821 8.72306 8.01055 8.31114C8.86476 7.96117 9.57095 7.32545 10.0085 6.51258C10.446 5.69972 10.5877 4.76016 10.4093 3.85443C10.231 2.9487 9.74365 2.13299 9.03063 1.54668C8.31761 0.960369 7.42313 0.639832 6.5 0.639832C5.57688 0.639832 4.68239 0.960369 3.96937 1.54668C3.25635 2.13299 2.76904 2.9487 2.59069 3.85443C2.41235 4.76016 2.55403 5.69972 2.99154 6.51258C3.42906 7.32545 4.13524 7.96117 4.98946 8.31114C3.19414 8.7213 1.64024 9.86563 0.672268 11.5391C0.644248 11.5926 0.638007 11.655 0.65485 11.713C0.671693 11.7711 0.710316 11.8204 0.762653 11.8506C0.814989 11.8809 0.87699 11.8897 0.935705 11.8754C0.994419 11.861 1.04531 11.8245 1.07774 11.7734C2.22266 9.79239 4.25117 8.60938 6.5 8.60938C8.74883 8.60938 10.7773 9.79239 11.9223 11.7734C11.9428 11.809 11.9724 11.8386 12.008 11.8592C12.0435 11.8797 12.0839 11.8906 12.125 11.8906C12.1662 11.8908 12.2067 11.8798 12.2422 11.859C12.2959 11.8279 12.3351 11.7767 12.3511 11.7167C12.3672 11.6567 12.3588 11.5929 12.3277 11.5391ZM2.98438 4.62501C2.98438 3.92968 3.19057 3.24997 3.57687 2.67183C3.96317 2.09369 4.51223 1.64308 5.15463 1.377C5.79703 1.11091 6.5039 1.04128 7.18587 1.17694C7.86783 1.31259 8.49426 1.64742 8.98592 2.13909C9.47759 2.63076 9.81242 3.25718 9.94808 3.93914C10.0837 4.62111 10.0141 5.32798 9.74802 5.97038C9.48193 6.61278 9.03132 7.16184 8.45318 7.54814C7.87504 7.93445 7.19533 8.14063 6.5 8.14063C5.56793 8.13955 4.67435 7.7688 4.01528 7.10973C3.35621 6.45066 2.98546 5.55708 2.98438 4.62501Z" fill="black"/>
</svg>
