<svg xmlns="http://www.w3.org/2000/svg" width="149" height="21" viewBox="0 0 149 21" fill="none">
  <path d="M1.65401 13.361C1.33009 13.361 1.01942 13.2324 0.790276 13.0034C0.561135 12.7744 0.432272 12.4639 0.432007 12.14L0.432007 8.75696C0.441104 8.43905 0.573787 8.13721 0.80187 7.91556C1.02995 7.69391 1.33546 7.56992 1.65351 7.56992C1.97155 7.56992 2.27706 7.69391 2.50514 7.91556C2.73323 8.13721 2.86591 8.43905 2.87501 8.75696V12.14C2.87501 12.3004 2.8434 12.4593 2.78199 12.6076C2.72058 12.7559 2.63056 12.8906 2.51709 13.004C2.40362 13.1175 2.26891 13.2075 2.12065 13.2689C1.97239 13.3304 1.81348 13.362 1.65301 13.362" fill="#3E788A"/>
  <path d="M7.04202 18.5299C6.71792 18.5299 6.4071 18.4012 6.17793 18.172C5.94876 17.9429 5.82002 17.632 5.82002 17.3079V3.58795C5.81534 3.4246 5.84348 3.26197 5.90277 3.10968C5.96205 2.9574 6.05127 2.81855 6.16516 2.70136C6.27905 2.58416 6.41529 2.491 6.56582 2.42739C6.71634 2.36377 6.8781 2.33099 7.04152 2.33099C7.20494 2.33099 7.36669 2.36377 7.51722 2.42739C7.66775 2.491 7.80399 2.58416 7.91787 2.70136C8.03176 2.81855 8.12099 2.9574 8.18027 3.10968C8.23956 3.26197 8.26769 3.4246 8.26302 3.58795V17.3079C8.26302 17.632 8.13427 17.9429 7.9051 18.172C7.67593 18.4012 7.36511 18.5299 7.04102 18.5299" fill="#3E788A"/>
  <path d="M12.426 17.395C12.1019 17.395 11.7911 17.2662 11.5619 17.037C11.3327 16.8079 11.204 16.4971 11.204 16.173V4.72196C11.2131 4.40405 11.3458 4.10221 11.5738 3.88056C11.8019 3.65891 12.1074 3.53491 12.4255 3.53491C12.7435 3.53491 13.049 3.65891 13.2771 3.88056C13.5052 4.10221 13.6379 4.40405 13.647 4.72196V16.174C13.6467 16.4977 13.518 16.8081 13.2891 17.037C13.0601 17.266 12.7497 17.3947 12.426 17.395Z" fill="#3E788A"/>
  <path d="M17.817 14.495C17.4929 14.495 17.1821 14.3662 16.9529 14.137C16.7238 13.9079 16.595 13.597 16.595 13.273V7.62195C16.6041 7.30404 16.7368 7.0022 16.9649 6.78055C17.193 6.5589 17.4985 6.43491 17.8165 6.43491C18.1346 6.43491 18.4401 6.5589 18.6682 6.78055C18.8963 7.0022 19.0289 7.30404 19.038 7.62195V13.274C19.038 13.598 18.9093 13.9089 18.6801 14.138C18.4509 14.3672 18.1401 14.496 17.816 14.496" fill="#3E788A"/>
  <path d="M23.205 18.7439C22.8809 18.7439 22.5701 18.6152 22.3409 18.386C22.1117 18.1569 21.983 17.846 21.983 17.5219V3.37594C21.9783 3.21259 22.0064 3.04996 22.0657 2.89768C22.125 2.74539 22.2142 2.60655 22.3281 2.48935C22.442 2.37216 22.5783 2.279 22.7288 2.21538C22.8793 2.15176 23.0411 2.11899 23.2045 2.11899C23.3679 2.11899 23.5297 2.15176 23.6802 2.21538C23.8307 2.279 23.9669 2.37216 24.0808 2.48935C24.1947 2.60655 24.284 2.74539 24.3432 2.89768C24.4025 3.04996 24.4307 3.21259 24.426 3.37594V17.5209C24.4261 17.6814 24.3946 17.8403 24.3333 17.9887C24.2721 18.137 24.1822 18.2718 24.0688 18.3853C23.9554 18.4989 23.8208 18.589 23.6725 18.6505C23.5243 18.7121 23.3655 18.7438 23.205 18.7439Z" fill="#3E788A"/>
  <path d="M28.592 20.1979C28.4314 20.1983 28.2722 20.1671 28.1237 20.1059C27.9751 20.0447 27.8401 19.9549 27.7263 19.8414C27.6126 19.728 27.5223 19.5933 27.4606 19.445C27.399 19.2966 27.3671 19.1376 27.367 18.9769V1.91995C27.3623 1.7566 27.3905 1.59397 27.4498 1.44168C27.509 1.2894 27.5983 1.15055 27.7122 1.03336C27.826 0.916163 27.9623 0.823002 28.1128 0.759387C28.2633 0.695772 28.4251 0.662994 28.5885 0.662994C28.7519 0.662994 28.9137 0.695772 29.0642 0.759387C29.2147 0.823002 29.351 0.916163 29.4649 1.03336C29.5788 1.15055 29.668 1.2894 29.7273 1.44168C29.7866 1.59397 29.8147 1.7566 29.81 1.91995V18.9769C29.8101 19.1375 29.7786 19.2964 29.7173 19.4447C29.6559 19.5931 29.5659 19.7278 29.4524 19.8413C29.3389 19.9548 29.2041 20.0448 29.0558 20.1062C28.9075 20.1676 28.7485 20.1991 28.588 20.1989" fill="#3E788A"/>
  <path d="M33.98 17.0769C33.6559 17.0769 33.3451 16.9482 33.1159 16.719C32.8868 16.4899 32.758 16.179 32.758 15.8549V5.03994C32.7533 4.87659 32.7815 4.71396 32.8408 4.56168C32.9 4.4094 32.9893 4.27055 33.1032 4.15335C33.217 4.03616 33.3533 3.943 33.5038 3.87938C33.6543 3.81577 33.8161 3.78299 33.9795 3.78299C34.1429 3.78299 34.3047 3.81577 34.4552 3.87938C34.6057 3.943 34.742 4.03616 34.8559 4.15335C34.9698 4.27055 35.059 4.4094 35.1183 4.56168C35.1775 4.71396 35.2057 4.87659 35.201 5.03994V15.8559C35.201 16.18 35.0723 16.4909 34.8431 16.72C34.6139 16.9492 34.3031 17.0779 33.979 17.0779" fill="#3E788A"/>
  <path d="M39.368 20.1919C39.0439 20.1919 38.7331 20.0632 38.5039 19.834C38.2748 19.6049 38.146 19.294 38.146 18.9699V1.92294C38.1413 1.75959 38.1695 1.59696 38.2288 1.44467C38.288 1.29239 38.3773 1.15354 38.4912 1.03635C38.605 0.919154 38.7413 0.825993 38.8918 0.762378C39.0423 0.698762 39.2041 0.665985 39.3675 0.665985C39.5309 0.665985 39.6927 0.698762 39.8432 0.762378C39.9937 0.825993 40.13 0.919154 40.2439 1.03635C40.3578 1.15354 40.447 1.29239 40.5063 1.44467C40.5655 1.59696 40.5937 1.75959 40.589 1.92294V18.9709C40.589 19.295 40.4603 19.6059 40.2311 19.835C40.0019 20.0642 39.6911 20.1929 39.367 20.1929" fill="#3E788A"/>
  <path d="M44.755 13.361C44.4309 13.361 44.1201 13.2322 43.8909 13.003C43.6618 12.7739 43.533 12.463 43.533 12.139V8.75695C43.5284 8.5936 43.5565 8.43098 43.6158 8.27869C43.6751 8.12641 43.7643 7.98756 43.8782 7.87036C43.9921 7.75317 44.1283 7.66001 44.2788 7.59639C44.4294 7.53278 44.5911 7.5 44.7545 7.5C44.9179 7.5 45.0797 7.53278 45.2302 7.59639C45.3808 7.66001 45.517 7.75317 45.6309 7.87036C45.7448 7.98756 45.834 8.12641 45.8933 8.27869C45.9526 8.43098 45.9807 8.5936 45.976 8.75695V12.14C45.976 12.464 45.8473 12.7749 45.6181 13.004C45.3889 13.2332 45.0781 13.362 44.754 13.362" fill="#3E788A"/>
  <path d="M50.143 13.361C49.9826 13.361 49.8237 13.3293 49.6754 13.2679C49.5271 13.2065 49.3924 13.1165 49.279 13.003C49.1655 12.8896 49.0755 12.7549 49.014 12.6066C48.9526 12.4583 48.921 12.2994 48.921 12.139V8.75695C48.9164 8.5936 48.9445 8.43098 49.0038 8.27869C49.0631 8.12641 49.1523 7.98756 49.2662 7.87036C49.3801 7.75317 49.5163 7.66001 49.6668 7.59639C49.8174 7.53278 49.9791 7.5 50.1425 7.5C50.3059 7.5 50.4677 7.53278 50.6182 7.59639C50.7688 7.66001 50.905 7.75317 51.0189 7.87036C51.1328 7.98756 51.222 8.12641 51.2813 8.27869C51.3406 8.43098 51.3687 8.5936 51.364 8.75695V12.14C51.364 12.464 51.2353 12.7749 51.0061 13.004C50.7769 13.2332 50.4661 13.362 50.142 13.362" fill="#3E788A"/>
  <path d="M55.53 17.58C55.3695 17.58 55.2106 17.5484 55.0623 17.4869C54.9141 17.4255 54.7794 17.3355 54.6659 17.2221C54.5524 17.1086 54.4624 16.9739 54.401 16.8256C54.3396 16.6773 54.308 16.5184 54.308 16.358V4.53797C54.3171 4.22006 54.4498 3.91822 54.6778 3.69657C54.9059 3.47492 55.2114 3.35092 55.5295 3.35092C55.8475 3.35092 56.153 3.47492 56.3811 3.69657C56.6092 3.91822 56.7419 4.22006 56.751 4.53797V16.358C56.751 16.6821 56.6222 16.9929 56.3931 17.2221C56.1639 17.4512 55.8541 17.58 55.53 17.58Z" fill="#3E788A"/>
  <path d="M60.918 13.361C60.7575 13.361 60.5986 13.3293 60.4504 13.2679C60.3021 13.2065 60.1674 13.1165 60.0539 13.003C59.9404 12.8896 59.8504 12.7549 59.789 12.6066C59.7276 12.4583 59.696 12.2994 59.696 12.139V8.75695C59.6913 8.5936 59.7195 8.43098 59.7787 8.27869C59.838 8.12641 59.9273 7.98756 60.0411 7.87036C60.155 7.75317 60.2913 7.66001 60.4418 7.59639C60.5923 7.53278 60.7541 7.5 60.9175 7.5C61.0809 7.5 61.2427 7.53278 61.3932 7.59639C61.5437 7.66001 61.68 7.75317 61.7939 7.87036C61.9077 7.98756 61.997 8.12641 62.0563 8.27869C62.1155 8.43098 62.1437 8.5936 62.139 8.75695V12.14C62.139 12.464 62.0102 12.7749 61.7811 13.004C61.5519 13.2332 61.2411 13.362 60.917 13.362" fill="#3E788A"/>
  <path opacity="0.304" d="M66.306 17.283C66.1455 17.283 65.9866 17.2514 65.8383 17.1899C65.6901 17.1285 65.5554 17.0385 65.4419 16.9251C65.3284 16.8116 65.2384 16.6769 65.177 16.5286C65.1156 16.3803 65.084 16.2214 65.084 16.061V4.83397C65.084 4.50987 65.2127 4.19905 65.4419 3.96988C65.6711 3.74071 65.9819 3.61197 66.306 3.61197C66.6301 3.61197 66.9409 3.74071 67.1701 3.96988C67.3992 4.19905 67.528 4.50987 67.528 4.83397V16.062C67.528 16.3861 67.3992 16.6969 67.1701 16.9261C66.9409 17.1552 66.6301 17.284 66.306 17.284" fill="#B8AFDA"/>
  <path opacity="0.304" d="M71.693 13.361C71.5325 13.361 71.3736 13.3293 71.2254 13.2679C71.0771 13.2065 70.9424 13.1165 70.8289 13.003C70.7155 12.8896 70.6254 12.7549 70.564 12.6066C70.5026 12.4583 70.471 12.2994 70.471 12.139V8.75695C70.4663 8.5936 70.4945 8.43098 70.5538 8.27869C70.6131 8.12641 70.7023 7.98756 70.8162 7.87036C70.9301 7.75317 71.0663 7.66001 71.2168 7.59639C71.3674 7.53278 71.5291 7.5 71.6925 7.5C71.8559 7.5 72.0177 7.53278 72.1682 7.59639C72.3188 7.66001 72.455 7.75317 72.5689 7.87036C72.6828 7.98756 72.772 8.12641 72.8313 8.27869C72.8906 8.43098 72.9187 8.5936 72.914 8.75695V12.14C72.914 12.3004 72.8824 12.4593 72.821 12.6076C72.7596 12.7559 72.6696 12.8906 72.5561 13.004C72.4426 13.1175 72.3079 13.2075 72.1597 13.2689C72.0114 13.3303 71.8525 13.362 71.692 13.362" fill="#B8AFDA"/>
  <path opacity="0.304" d="M77.081 18.6529C76.7569 18.6529 76.4461 18.5242 76.2169 18.295C75.9878 18.0659 75.859 17.755 75.859 17.4309V3.46494C75.8681 3.14703 76.0008 2.84519 76.2289 2.62354C76.457 2.40189 76.7625 2.27789 77.0805 2.27789C77.3986 2.27789 77.7041 2.40189 77.9321 2.62354C78.1602 2.84519 78.2929 3.14703 78.302 3.46494V17.4319C78.302 17.756 78.1733 18.0669 77.9441 18.296C77.7149 18.5252 77.4041 18.6539 77.08 18.6539" fill="#B8AFDA"/>
  <path opacity="0.304" d="M82.469 16.8549C82.1449 16.8549 81.8341 16.7262 81.6049 16.497C81.3758 16.2679 81.247 15.957 81.247 15.6329V5.26694C81.2561 4.94903 81.3888 4.64719 81.6169 4.42554C81.845 4.20389 82.1505 4.0799 82.4685 4.0799C82.7866 4.0799 83.0921 4.20389 83.3202 4.42554C83.5482 4.64719 83.6809 4.94903 83.69 5.26694V15.6369C83.69 15.961 83.5613 16.2719 83.3321 16.501C83.1029 16.7302 82.7921 16.8589 82.468 16.8589" fill="#B8AFDA"/>
  <path opacity="0.304" d="M87.856 14.386C87.5319 14.386 87.2211 14.2572 86.9919 14.028C86.7627 13.7989 86.634 13.4881 86.634 13.164V7.73196C86.6293 7.56861 86.6574 7.40598 86.7167 7.2537C86.776 7.10141 86.8652 6.96256 86.9791 6.84537C87.093 6.72817 87.2293 6.63501 87.3798 6.5714C87.5303 6.50778 87.6921 6.47501 87.8555 6.47501C88.0189 6.47501 88.1807 6.50778 88.3312 6.5714C88.4817 6.63501 88.6179 6.72817 88.7318 6.84537C88.8457 6.96256 88.935 7.10141 88.9942 7.2537C89.0535 7.40598 89.0817 7.56861 89.077 7.73196V13.164C89.077 13.4881 88.9482 13.7989 88.7191 14.028C88.4899 14.2572 88.1801 14.386 87.856 14.386Z" fill="#B8AFDA"/>
  <path opacity="0.304" d="M93.244 19.114C92.9199 19.114 92.6091 18.9852 92.3799 18.756C92.1507 18.5269 92.022 18.2161 92.022 17.892V3.00296C92.0173 2.8396 92.0454 2.67698 92.1047 2.52469C92.164 2.37241 92.2532 2.23356 92.3671 2.11636C92.481 1.99917 92.6173 1.90601 92.7678 1.84239C92.9183 1.77878 93.0801 1.746 93.2435 1.746C93.4069 1.746 93.5687 1.77878 93.7192 1.84239C93.8697 1.90601 94.006 1.99917 94.1198 2.11636C94.2337 2.23356 94.323 2.37241 94.3822 2.52469C94.4415 2.67698 94.4697 2.8396 94.465 3.00296V17.893C94.465 18.2171 94.3362 18.5279 94.1071 18.757C93.8779 18.9862 93.5671 19.115 93.243 19.115" fill="#B8AFDA"/>
  <path opacity="0.304" d="M98.632 20.665C98.3079 20.665 97.9971 20.5362 97.7679 20.307C97.5387 20.0779 97.41 19.7671 97.41 19.443V1.45496C97.4191 1.13705 97.5518 0.835208 97.7798 0.613559C98.0079 0.391909 98.3134 0.267914 98.6315 0.267914C98.9495 0.267914 99.255 0.391909 99.4831 0.613559C99.7112 0.835208 99.8439 1.13705 99.853 1.45496V19.442C99.853 19.7661 99.7242 20.0769 99.4951 20.306C99.2659 20.5352 98.9551 20.664 98.631 20.664" fill="#B8AFDA"/>
  <path opacity="0.304" d="M104.019 17.32C103.695 17.32 103.384 17.1912 103.155 16.962C102.926 16.7329 102.797 16.4221 102.797 16.098V4.80196C102.797 4.47786 102.926 4.16704 103.155 3.93787C103.384 3.7087 103.695 3.57996 104.019 3.57996C104.343 3.57996 104.654 3.7087 104.883 3.93787C105.112 4.16704 105.241 4.47786 105.241 4.80196V16.102C105.241 16.4261 105.112 16.7369 104.883 16.966C104.654 17.1952 104.343 17.324 104.019 17.324" fill="#B8AFDA"/>
  <path opacity="0.304" d="M109.407 20.861C109.083 20.861 108.772 20.7322 108.543 20.503C108.314 20.2739 108.185 19.963 108.185 19.639V1.25695C108.18 1.0936 108.208 0.930974 108.268 0.77869C108.327 0.626405 108.416 0.487558 108.53 0.370363C108.644 0.253169 108.78 0.160008 108.931 0.0963925C109.081 0.0327773 109.243 0 109.407 0C109.57 0 109.732 0.0327773 109.882 0.0963925C110.033 0.160008 110.169 0.253169 110.283 0.370363C110.397 0.487558 110.486 0.626405 110.545 0.77869C110.605 0.930974 110.633 1.0936 110.628 1.25695V19.635C110.628 19.959 110.499 20.2699 110.27 20.499C110.041 20.7282 109.73 20.857 109.406 20.857" fill="#B8AFDA"/>
  <path opacity="0.304" d="M114.795 13.361C114.635 13.361 114.476 13.3293 114.327 13.2679C114.179 13.2065 114.044 13.1165 113.931 13.003C113.817 12.8896 113.727 12.7549 113.666 12.6066C113.605 12.4583 113.573 12.2994 113.573 12.139V8.75695C113.568 8.5936 113.596 8.43098 113.656 8.27869C113.715 8.12641 113.804 7.98756 113.918 7.87036C114.032 7.75317 114.168 7.66001 114.319 7.59639C114.469 7.53278 114.631 7.5 114.795 7.5C114.958 7.5 115.12 7.53278 115.27 7.59639C115.421 7.66001 115.557 7.75317 115.671 7.87036C115.785 7.98756 115.874 8.12641 115.933 8.27869C115.993 8.43098 116.021 8.5936 116.016 8.75695V12.14C116.016 12.464 115.887 12.7749 115.658 13.004C115.429 13.2332 115.118 13.362 114.794 13.362" fill="#B8AFDA"/>
  <path opacity="0.304" d="M120.182 13.361C119.859 13.3599 119.549 13.2308 119.321 13.002C119.093 12.7731 118.964 12.4632 118.964 12.14V8.75695C118.959 8.5936 118.987 8.43098 119.047 8.27869C119.106 8.12641 119.195 7.98756 119.309 7.87036C119.423 7.75317 119.559 7.66001 119.71 7.59639C119.86 7.53278 120.022 7.5 120.186 7.5C120.349 7.5 120.511 7.53278 120.661 7.59639C120.812 7.66001 120.948 7.75317 121.062 7.87036C121.176 7.98756 121.265 8.12641 121.324 8.27869C121.384 8.43098 121.412 8.5936 121.407 8.75695V12.14C121.407 12.464 121.278 12.7749 121.049 13.004C120.82 13.2332 120.509 13.362 120.185 13.362" fill="#B8AFDA"/>
  <path opacity="0.304" d="M125.57 17.3229C125.246 17.3229 124.935 17.1942 124.706 16.965C124.477 16.7359 124.348 16.425 124.348 16.1009V4.79495C124.343 4.6316 124.371 4.46897 124.431 4.31668C124.49 4.1644 124.579 4.02555 124.693 3.90836C124.807 3.79116 124.943 3.698 125.094 3.63439C125.244 3.57077 125.406 3.53799 125.57 3.53799C125.733 3.53799 125.895 3.57077 126.045 3.63439C126.196 3.698 126.332 3.79116 126.446 3.90836C126.56 4.02555 126.649 4.1644 126.708 4.31668C126.768 4.46897 126.796 4.6316 126.791 4.79495V16.1009C126.791 16.425 126.662 16.7359 126.433 16.965C126.204 17.1942 125.893 17.3229 125.569 17.3229" fill="#B8AFDA"/>
  <path opacity="0.304" d="M130.959 13.361C130.799 13.361 130.64 13.3293 130.491 13.2679C130.343 13.2065 130.208 13.1165 130.095 13.003C129.981 12.8896 129.891 12.7549 129.83 12.6066C129.769 12.4583 129.737 12.2994 129.737 12.139V8.75695C129.732 8.5936 129.76 8.43098 129.82 8.27869C129.879 8.12641 129.968 7.98756 130.082 7.87036C130.196 7.75317 130.332 7.66001 130.483 7.59639C130.633 7.53278 130.795 7.5 130.959 7.5C131.122 7.5 131.284 7.53278 131.434 7.59639C131.585 7.66001 131.721 7.75317 131.835 7.87036C131.949 7.98756 132.038 8.12641 132.097 8.27869C132.157 8.43098 132.185 8.5936 132.18 8.75695V12.14C132.18 12.4637 132.051 12.7741 131.822 13.003C131.593 13.232 131.283 13.3607 130.959 13.361Z" fill="#B8AFDA"/>
  <path opacity="0.304" d="M136.345 13.361C136.185 13.361 136.026 13.3293 135.877 13.2679C135.729 13.2065 135.594 13.1165 135.481 13.003C135.367 12.8896 135.277 12.7549 135.216 12.6066C135.155 12.4583 135.123 12.2994 135.123 12.139V8.75695C135.118 8.5936 135.147 8.43098 135.206 8.27869C135.265 8.12641 135.354 7.98756 135.468 7.87036C135.582 7.75317 135.718 7.66001 135.869 7.59639C136.019 7.53278 136.181 7.5 136.345 7.5C136.508 7.5 136.67 7.53278 136.82 7.59639C136.971 7.66001 137.107 7.75317 137.221 7.87036C137.335 7.98756 137.424 8.12641 137.483 8.27869C137.543 8.43098 137.571 8.5936 137.566 8.75695V12.14C137.566 12.464 137.437 12.7749 137.208 13.004C136.979 13.2332 136.668 13.362 136.344 13.362" fill="#B8AFDA"/>
  <path opacity="0.304" d="M141.733 18.933C141.409 18.933 141.098 18.8042 140.869 18.575C140.64 18.3459 140.511 18.0351 140.511 17.711V3.18296C140.52 2.86504 140.653 2.56321 140.881 2.34156C141.109 2.11991 141.414 1.99591 141.732 1.99591C142.051 1.99591 142.356 2.11991 142.584 2.34156C142.812 2.56321 142.945 2.86504 142.954 3.18296V17.712C142.954 18.0361 142.825 18.3469 142.596 18.576C142.367 18.8052 142.056 18.934 141.732 18.934" fill="#B8AFDA"/>
  <path opacity="0.304" d="M147.121 16.8529C146.797 16.8527 146.487 16.724 146.258 16.495C146.029 16.2661 145.9 15.9557 145.9 15.6319V5.26495C145.895 5.1016 145.923 4.93897 145.983 4.78668C146.042 4.6344 146.131 4.49555 146.245 4.37836C146.359 4.26116 146.495 4.168 146.646 4.10439C146.796 4.04077 146.958 4.008 147.122 4.008C147.285 4.008 147.447 4.04077 147.597 4.10439C147.748 4.168 147.884 4.26116 147.998 4.37836C148.112 4.49555 148.201 4.6344 148.26 4.78668C148.32 4.93897 148.348 5.1016 148.343 5.26495V15.6319C148.343 15.7924 148.311 15.9513 148.25 16.0996C148.189 16.2478 148.099 16.3826 147.985 16.496C147.872 16.6095 147.737 16.6995 147.589 16.7609C147.44 16.8223 147.282 16.8529 147.121 16.8529Z" fill="#B8AFDA"/>
</svg>