<?xml version="1.0" encoding="UTF-8"?>
<svg xmlns="http://www.w3.org/2000/svg" id="Layer_1" data-name="Layer 1" viewBox="0 0 24 24">
  <path d="m15.95,2c-.232-1.14-1.243-2-2.45-2h-3c-1.208,0-2.217.86-2.45,2H3v19.5c0,1.378,1.122,2.5,2.5,2.5h13c1.379,0,2.5-1.122,2.5-2.5V2h-5.05Zm4.05,19.5c0,.827-.673,1.5-1.5,1.5H5.5c-.827,0-1.5-.673-1.5-1.5V3h5v-.5c0-.827.673-1.5,1.5-1.5h3c.827,0,1.5.673,1.5,1.5v.5h5v18.5Zm-9.021-6.714l5.901-5.797.701.714-5.898,5.793c-.336.335-.778.503-1.22.503s-.887-.168-1.225-.506l-2.815-2.71.693-.721,2.822,2.717c.292.292.756.292,1.041.007Z"/>
</svg>
