<svg xmlns="http://www.w3.org/2000/svg" width="125.955" height="125.949" viewBox="0 0 125.955 125.949">
  <g id="undraw_click_here_re_y6uq" transform="translate(0)">
    <path id="Path_32" data-name="Path 32" d="M583.145,259.421H516.807a1.746,1.746,0,0,1-1.744-1.744V230.76a1.746,1.746,0,0,1,1.744-1.744h66.339a1.746,1.746,0,0,1,1.744,1.744v26.917A1.746,1.746,0,0,1,583.145,259.421Z" transform="translate(-458.934 -229.016)" fill="#e4e4e4"/>
    <path id="Path_33" data-name="Path 33" d="M592.907,377.76H539.2a2.092,2.092,0,1,1,0-4.185h53.705C595.605,373.538,595.632,377.8,592.907,377.76Z" transform="translate(-475.013 -334.443)" fill="#e4e4e4"/>
    <path id="Path_34" data-name="Path 34" d="M621.57,509.76H601.7a2.092,2.092,0,0,1,0-4.185H621.57C624.268,505.538,624.3,509.8,621.57,509.76Z" transform="translate(-520.594 -430.711)" fill="#3f3d56"/>
    <path id="Path_35" data-name="Path 35" d="M592.907,413.188H539.2a2.092,2.092,0,1,1,0-4.185h53.705C595.605,408.965,595.632,413.226,592.907,413.188Z" transform="translate(-475.013 -360.281)" fill="#e4e4e4"/>
    <path id="Path_36" data-name="Path 36" d="M592.907,448.615H539.2a2.092,2.092,0,0,1,0-4.185h53.705C595.605,444.393,595.632,448.653,592.907,448.615Z" transform="translate(-475.013 -386.118)" fill="#e4e4e4"/>
    <path id="Path_37" data-name="Path 37" d="M488.512,549.691a1.74,1.74,0,0,0-1.738,1.738v35.639a1.74,1.74,0,0,0,1.738,1.738h4.276a1.74,1.74,0,0,0,1.738-1.738V551.429a1.74,1.74,0,0,0-1.738-1.738Z" transform="translate(-438.303 -462.885)" fill="#1f7a8c"/>
    <path id="Path_38" data-name="Path 38" d="M457.269,549.691a1.74,1.74,0,0,0-1.738,1.738v35.639a1.74,1.74,0,0,0,1.738,1.738h4.276a1.74,1.74,0,0,0,1.738-1.738V551.429a1.74,1.74,0,0,0-1.738-1.738Z" transform="translate(-415.517 -462.885)" fill="#1f7a8c"/>
    <circle id="Ellipse_31" data-name="Ellipse 31" cx="14.775" cy="14.775" r="14.775" transform="translate(33.216 19.918)" fill="#1f7a8c"/>
    <path id="Path_39" data-name="Path 39" d="M524.12,353.518a5.331,5.331,0,0,0,3.068-.731,2.356,2.356,0,0,0,.927-1.759,1.585,1.585,0,0,0-.539-1.3,2.045,2.045,0,0,0-1.935-.279l.782-5.715-.574-.079-.919,6.718.479-.22a1.754,1.754,0,0,1,1.793.016,1.018,1.018,0,0,1,.334.839,1.78,1.78,0,0,1-.69,1.312,4.793,4.793,0,0,1-2.742.619Z" transform="translate(-465.528 -312.622)" fill="#2f2e41"/>
    <rect id="Rectangle_13" data-name="Rectangle 13" width="3.121" height="0.579" transform="translate(63.735 31.604)" fill="#2f2e41"/>
    <rect id="Rectangle_14" data-name="Rectangle 14" width="3.121" height="0.579" transform="translate(53.885 31.604)" fill="#2f2e41"/>
    <path id="Path_40" data-name="Path 40" d="M461.426,472.978H443.507a8.544,8.544,0,0,1-8.465-9.7l4.28-31.246a1.881,1.881,0,0,1,1.856-1.619h3.86c0-.053-.007-.1-.007-.154v-1.449a1.876,1.876,0,0,1,1.874-1.874h3.477a1.876,1.876,0,0,1,1.874,1.874v1.449c0,.05,0,.1-.007.154h3.86a1.881,1.881,0,0,1,1.856,1.619l5.318,38.821a1.874,1.874,0,0,1-1.856,2.128Z" transform="translate(-400.517 -373.357)" fill="#2f2e41"/>
    <path id="Path_41" data-name="Path 41" d="M430.338,315.882l-10.22-3.967c-1.671-.649-3.352-1.278-5.014-1.949a5.715,5.715,0,0,1-1.93-1.137,3.792,3.792,0,0,1-.962-1.862,19.179,19.179,0,0,1-.265-4.665,35.549,35.549,0,0,1,.412-4.995,24.129,24.129,0,0,1,3.086-8.8c2.866-4.7,7.8-8.24,13.484-7.958a11.547,11.547,0,0,1,7.228,2.872,4.563,4.563,0,0,0,.682.661.947.947,0,0,0,.543.036q.358-.023.716-.035a14.787,14.787,0,0,1,2.482.1,7.857,7.857,0,0,1,4.094,1.7,4.993,4.993,0,0,1,1.853,3.343,3.957,3.957,0,0,1-1.337,3.23c-1.219,1.028-2.959.666-4.421.589l-5.358-.284-2.715-.144c-.559-.03-.557.84,0,.869l7.215.382a31.526,31.526,0,0,0,3.515.142,3.933,3.933,0,0,0,2.414-.971,4.817,4.817,0,0,0,1.459-4.52,6.461,6.461,0,0,0-3.247-4.124,12.3,12.3,0,0,0-6.994-1.129l.307.127a12.665,12.665,0,0,0-10.606-3.655,15.873,15.873,0,0,0-10.257,5.805,23.884,23.884,0,0,0-5.078,12.176,40.515,40.515,0,0,0-.314,7.208,9.084,9.084,0,0,0,.537,3.115,4.459,4.459,0,0,0,2.093,2.244,29.948,29.948,0,0,0,3.322,1.365l3.765,1.461,7.4,2.871,1.883.731c.522.2.748-.638.231-.838Z" transform="translate(-383.091 -265.952)" fill="#2f2e41"/>
    <path id="Path_42" data-name="Path 42" d="M410.793,280.16a4.491,4.491,0,1,1,4.491-4.49A4.49,4.49,0,0,1,410.793,280.16Zm0-8.112a3.621,3.621,0,1,0,3.621,3.621A3.621,3.621,0,0,0,410.793,272.048Z" transform="translate(-379.615 -259.765)" fill="#2f2e41"/>
    <path id="Path_43" data-name="Path 43" d="M510.387,470.558a1.74,1.74,0,0,0-1.154-2.17l-32.036-9.8a3.876,3.876,0,0,0-4.556,5.526h0a3.824,3.824,0,0,0,1.895,1.743,3.97,3.97,0,0,0,.394.144l32.036,9.8a1.738,1.738,0,0,0,2.171-1.154Z" transform="translate(-427.665 -396.321)" fill="#1f7a8c"/>
    <path id="Path_44" data-name="Path 44" d="M480.913,465.085a3.132,3.132,0,0,1-.7-.284l-8.918-2.884c-4.246-1.77-2.833-6.458-1.672-10.936l.055-.21,9.1-1.572,6.855,3.064a3.135,3.135,0,0,1,1.651,3.969l-2.627,6.936a3.133,3.133,0,0,1-3.741,1.917Z" transform="translate(-424.923 -389.596)" fill="#2f2e41"/>
    <path id="Path_45" data-name="Path 45" d="M407.734,692.554h-99.7a.322.322,0,0,1,0-.645h99.7a.322.322,0,1,1,0,.645Z" transform="translate(-307.715 -566.605)" fill="#3f3d56"/>
  </g>
</svg>
