<svg xmlns="http://www.w3.org/2000/svg" width="104.804" height="118.714" viewBox="0 0 104.804 118.714">
  <g id="undraw_happy_news_re_tsbd" transform="translate(0.917)">
    <path id="Path_16" data-name="Path 16" d="M654.322,434.043a1.3,1.3,0,0,0,1.818-1.626l.072-.357a3.488,3.488,0,0,1,5.863,2.727c-.161,3.913.032,8.135-2.568,11.289a41.319,41.319,0,0,0,13.657-41.084,10.64,10.64,0,0,1-1.811-8.754c1,.973,2.952.712,2.654-.973-.16-.666-.326-1.33-.485-2,6.836-2.668,8.621,7.5.523,11.636a41.624,41.624,0,0,1,1.074,8.612,17.5,17.5,0,0,1,4.441-6.888c1.941-1.747,4.507-2.775,6.895-3.947a3.592,3.592,0,0,1,4.985,4.432c-1.934-.247-3.3,2.064-1.547,3.306a17.916,17.916,0,0,1-15,8.519,41.783,41.783,0,0,1-5.454,16.748c3.836-5.833,11.26-4.154,17.126-4.4a2.021,2.021,0,0,1,1.9,3.175,11.667,11.667,0,0,0-2.312.094,1.764,1.764,0,0,0-.646,3.26,17.814,17.814,0,0,1-19.38,2.722,42.954,42.954,0,0,1-6.23,6.363l-9.305-4.436c.016-.119.037-.24.056-.358a11.708,11.708,0,0,0,2.648,1.074c-.993-3.784-2.1-6,1.023-9.135Z" transform="translate(-587.787 -346.151)" fill="#f2f2f2"/>
    <path id="Path_17" data-name="Path 17" d="M433.682,431.2a1.3,1.3,0,0,1-2.3-.821l-.2-.3a3.488,3.488,0,0,0-4.4,4.737c1.625,3.563,3.038,7.546,6.637,9.487a41.319,41.319,0,0,1-28.145-32.9,10.64,10.64,0,0,0-1.625-8.791c-.56,1.279-2.465,1.773-2.825.1-.1-.677-.2-1.355-.3-2.032-7.338.108-5.156,10.2,3.9,10.974a41.618,41.618,0,0,0,2.254,8.381,17.5,17.5,0,0,0-6.711-4.7c-2.457-.886-5.221-.87-7.874-1.055a3.593,3.593,0,0,0-2.945,5.986c1.7-.959,3.837.666,2.68,2.478a17.916,17.916,0,0,0,17.1,2.233A41.784,41.784,0,0,0,420.3,438.428c-5.753-3.955-11.995.4-17.522,2.383a2.021,2.021,0,0,0-.564,3.657,11.679,11.679,0,0,1,2.176-.785,1.764,1.764,0,0,1,1.828,2.776,17.814,17.814,0,0,0,18.975-4.79,42.957,42.957,0,0,0,8.169,3.543l6.945-7.618c-.06-.1-.125-.209-.187-.31a11.707,11.707,0,0,1-2.047,1.993c-.508-3.879-.32-6.349-4.393-8.074Z" transform="translate(-383.59 -352.263)" fill="#f2f2f2"/>
    <path id="Path_18" data-name="Path 18" d="M576.965,229.111a1.3,1.3,0,0,0,.6-2.363l-.14-.337a3.488,3.488,0,0,1,6.388-1c2.048,3.338,4.563,6.735,4.162,10.8a41.319,41.319,0,0,0-11.569-41.72,10.64,10.64,0,0,1-6.384-6.258c1.374.25,2.848-1.055,1.66-2.288-.5-.464-1.012-.923-1.516-1.386,4.188-6.026,11.337,1.417,6.922,9.368a41.619,41.619,0,0,1,5.693,6.551,17.5,17.5,0,0,1-.154-8.194c.637-2.533,2.194-4.816,3.523-7.121a3.592,3.592,0,0,1,6.61.9c-1.743.873-1.591,3.555.559,3.607a17.916,17.916,0,0,1-7.7,15.434,41.783,41.783,0,0,1,4.81,16.944c-.068-6.981,7.031-9.726,11.763-13.2a2.021,2.021,0,0,1,3.349,1.575,11.676,11.676,0,0,0-1.867,1.367,1.764,1.764,0,0,0,1.281,3.067,17.814,17.814,0,0,1-14.571,13.065,42.954,42.954,0,0,1-1.624,8.755l-10.2,1.506c-.053-.108-.1-.22-.153-.328a11.711,11.711,0,0,0,2.8-.585c-2.934-2.588-5.088-3.811-4.244-8.154Z" transform="translate(-525.085 -182.36)" fill="#f2f2f2"/>
    <path id="Path_19" data-name="Path 19" d="M617.982,310.5c-4.643,0-7.161-.567-8.04-1.778-.776-1.069-.256-2.478.347-4.111a11.41,11.41,0,0,0,.924-3.819c0-6.4,3.246-9.647,9.647-9.647a12.794,12.794,0,0,1,9.148,4.526,11.191,11.191,0,0,1,3.16,8.46h0a5.452,5.452,0,0,1-3.364,4.753l-.12.055-.034-.127a5.439,5.439,0,0,0-.881-1.828,6.253,6.253,0,0,1-.638,2.478l-.022.044-.047.013a31.988,31.988,0,0,1-7.2.92Q619.3,310.5,617.982,310.5Z" transform="translate(-555.846 -267.015)" fill="#2f2e41"/>
    <path id="Path_20" data-name="Path 20" d="M542.2,385.413a3.474,3.474,0,0,0-5.41-1.633l-15.271,9.13-4.779-11.66a3.393,3.393,0,1,0-3.748,1.347c.294,3.362,1.931,18.39,7.626,17.844,4.786-.459,16.672-8.375,20.364-11.12A3.475,3.475,0,0,0,542.2,385.413Z" transform="translate(-478.794 -333.013)" fill="#ffb6b6"/>
    <path id="Path_21" data-name="Path 21" d="M604.84,586.9H591.549l-2.229-11.02L588.6,586.9H576.251a251.88,251.88,0,0,1,1.351-25.911l.153-.521.242-.834.153-.523,2.555-8.774.2-.7h15.385a22.515,22.515,0,0,1,2.442,2.7c.251.319.512.665.781,1.038.186.264.379.541.572.832a27.945,27.945,0,0,1,3.792,8.339v0q.2.762.359,1.559v0c.093.472.175.951.24,1.442.049.357.091.719.122,1.084a24.862,24.862,0,0,1-.193,6.081Z" transform="translate(-529.931 -468.185)" fill="#2f2e41"/>
    <ellipse id="Ellipse_3" data-name="Ellipse 3" cx="1.676" cy="1.166" rx="1.676" ry="1.166" transform="translate(2.035 16.377) rotate(-21.162)" fill="#e6e6e6"/>
    <ellipse id="Ellipse_4" data-name="Ellipse 4" cx="1.676" cy="1.166" rx="1.676" ry="1.166" transform="translate(12.903 14.983) rotate(-21.162)" fill="#3f3d56"/>
    <ellipse id="Ellipse_5" data-name="Ellipse 5" cx="1.676" cy="1.166" rx="1.676" ry="1.166" transform="translate(1.092 25.649) rotate(-21.162)" fill="#ff6584"/>
    <ellipse id="Ellipse_6" data-name="Ellipse 6" cx="0.737" cy="1.059" rx="0.737" ry="1.059" transform="matrix(0.973, -0.23, 0.23, 0.973, -0.853, 29.417)" fill="#e6e6e6"/>
    <ellipse id="Ellipse_7" data-name="Ellipse 7" cx="0.737" cy="1.059" rx="0.737" ry="1.059" transform="matrix(0.973, -0.23, 0.23, 0.973, -0.917, 36.341)" fill="#3f3d56"/>
    <ellipse id="Ellipse_8" data-name="Ellipse 8" cx="0.737" cy="1.059" rx="0.737" ry="1.059" transform="matrix(0.973, -0.23, 0.23, 0.973, 8.621, 21.999)" fill="#e6e6e6"/>
    <ellipse id="Ellipse_9" data-name="Ellipse 9" cx="0.737" cy="1.059" rx="0.737" ry="1.059" transform="matrix(0.973, -0.23, 0.23, 0.973, 2.897, 20.609)" fill="#ff6584"/>
    <ellipse id="Ellipse_10" data-name="Ellipse 10" cx="0.737" cy="1.059" rx="0.737" ry="1.059" transform="matrix(0.973, -0.23, 0.23, 0.973, 8.964, 14.233)" fill="#3f3d56"/>
    <ellipse id="Ellipse_11" data-name="Ellipse 11" cx="1.166" cy="1.676" rx="1.166" ry="1.676" transform="translate(9.683 62.765) rotate(-49.596)" fill="#e6e6e6"/>
    <ellipse id="Ellipse_12" data-name="Ellipse 12" cx="1.166" cy="1.676" rx="1.166" ry="1.676" transform="translate(3.282 53.872) rotate(-49.596)" fill="#3f3d56"/>
    <ellipse id="Ellipse_13" data-name="Ellipse 13" cx="1.166" cy="1.676" rx="1.166" ry="1.676" transform="translate(18.285 59.179) rotate(-49.596)" fill="#ff6584"/>
    <ellipse id="Ellipse_14" data-name="Ellipse 14" cx="1.059" cy="0.737" rx="1.059" ry="0.737" transform="matrix(0.746, -0.666, 0.666, 0.746, 24.095, 60.168)" fill="#e6e6e6"/>
    <ellipse id="Ellipse_15" data-name="Ellipse 15" cx="1.059" cy="0.737" rx="1.059" ry="0.737" transform="matrix(0.746, -0.666, 0.666, 0.746, 30.215, 56.928)" fill="#3f3d56"/>
    <ellipse id="Ellipse_16" data-name="Ellipse 16" cx="1.059" cy="0.737" rx="1.059" ry="0.737" transform="matrix(0.746, -0.666, 0.666, 0.746, 13.061, 55.369)" fill="#e6e6e6"/>
    <ellipse id="Ellipse_17" data-name="Ellipse 17" cx="1.059" cy="0.737" rx="1.059" ry="0.737" transform="matrix(0.746, -0.666, 0.666, 0.746, 14.564, 61.064)" fill="#ff6584"/>
    <ellipse id="Ellipse_18" data-name="Ellipse 18" cx="1.059" cy="0.737" rx="1.059" ry="0.737" transform="matrix(0.746, -0.666, 0.666, 0.746, 6.069, 58.765)" fill="#3f3d56"/>
    <ellipse id="Ellipse_19" data-name="Ellipse 19" cx="1.166" cy="1.676" rx="1.166" ry="1.676" transform="translate(53.465 4.52) rotate(-26.188)" fill="#e6e6e6"/>
    <ellipse id="Ellipse_20" data-name="Ellipse 20" cx="1.166" cy="1.676" rx="1.166" ry="1.676" transform="translate(55.806 15.224) rotate(-26.188)" fill="#3f3d56"/>
    <ellipse id="Ellipse_21" data-name="Ellipse 21" cx="1.166" cy="1.676" rx="1.166" ry="1.676" transform="translate(44.146 4.393) rotate(-26.188)" fill="#ff6584"/>
    <ellipse id="Ellipse_22" data-name="Ellipse 22" cx="1.059" cy="0.737" rx="1.059" ry="0.737" transform="translate(40.304 2.425) rotate(-18.343)" fill="#e6e6e6"/>
    <ellipse id="Ellipse_23" data-name="Ellipse 23" cx="1.059" cy="0.737" rx="1.059" ry="0.737" transform="translate(33.4 2.967) rotate(-18.343)" fill="#3f3d56"/>
    <ellipse id="Ellipse_24" data-name="Ellipse 24" cx="1.059" cy="0.737" rx="1.059" ry="0.737" transform="translate(48.523 11.213) rotate(-18.343)" fill="#e6e6e6"/>
    <ellipse id="Ellipse_25" data-name="Ellipse 25" cx="1.059" cy="0.737" rx="1.059" ry="0.737" transform="translate(49.406 5.389) rotate(-18.343)" fill="#ff6584"/>
    <ellipse id="Ellipse_26" data-name="Ellipse 26" cx="1.059" cy="0.737" rx="1.059" ry="0.737" transform="translate(56.29 10.874) rotate(-18.343)" fill="#3f3d56"/>
    <path id="Path_22" data-name="Path 22" d="M602.52,385.127l7.322-.377,3.4,5.374s6.4,1.07,5.956,8.61-7.786,14.157-7.786,14.157l.314,3.927-.545,1.557.07.875.744.926.077.958-.659,1.515.9,1.451-18.837-1.825-.689-2.509,1-1.347-.561-1.757.844-1.69.44-5.369s-4.814-7.232.712-12.678l2.218-3.77,2.481-3.028Z" transform="translate(-542.63 -339.864)" fill="#1f7a8c"/>
    <circle id="Ellipse_27" data-name="Ellipse 27" cx="7.759" cy="7.759" r="7.759" transform="translate(55.772 28.228)" fill="#ffb6b6"/>
    <path id="Path_23" data-name="Path 23" d="M615.676,309.495q-1,0-2-.057l-.119-.007.016-.118a5.435,5.435,0,0,0-.163-2.212,6.256,6.256,0,0,1-1.524,2.153l-.037.034-.05-.005a38.282,38.282,0,0,1-5.378-.981l-.068-.017-.013-.068a10.146,10.146,0,0,1-.2-1.969,6.089,6.089,0,0,1,2.109-4.9,6.982,6.982,0,0,1,5.978-1.029h7.595a3.153,3.153,0,0,1,3.149,3.149v4.81l-.083.022A36.33,36.33,0,0,1,615.676,309.495Z" transform="translate(-553.185 -273.978)" fill="#2f2e41"/>
    <path id="Path_24" data-name="Path 24" d="M407.308,262.634a1.367,1.367,0,0,0-.815,1.75l8.193,22.481a1.367,1.367,0,0,0,1.75.815l31.8-11.589a1.367,1.367,0,0,0,.815-1.75l-8.193-22.481a1.367,1.367,0,0,0-1.75-.815Z" transform="translate(-397.758 -235.748)" fill="#ccc"/>
    <path id="Path_25" data-name="Path 25" d="M440.338,283.1,420.873,290.2a1.471,1.471,0,0,1-1.884-.878l-7.431-20.391a1.471,1.471,0,0,1,.878-1.884l30-10.934a1.471,1.471,0,0,1,1.884.878l3.591,9.853A12.7,12.7,0,0,1,440.338,283.1Z" transform="translate(-401.695 -239.686)" fill="#fff"/>
    <path id="Path_26" data-name="Path 26" d="M460.04,308.513l-4.625,1.686a.47.47,0,0,1-.322-.883l4.625-1.686a.47.47,0,0,1,.322.883Z" transform="translate(-435.402 -279.825)" fill="#1f7a8c"/>
    <path id="Path_27" data-name="Path 27" d="M473.377,299.62l-14.994,5.465a.47.47,0,1,1-.322-.883l14.994-5.465a.47.47,0,0,1,.322.883Z" transform="translate(-437.713 -272.905)" fill="#1f7a8c"/>
    <path id="Path_28" data-name="Path 28" d="M476.785,308.971l-14.994,5.465a.47.47,0,0,1-.322-.883l14.994-5.465a.47.47,0,0,1,.322.883Z" transform="translate(-440.365 -280.181)" fill="#1f7a8c"/>
    <path id="Path_29" data-name="Path 29" d="M480.192,318.321,465.2,323.786a.47.47,0,0,1-.322-.883l14.994-5.465a.47.47,0,0,1,.322.883Z" transform="translate(-443.017 -287.458)" fill="#1f7a8c"/>
    <path id="Path_30" data-name="Path 30" d="M483.6,327.672l-14.994,5.464a.47.47,0,0,1-.322-.883l14.994-5.465a.47.47,0,0,1,.322.883Z" transform="translate(-445.669 -294.735)" fill="#1f7a8c"/>
    <path id="Path_31" data-name="Path 31" d="M700.972,283.559,692.762,303.2a3.437,3.437,0,0,1-4.451,1.853h0a3.437,3.437,0,0,1-1.831-4.639l9.153-20.145,5.046-12.475a3,3,0,1,1,3.834.336Z" transform="translate(-615.464 -244.863)" fill="#ffb6b6"/>
  </g>
</svg>
