<svg width="2" height="12" viewBox="0 0 2 12" fill="none" xmlns="http://www.w3.org/2000/svg">
<g id="Menu">
<path id="Vector" d="M0.552191 5.82693C0.552191 6.04619 0.729934 6.22393 0.949191 6.22393C1.16845 6.22393 1.34619 6.04619 1.34619 5.82693C1.34619 5.60767 1.16845 5.42993 0.949191 5.42993C0.729934 5.42993 0.552191 5.60767 0.552191 5.82693Z" stroke="#101010"/>
<path id="Vector_2" d="M0.552191 10.6109C0.552191 10.8301 0.729934 11.0079 0.949191 11.0079C1.16845 11.0079 1.34619 10.8301 1.34619 10.6109C1.34619 10.3916 1.16845 10.2139 0.949191 10.2139C0.729934 10.2139 0.552191 10.3916 0.552191 10.6109Z" stroke="#101010"/>
<path id="Vector_3" d="M0.552191 1.6409C0.552191 1.86015 0.729934 2.0379 0.949191 2.0379C1.16845 2.0379 1.34619 1.86015 1.34619 1.6409C1.34619 1.42164 1.16845 1.2439 0.949191 1.2439C0.729934 1.2439 0.552191 1.42164 0.552191 1.6409Z" stroke="#101010"/>
</g>
</svg>
