<svg xmlns="http://www.w3.org/2000/svg" width="211" height="178.172" viewBox="0 0 211 178.172">
  <g id="undraw_right_direction_tge8" transform="translate(0)">
    <path id="Path_46" data-name="Path 46" d="M93.512,478.686l4.093,1.144,6.363-15.245L97.927,462.9Z" transform="translate(-62.223 -308.013)" fill="#ffb8b8"/>
    <path id="Path_47" data-name="Path 47" d="M0,0H13.359V5.161H4.645A4.645,4.645,0,0,1,0,.517V0Z" transform="matrix(-0.963, -0.269, 0.269, -0.963, 42.215, 177.825)" fill="#2f2e41"/>
    <path id="Path_48" data-name="Path 48" d="M239.448,487.062H243.7l2.021-16.4h-6.273Z" transform="translate(-159.329 -313.183)" fill="#ffb8b8"/>
    <path id="Path_49" data-name="Path 49" d="M0,0H13.359V5.161H4.645A4.645,4.645,0,0,1,0,.517V0Z" transform="translate(92.568 177.824) rotate(179.995)" fill="#2f2e41"/>
    <circle id="Ellipse_32" data-name="Ellipse 32" cx="9.132" cy="9.132" r="9.132" transform="translate(53.434 56.829) rotate(-28.663)" fill="#ffb8b8"/>
    <path id="Path_51" data-name="Path 51" d="M461.49,431.307l-18.083-7.4-1.61-10.616a12.2,12.2,0,0,1,9.669-13.8l2.392-.48a12.31,12.31,0,0,1,11.024,3.27,11.753,11.753,0,0,1,3.449,10.575,10.238,10.238,0,0,1-1.935,4.507c-5.681,7.429-4.951,13.6-4.943,13.666Z" transform="translate(-389.137 -326.822)" fill="#1f7a8c"/>
    <path id="Path_52" data-name="Path 52" d="M502.752,458.972,493.69,444.56l2.854-26.217L492.6,398.735l.21.005a8.935,8.935,0,0,1,8.712,8.716l3.836,19.214Z" transform="translate(-423.037 -326.802)" fill="#2f2e41"/>
    <path id="Path_53" data-name="Path 53" d="M427.364,542.852a1.655,1.655,0,0,1-1.621-1.328l-3.97-19.743a30.971,30.971,0,0,0-4.032-10.212l-11.2-18.122a.576.576,0,0,0-1.022.082L387.1,537.774a1.658,1.658,0,0,1-1.858.985l-4.92-1a1.648,1.648,0,0,1-1.3-1.9l4.014-23.655a61.057,61.057,0,0,1,4.155-14.016l13.594-31.416,20.061,6.588,1.324,14.047,9.269,22.444a15.385,15.385,0,0,1,1.133,4.868l1.712,25.939a1.662,1.662,0,0,1-1.516,1.758l-5.264.431C427.455,542.851,427.41,542.852,427.364,542.852Z" transform="translate(-347.442 -372.073)" fill="#2f2e41"/>
    <path id="Path_54" data-name="Path 54" d="M401.538,467.637l-6.36-6.037L407.2,415.253a19.427,19.427,0,0,1,11.431-13.06l.236-.1-.642,28.208Z" transform="translate(-358.211 -329.039)" fill="#2f2e41"/>
    <path id="Path_55" data-name="Path 55" d="M457.169,351.292a7.074,7.074,0,0,1-1.56-8.281,6.6,6.6,0,0,1,7.514-3.287c2.662.8,5.688-1.858,5.364-4.7s-3.864-4.7-6.274-3.286a10.209,10.209,0,0,0-10.882,2.12,11.084,11.084,0,0,0-2.635,11.122C449.968,348.789,453.516,351.676,457.169,351.292Z" transform="translate(-393.47 -281.73)" fill="#2f2e41"/>
    <circle id="Ellipse_33" data-name="Ellipse 33" cx="0.891" cy="0.891" r="0.891" transform="translate(41.357 121.189)" fill="#3f3d56"/>
    <path id="Path_64" data-name="Path 64" d="M476.476,473.468a3.486,3.486,0,0,1,4.857-2.234l5.91-5.343,4.123,2.8-8.452,7.428a3.505,3.505,0,0,1-6.437-2.651Z" transform="translate(-412.22 -371.488)" fill="#ffb8b8"/>
    <path id="Path_65" data-name="Path 65" d="M495.982,432.618l-4.633-6.287,10.562-6.76-7.57-10.8a4.377,4.377,0,0,1,6.535-5.746l9.479,8.648a7.94,7.94,0,0,1-1.114,12.58Z" transform="translate(-422.204 -328.894)" fill="#2f2e41"/>
    <path id="Path_66" data-name="Path 66" d="M385.734,511.967a3.486,3.486,0,0,0,.484-5.324l3.063-7.355-4.016-2.951-4.179,10.447a3.505,3.505,0,0,0,4.648,5.183Z" transform="translate(-348.252 -391.747)" fill="#ffb8b8"/>
    <path id="Path_67" data-name="Path 67" d="M388.5,445.615l-7.243-1.687,5.4-15.564a25.517,25.517,0,0,1,4.06-7.43l8.805-11.2a4.924,4.924,0,1,1,7.763,6.059l-9.771,12.61Z" transform="translate(-348.945 -332.863)" fill="#2f2e41"/>
    <path id="Path_68" data-name="Path 68" d="M412.51,714.919H285.029a.335.335,0,1,1,0-.669H412.51a.335.335,0,1,1,0,.669Z" transform="translate(-284.694 -536.747)" fill="#ccc"/>
    <path id="Path_69" data-name="Path 69" d="M808.493,361.755h-3.011v-176.5a1.506,1.506,0,0,1,3.011,0Z" transform="translate(-631.228 -183.75)" fill="#e6e6e6"/>
    <path id="Path_70" data-name="Path 70" d="M785.872,714.919H739.029a.335.335,0,0,1,0-.669h46.844a.335.335,0,0,1,0,.669Z" transform="translate(-586.788 -536.747)" fill="#ccc"/>
    <path id="Path_71" data-name="Path 71" d="M786.8,221.476H742.987a1.507,1.507,0,0,1-1.506-1.506V207.256a1.507,1.507,0,0,1,1.506-1.506h43.818a1.509,1.509,0,0,1,.734.191l11.331,6.324a1.506,1.506,0,0,1,.006,2.626l-11.334,6.391A1.51,1.51,0,0,1,786.8,221.476Z" transform="translate(-588.642 -198.389)" fill="#1f7a8c"/>
    <path id="Path_72" data-name="Path 72" d="M752.312,303.476H708.5a1.51,1.51,0,0,1-.74-.194l-11.334-6.391a1.506,1.506,0,0,1,.006-2.626l11.331-6.324a1.509,1.509,0,0,1,.734-.191h43.819a1.507,1.507,0,0,1,1.506,1.506V301.97a1.507,1.507,0,0,1-1.506,1.506Z" transform="translate(-558.151 -252.952)" fill="#e6e6e6"/>
    <path id="Path_73" data-name="Path 73" d="M752.813,383.976H709a1.509,1.509,0,0,1-.739-.194l-11.334-6.391a1.506,1.506,0,0,1,.006-2.626l11.331-6.323a1.508,1.508,0,0,1,.734-.191h43.818a1.507,1.507,0,0,1,1.506,1.506V382.47A1.507,1.507,0,0,1,752.813,383.976Z" transform="translate(-558.483 -306.517)" fill="#e6e6e6"/>
  </g>
</svg>
