<?xml version="1.0" encoding="UTF-8"?>
<svg xmlns="http://www.w3.org/2000/svg" id="Layer_1" data-name="Layer 1" viewBox="0 0 24 24" width="512" height="512"><path d="M12.51,6.9l.98,.2-2,10-.98-.2,2-10Zm-3.18,2.66l-.71-.71-2.19,2.19c-.58,.58-.58,1.52,0,2.1l2.16,2.16,.71-.71-2.16-2.16c-.19-.19-.19-.5,0-.69l2.19-2.19Zm6.07-.75l-.71,.71,2.18,2.18c.19,.19,.19,.5,0,.69l-2.18,2.18,.71,.71,2.18-2.18c.58-.58,.58-1.52,0-2.1l-2.18-2.18Zm5.39,5.09l3,1.85-3.15,5.11-3-1.85c-.8,.65-1.68,1.14-2.64,1.48v3.51h-6v-3.51c-.95-.34-1.84-.83-2.64-1.48l-3,1.85L.21,15.75l3-1.85c-.14-.64-.21-1.28-.21-1.9s.07-1.26,.21-1.9L.21,8.25,3.36,3.14l3,1.85c.8-.65,1.68-1.14,2.64-1.48V0h6V3.51c.95,.34,1.84,.83,2.64,1.48l3-1.85,3.15,5.11-3,1.85c.14,.64,.21,1.28,.21,1.9s-.07,1.26-.21,1.9Zm-1.15,.47l.09-.36c.18-.68,.27-1.35,.27-2.01s-.09-1.33-.27-2.01l-.09-.36,2.77-1.71-2.1-3.4-2.77,1.71-.28-.24c-.86-.75-1.84-1.3-2.91-1.63l-.35-.11V1h-4v3.24l-.35,.11c-1.07,.33-2.05,.88-2.91,1.63l-.28,.24-2.77-1.71L1.59,7.92l2.77,1.71-.09,.36c-.18,.68-.27,1.35-.27,2.01s.09,1.33,.27,2.01l.09,.36-2.77,1.71,2.1,3.4,2.77-1.71,.28,.24c.86,.75,1.84,1.3,2.91,1.63l.35,.11v3.24h4v-3.24l.35-.11c1.07-.33,2.05-.88,2.91-1.63l.28-.24,2.77,1.71,2.1-3.4-2.77-1.71Z"/></svg>
